<svg width="56" height="56" viewBox="0 0 56 56" fill="none" xmlns="http://www.w3.org/2000/svg">
<path d="M2 44.25C2 41.6641 3.02723 39.1842 4.85571 37.3557C6.68419 35.5272 9.16414 34.5 11.75 34.5C14.3359 34.5 16.8158 35.5272 18.6443 37.3557C20.4728 39.1842 21.5 41.6641 21.5 44.25C21.5 46.8359 20.4728 49.3158 18.6443 51.1443C16.8158 52.9728 14.3359 54 11.75 54C9.16414 54 6.68419 52.9728 4.85571 51.1443C3.02723 49.3158 2 46.8359 2 44.25ZM2 44.25V18.25M54 44.25C54 20.954 35.046 2 11.75 2M37.75 44.25C37.75 29.9143 26.0857 18.25 11.75 18.25" stroke="#2F3A5A" stroke-width="3"/>
</svg>
