<svg width="200" height="52" viewBox="0 0 200 52" fill="none" xmlns="http://www.w3.org/2000/svg">
<path d="M13.6194 10.9337C12.5958 10.1441 11.904 9.00727 11.6775 7.74258C11.451 6.4779 11.7059 5.17501 12.3929 4.08534L9.77897 3.90425L11.0457 8.6801L10.5239 9.30096L9.38688 3.88037L8.28101 3.80078L14.676 0L23.7553 0.330329L19.8133 2.54911C19.9018 2.60947 19.9889 2.67281 20.0747 2.73915C20.6278 3.1553 21.092 3.67598 21.4402 4.27099C21.7885 4.86601 22.014 5.52353 22.1036 6.20543C22.1932 6.88733 22.1451 7.58005 21.9621 8.24342C21.7792 8.90679 21.465 9.52763 21.0378 10.0699C20.6106 10.6122 20.0789 11.0652 19.4735 11.4026C18.868 11.74 18.201 11.9551 17.5109 12.0355C16.8209 12.1158 16.1216 12.0598 15.4535 11.8707C14.7855 11.6816 14.1621 11.3631 13.6194 10.9337Z" fill="url(#paint0_linear_86_7)"/>
<path d="M34.3516 2.18799C34.3516 2.18799 32.5751 5.53605 32.8617 16.4091C33.0241 25.0125 33.7261 33.5977 34.9638 42.1151C17.2788 5.47139 34.3516 2.18799 34.3516 2.18799Z" fill="white"/>
<path d="M0.612254 2.18799C0.612254 2.18799 2.3887 5.53605 2.10217 16.4091C1.93976 25.0125 1.23768 33.5977 0 42.1151C17.685 5.47139 0.612254 2.18799 0.612254 2.18799Z" fill="white"/>
<path d="M17.123 37.1779V18.58C23.4949 8.83825 32.5972 7.65723 32.5972 7.65723C32.5972 7.65723 24.7385 18.172 22.585 22.4186C17.87 31.7155 17.1612 37.1928 17.125 37.1928C17.123 37.1919 17.123 37.1879 17.123 37.1779ZM11.661 22.4186C9.50751 18.172 1.64874 7.65723 1.64874 7.65723C1.64874 7.65723 10.7511 8.83825 17.123 18.58V37.1779C17.123 37.1869 17.123 37.1919 17.123 37.1919C17.0848 37.1919 16.376 31.7155 11.661 22.4186Z" fill="url(#paint1_linear_86_7)"/>
<path d="M52.602 44.2214H49.9608V41.6446H49.8964C48.7476 43.6202 47.0566 44.6079 44.8233 44.6079C43.1806 44.6079 41.8922 44.1731 40.9581 43.3034C40.0348 42.4338 39.5731 41.2796 39.5731 39.8409C39.5731 36.7595 41.3876 34.9664 45.0166 34.4618L49.9608 33.7693C49.9608 30.967 48.8281 29.5659 46.5627 29.5659C44.5764 29.5659 42.7834 30.2423 41.1836 31.5951V28.8895C42.8049 27.8588 44.673 27.3434 46.7882 27.3434C50.6641 27.3434 52.602 29.3941 52.602 33.4955V44.2214ZM49.9608 35.879L45.9829 36.4266C44.7589 36.5984 43.8356 36.9044 43.2128 37.3446C42.5901 37.7741 42.2788 38.5417 42.2788 39.6476C42.2788 40.4529 42.5633 41.1132 43.1323 41.6285C43.7121 42.1331 44.4798 42.3855 45.4353 42.3855C46.7452 42.3855 47.8242 41.9291 48.6724 41.0165C49.5314 40.0932 49.9608 38.9283 49.9608 37.5218V35.879Z" fill="black"/>
<path d="M66.1786 30.4034C65.7169 30.049 65.0512 29.8719 64.1815 29.8719C63.0542 29.8719 62.1094 30.4034 61.3471 31.4663C60.5955 32.5292 60.2197 33.9787 60.2197 35.8146V44.2214H57.5785V27.7299H60.2197V31.1281H60.2841C60.6599 29.9685 61.2343 29.0666 62.0074 28.4224C62.7804 27.7675 63.6447 27.44 64.6003 27.44C65.2874 27.44 65.8135 27.5152 66.1786 27.6655V30.4034Z" fill="black"/>
<path d="M83.121 42.9008C83.121 48.9563 80.2221 51.984 74.4243 51.984C72.3843 51.984 70.6021 51.5975 69.0774 50.8245V48.1833C70.9349 49.214 72.7064 49.7293 74.3921 49.7293C78.4505 49.7293 80.4798 47.5713 80.4798 43.2551V41.4514H80.4154C79.1592 43.5558 77.2695 44.6079 74.7464 44.6079C72.6957 44.6079 71.0423 43.8779 69.7861 42.4177C68.5406 40.9467 67.9179 38.9766 67.9179 36.5071C67.9179 33.7049 68.5889 31.477 69.931 29.8236C71.2838 28.1701 73.1305 27.3434 75.4711 27.3434C77.6936 27.3434 79.3417 28.2345 80.4154 30.0168H80.4798V27.7299H83.121V42.9008ZM80.4798 36.7648V34.333C80.4798 33.0231 80.0342 31.9011 79.1431 30.967C78.2627 30.0329 77.1622 29.5659 75.8415 29.5659C74.2096 29.5659 72.9319 30.1618 72.0086 31.3535C71.0852 32.5346 70.6235 34.1934 70.6235 36.33C70.6235 38.166 71.0637 39.6369 71.9441 40.7428C72.8353 41.8379 74.0109 42.3855 75.4711 42.3855C76.9528 42.3855 78.1553 41.8594 79.0786 40.8072C80.0127 39.755 80.4798 38.4075 80.4798 36.7648Z" fill="black"/>
<path d="M102.544 44.2214H99.9024V41.4192H99.838C98.614 43.545 96.7243 44.6079 94.169 44.6079C92.0968 44.6079 90.438 43.8725 89.1926 42.4016C87.9579 40.9199 87.3405 38.9068 87.3405 36.3622C87.3405 33.6351 88.0276 31.4502 89.4019 29.8075C90.7762 28.1648 92.6068 27.3434 94.8937 27.3434C97.1592 27.3434 98.8072 28.2345 99.838 30.0168H99.9024V19.8063H102.544V44.2214ZM99.9024 36.7648V34.333C99.9024 33.0016 99.4622 31.8743 98.5818 30.9509C97.7014 30.0276 96.5848 29.5659 95.2319 29.5659C93.6214 29.5659 92.3545 30.1564 91.4312 31.3374C90.5078 32.5185 90.0461 34.1504 90.0461 36.2334C90.0461 38.1337 90.4863 39.6369 91.3667 40.7428C92.2579 41.8379 93.4497 42.3855 94.942 42.3855C96.413 42.3855 97.6047 41.854 98.5174 40.7911C99.4407 39.7281 99.9024 38.3861 99.9024 36.7648Z" fill="black"/>
<path d="M119.695 44.2214H117.054V41.6446H116.99C115.841 43.6202 114.15 44.6079 111.917 44.6079C110.274 44.6079 108.986 44.1731 108.052 43.3034C107.128 42.4338 106.666 41.2796 106.666 39.8409C106.666 36.7595 108.481 34.9664 112.11 34.4618L117.054 33.7693C117.054 30.967 115.921 29.5659 113.656 29.5659C111.67 29.5659 109.877 30.2423 108.277 31.5951V28.8895C109.898 27.8588 111.766 27.3434 113.882 27.3434C117.757 27.3434 119.695 29.3941 119.695 33.4955V44.2214ZM117.054 35.879L113.076 36.4266C111.852 36.5984 110.929 36.9044 110.306 37.3446C109.683 37.7741 109.372 38.5417 109.372 39.6476C109.372 40.4529 109.657 41.1132 110.226 41.6285C110.805 42.1331 111.573 42.3855 112.529 42.3855C113.839 42.3855 114.918 41.9291 115.766 41.0165C116.625 40.0932 117.054 38.9283 117.054 37.5218V35.879Z" fill="black"/>
<path d="M133.272 30.4034C132.81 30.049 132.145 29.8719 131.275 29.8719C130.148 29.8719 129.203 30.4034 128.44 31.4663C127.689 32.5292 127.313 33.9787 127.313 35.8146V44.2214H124.672V27.7299H127.313V31.1281H127.377C127.753 29.9685 128.328 29.0666 129.101 28.4224C129.874 27.7675 130.738 27.44 131.694 27.44C132.381 27.44 132.907 27.5152 133.272 27.6655V30.4034Z" fill="black"/>
<path d="M135.14 43.6255V40.7911C136.579 41.854 138.162 42.3855 139.891 42.3855C142.21 42.3855 143.37 41.6124 143.37 40.0663C143.37 39.6261 143.268 39.2557 143.064 38.9551C142.87 38.6437 142.602 38.3699 142.258 38.1337C141.926 37.8975 141.528 37.6882 141.067 37.5056C140.616 37.3124 140.127 37.1138 139.601 36.9098C138.871 36.6199 138.227 36.33 137.669 36.0401C137.121 35.7395 136.659 35.4066 136.284 35.0416C135.918 34.6658 135.639 34.2417 135.446 33.7693C135.264 33.2969 135.172 32.7439 135.172 32.1105C135.172 31.3374 135.349 30.6557 135.704 30.0651C136.058 29.4639 136.53 28.9646 137.121 28.5674C137.712 28.1594 138.383 27.8534 139.134 27.6494C139.896 27.4454 140.68 27.3434 141.485 27.3434C142.913 27.3434 144.191 27.5903 145.318 28.0842V30.7577C144.105 29.9631 142.709 29.5659 141.131 29.5659C140.637 29.5659 140.192 29.6249 139.794 29.743C139.397 29.8504 139.054 30.0061 138.764 30.2101C138.485 30.4141 138.264 30.661 138.103 30.9509C137.953 31.2301 137.878 31.5414 137.878 31.885C137.878 32.3145 137.953 32.6742 138.103 32.964C138.264 33.2539 138.495 33.5116 138.796 33.7371C139.097 33.9626 139.462 34.1666 139.891 34.3491C140.321 34.5316 140.809 34.7302 141.357 34.945C142.087 35.2241 142.742 35.514 143.321 35.8146C143.901 36.1045 144.395 36.4374 144.803 36.8131C145.211 37.1782 145.522 37.6023 145.737 38.0854C145.963 38.5686 146.075 39.143 146.075 39.8087C146.075 40.6246 145.893 41.3333 145.528 41.9345C145.173 42.5358 144.696 43.035 144.094 43.4323C143.493 43.8295 142.801 44.1248 142.017 44.3181C141.233 44.5113 140.412 44.6079 139.553 44.6079C137.856 44.6079 136.386 44.2805 135.14 43.6255Z" fill="black"/>
<path d="M163.839 44.2214H161.198V34.7195C161.198 31.2838 159.92 29.5659 157.365 29.5659C156.077 29.5659 154.992 30.0651 154.112 31.0637C153.231 32.0514 152.791 33.3237 152.791 34.8805V44.2214H150.15V19.8063H152.791V30.4678H152.856C154.122 28.3849 155.926 27.3434 158.267 27.3434C161.982 27.3434 163.839 29.582 163.839 34.0592V44.2214Z" fill="black"/>
<path d="M180.637 44.2214H177.995V41.6446H177.931C176.782 43.6202 175.091 44.6079 172.858 44.6079C171.215 44.6079 169.927 44.1731 168.993 43.3034C168.069 42.4338 167.608 41.2796 167.608 39.8409C167.608 36.7595 169.422 34.9664 173.051 34.4618L177.995 33.7693C177.995 30.967 176.863 29.5659 174.597 29.5659C172.611 29.5659 170.818 30.2423 169.218 31.5951V28.8895C170.839 27.8588 172.708 27.3434 174.823 27.3434C178.699 27.3434 180.637 29.3941 180.637 33.4955V44.2214ZM177.995 35.879L174.018 36.4266C172.794 36.5984 171.87 36.9044 171.247 37.3446C170.625 37.7741 170.313 38.5417 170.313 39.6476C170.313 40.4529 170.598 41.1132 171.167 41.6285C171.747 42.1331 172.514 42.3855 173.47 42.3855C174.78 42.3855 175.859 41.9291 176.707 41.0165C177.566 40.0932 177.995 38.9283 177.995 37.5218V35.879Z" fill="black"/>
<path d="M199.302 44.2214H196.661V34.8161C196.661 31.316 195.383 29.5659 192.828 29.5659C191.508 29.5659 190.412 30.0651 189.543 31.0637C188.684 32.0514 188.254 33.3022 188.254 34.8161V44.2214H185.613V27.7299H188.254V30.4678H188.319C189.564 28.3849 191.368 27.3434 193.73 27.3434C195.534 27.3434 196.913 27.9286 197.869 29.0988C198.825 30.2584 199.302 31.9387 199.302 34.1397V44.2214Z" fill="black"/>
<path d="M51.4972 43.6742H48.856V41.0974H48.7916C47.6427 43.0729 45.9517 44.0607 43.7185 44.0607C42.0758 44.0607 40.7874 43.6258 39.8533 42.7562C38.9299 41.8865 38.4683 40.7323 38.4683 39.2936C38.4683 36.2122 40.2828 34.4192 43.9117 33.9145L48.856 33.222C48.856 30.4198 47.7233 29.0186 45.4578 29.0186C43.4715 29.0186 41.6785 29.695 40.0788 31.0478V28.3422C41.7 27.3115 43.5682 26.7961 45.6833 26.7961C49.5592 26.7961 51.4972 28.8468 51.4972 32.9482V43.6742ZM48.856 35.3318L44.878 35.8793C43.6541 36.0511 42.7307 36.3571 42.108 36.7973C41.4853 37.2268 41.1739 37.9945 41.1739 39.1003C41.1739 39.9056 41.4584 40.5659 42.0275 41.0813C42.6072 41.5859 43.3749 41.8382 44.3305 41.8382C45.6403 41.8382 46.7194 41.3819 47.5676 40.4693C48.4265 39.5459 48.856 38.381 48.856 36.9745V35.3318Z" fill="#23D2AC"/>
<path d="M65.0737 29.8561C64.612 29.5018 63.9463 29.3246 63.0767 29.3246C61.9493 29.3246 61.0045 29.8561 60.2422 30.919C59.4906 31.9819 59.1148 33.4314 59.1148 35.2674V43.6742H56.4736V27.1827H59.1148V30.5808H59.1793C59.5551 29.4212 60.1295 28.5194 60.9025 27.8752C61.6755 27.2202 62.5398 26.8928 63.4954 26.8928C64.1825 26.8928 64.7086 26.9679 65.0737 27.1182V29.8561Z" fill="#23D2AC"/>
<path d="M82.0161 42.3535C82.0161 48.409 79.1172 51.4368 73.3194 51.4368C71.2795 51.4368 69.4972 51.0502 67.9726 50.2772V47.636C69.83 48.6667 71.6016 49.1821 73.2872 49.1821C77.3457 49.1821 79.3749 47.024 79.3749 42.7079V40.9041H79.3105C78.0543 43.0085 76.1647 44.0607 73.6415 44.0607C71.5908 44.0607 69.9374 43.3306 68.6812 41.8704C67.4358 40.3995 66.813 38.4293 66.813 35.9599C66.813 33.1576 67.4841 30.9297 68.8262 29.2763C70.179 27.6229 72.0257 26.7961 74.3663 26.7961C76.5888 26.7961 78.2368 27.6873 79.3105 29.4696H79.3749V27.1827H82.0161V42.3535ZM79.3749 36.2175V33.7857C79.3749 32.4758 78.9293 31.3538 78.0382 30.4198C77.1578 29.4857 76.0573 29.0186 74.7367 29.0186C73.1047 29.0186 71.827 29.6145 70.9037 30.8063C69.9803 31.9873 69.5187 33.6461 69.5187 35.7827C69.5187 37.6187 69.9589 39.0896 70.8393 40.1955C71.7304 41.2906 72.9061 41.8382 74.3663 41.8382C75.8479 41.8382 77.0504 41.3121 77.9738 40.2599C78.9079 39.2077 79.3749 37.8603 79.3749 36.2175Z" fill="#23D2AC"/>
<path d="M101.439 43.6742H98.7975V40.8719H98.7331C97.5091 42.9977 95.6195 44.0607 93.0642 44.0607C90.992 44.0607 89.3332 43.3252 88.0877 41.8543C86.853 40.3726 86.2356 38.3595 86.2356 35.8149C86.2356 33.0878 86.9228 30.9029 88.2971 29.2602C89.6714 27.6175 91.502 26.7961 93.7889 26.7961C96.0543 26.7961 97.7024 27.6873 98.7331 29.4696H98.7975V19.259H101.439V43.6742ZM98.7975 36.2175V33.7857C98.7975 32.4544 98.3573 31.327 97.4769 30.4037C96.5965 29.4803 95.4799 29.0186 94.1271 29.0186C92.5166 29.0186 91.2497 29.6091 90.3263 30.7902C89.403 31.9712 88.9413 33.6032 88.9413 35.6861C88.9413 37.5865 89.3815 39.0896 90.2619 40.1955C91.153 41.2906 92.3448 41.8382 93.8372 41.8382C95.3081 41.8382 96.4999 41.3067 97.4125 40.2438C98.3358 39.1809 98.7975 37.8388 98.7975 36.2175Z" fill="#23D2AC"/>
<path d="M118.591 43.6742H115.949V41.0974H115.885C114.736 43.0729 113.045 44.0607 110.812 44.0607C109.169 44.0607 107.881 43.6258 106.947 42.7562C106.023 41.8865 105.562 40.7323 105.562 39.2936C105.562 36.2122 107.376 34.4192 111.005 33.9145L115.949 33.222C115.949 30.4198 114.817 29.0186 112.551 29.0186C110.565 29.0186 108.772 29.695 107.172 31.0478V28.3422C108.793 27.3115 110.662 26.7961 112.777 26.7961C116.653 26.7961 118.591 28.8468 118.591 32.9482V43.6742ZM115.949 35.3318L111.971 35.8793C110.747 36.0511 109.824 36.3571 109.201 36.7973C108.579 37.2268 108.267 37.9945 108.267 39.1003C108.267 39.9056 108.552 40.5659 109.121 41.0813C109.701 41.5859 110.468 41.8382 111.424 41.8382C112.734 41.8382 113.813 41.3819 114.661 40.4693C115.52 39.5459 115.949 38.381 115.949 36.9745V35.3318Z" fill="#23D2AC"/>
<path d="M132.167 29.8561C131.705 29.5018 131.04 29.3246 130.17 29.3246C129.043 29.3246 128.098 29.8561 127.336 30.919C126.584 31.9819 126.208 33.4314 126.208 35.2674V43.6742H123.567V27.1827H126.208V30.5808H126.273C126.648 29.4212 127.223 28.5194 127.996 27.8752C128.769 27.2202 129.633 26.8928 130.589 26.8928C131.276 26.8928 131.802 26.9679 132.167 27.1182V29.8561Z" fill="#23D2AC"/>
<path d="M134.035 43.0783V40.2438C135.474 41.3067 137.058 41.8382 138.786 41.8382C141.105 41.8382 142.265 41.0651 142.265 39.5191C142.265 39.0789 142.163 38.7085 141.959 38.4078C141.766 38.0965 141.497 37.8227 141.154 37.5865C140.821 37.3503 140.424 37.1409 139.962 36.9584C139.511 36.7651 139.022 36.5665 138.496 36.3625C137.766 36.0726 137.122 35.7827 136.564 35.4928C136.016 35.1922 135.554 34.8594 135.179 34.4943C134.814 34.1185 134.534 33.6944 134.341 33.222C134.159 32.7496 134.067 32.1967 134.067 31.5632C134.067 30.7902 134.245 30.1084 134.599 29.5179C134.953 28.9166 135.426 28.4174 136.016 28.0201C136.607 27.6121 137.278 27.3061 138.029 27.1021C138.792 26.8981 139.575 26.7961 140.381 26.7961C141.809 26.7961 143.086 27.0431 144.214 27.537V30.2104C143 29.4159 141.605 29.0186 140.026 29.0186C139.532 29.0186 139.087 29.0777 138.69 29.1958C138.292 29.3031 137.949 29.4588 137.659 29.6628C137.38 29.8668 137.16 30.1138 136.999 30.4037C136.848 30.6828 136.773 30.9942 136.773 31.3377C136.773 31.7672 136.848 32.1269 136.999 32.4168C137.16 32.7067 137.39 32.9643 137.691 33.1898C137.992 33.4153 138.357 33.6193 138.786 33.8018C139.216 33.9843 139.704 34.183 140.252 34.3977C140.982 34.6768 141.637 34.9667 142.217 35.2674C142.796 35.5572 143.29 35.8901 143.698 36.2659C144.106 36.6309 144.418 37.055 144.632 37.5382C144.858 38.0213 144.971 38.5957 144.971 39.2614C144.971 40.0774 144.788 40.786 144.423 41.3872C144.069 41.9885 143.591 42.4878 142.99 42.885C142.388 43.2823 141.696 43.5775 140.912 43.7708C140.128 43.964 139.307 44.0607 138.448 44.0607C136.752 44.0607 135.281 43.7332 134.035 43.0783Z" fill="#23D2AC"/>
<path d="M162.734 43.6742H160.093V34.1722C160.093 30.7365 158.815 29.0186 156.26 29.0186C154.972 29.0186 153.887 29.5179 153.007 30.5164C152.126 31.5042 151.686 32.7765 151.686 34.3333V43.6742H149.045V19.259H151.686V29.9205H151.751C153.018 27.8376 154.821 26.7961 157.162 26.7961C160.877 26.7961 162.734 29.0347 162.734 33.5119V43.6742Z" fill="#23D2AC"/>
<path d="M179.532 43.6742H176.891V41.0974H176.826C175.677 43.0729 173.986 44.0607 171.753 44.0607C170.11 44.0607 168.822 43.6258 167.888 42.7562C166.965 41.8865 166.503 40.7323 166.503 39.2936C166.503 36.2122 168.317 34.4192 171.946 33.9145L176.891 33.222C176.891 30.4198 175.758 29.0186 173.492 29.0186C171.506 29.0186 169.713 29.695 168.113 31.0478V28.3422C169.735 27.3115 171.603 26.7961 173.718 26.7961C177.594 26.7961 179.532 28.8468 179.532 32.9482V43.6742ZM176.891 35.3318L172.913 35.8793C171.689 36.0511 170.765 36.3571 170.143 36.7973C169.52 37.2268 169.209 37.9945 169.209 39.1003C169.209 39.9056 169.493 40.5659 170.062 41.0813C170.642 41.5859 171.41 41.8382 172.365 41.8382C173.675 41.8382 174.754 41.3819 175.602 40.4693C176.461 39.5459 176.891 38.381 176.891 36.9745V35.3318Z" fill="#23D2AC"/>
<path d="M198.197 43.6742H195.556V34.2688C195.556 30.7687 194.279 29.0186 191.723 29.0186C190.403 29.0186 189.308 29.5179 188.438 30.5164C187.579 31.5042 187.149 32.755 187.149 34.2688V43.6742H184.508V27.1827H187.149V29.9205H187.214C188.459 27.8376 190.263 26.7961 192.625 26.7961C194.429 26.7961 195.809 27.3813 196.764 28.5516C197.72 29.7111 198.197 31.3914 198.197 33.5924V43.6742Z" fill="#23D2AC"/>
<defs>
<linearGradient id="paint0_linear_86_7" x1="23.7553" y1="0" x2="12.0471" y2="15.0089" gradientUnits="userSpaceOnUse">
<stop stop-color="#38EF7D"/>
<stop offset="0.474" stop-color="#21CFB3"/>
<stop offset="1" stop-color="#30F6C5"/>
</linearGradient>
<linearGradient id="paint1_linear_86_7" x1="18.8252" y1="35.1844" x2="18.8252" y2="9.0454" gradientUnits="userSpaceOnUse">
<stop stop-color="#38EF7D"/>
<stop offset="0.652" stop-color="#21CFB3"/>
<stop offset="1" stop-color="#30F6C5"/>
</linearGradient>
</defs>
</svg>
