<svg width="25" height="25" viewBox="0 0 25 25" fill="none" xmlns="http://www.w3.org/2000/svg">
<path d="M1 19.6875C1 18.5438 1.45435 17.4469 2.2631 16.6381C3.07185 15.8294 4.16875 15.375 5.3125 15.375C6.45625 15.375 7.55315 15.8294 8.3619 16.6381C9.17065 17.4469 9.625 18.5438 9.625 19.6875C9.625 20.8312 9.17065 21.9281 8.3619 22.7369C7.55315 23.5456 6.45625 24 5.3125 24C4.16875 24 3.07185 23.5456 2.2631 22.7369C1.45435 21.9281 1 20.8312 1 19.6875ZM1 19.6875V8.1875M24 19.6875C24 9.3835 15.6165 1 5.3125 1M16.8125 19.6875C16.8125 13.3467 11.6533 8.1875 5.3125 8.1875" stroke="white" stroke-width="1.6"/>
</svg>
