<svg width="28" height="24" viewBox="0 0 28 24" fill="none" xmlns="http://www.w3.org/2000/svg">
<path d="M27.4377 3.96446L14.261 0.0378359C14.0918 -0.0126832 13.9087 -0.0126832 13.7395 0.0378359L0.562755 3.96446C0.398892 4.01337 0.256381 4.1071 0.155388 4.2324C0.0543951 4.3577 3.51655e-05 4.50822 0 4.66266V14.4792C0 14.6745 0.0867659 14.8618 0.24121 14.9998C0.395655 15.1379 0.605127 15.2155 0.823544 15.2155C1.04196 15.2155 1.25143 15.1379 1.40588 14.9998C1.56032 14.8618 1.64709 14.6745 1.64709 14.4792V5.68359L6.9562 7.26651C6.2867 8.15105 5.83302 9.1517 5.62469 10.2034C5.41635 11.255 5.45804 12.3341 5.74702 13.3704C6.03601 14.4067 6.56582 15.377 7.30198 16.2181C8.03815 17.0593 8.96417 17.7524 10.0198 18.2525C7.37758 19.0537 5.07852 20.6563 3.43143 22.9153C3.33676 23.0774 3.31296 23.2653 3.36467 23.4422C3.41638 23.6191 3.53991 23.7725 3.71119 23.8725C3.88247 23.9725 4.08925 24.0119 4.29126 23.9831C4.49327 23.9543 4.67605 23.8593 4.80401 23.7166C6.92738 20.8097 10.2778 19.1421 14.0003 19.1421C17.7227 19.1421 21.0731 20.8097 23.1965 23.7166C23.3237 23.8623 23.5075 23.9599 23.7115 23.9901C23.9154 24.0202 24.1246 23.9807 24.2975 23.8793C24.4704 23.7779 24.5943 23.6221 24.6446 23.4429C24.6949 23.2636 24.6679 23.074 24.5691 22.9117C22.922 20.6563 20.6257 19.0537 17.9807 18.2488C19.0358 17.7482 19.9611 17.0546 20.6966 16.2132C21.4321 15.3718 21.9612 14.4015 22.2495 13.3652C22.5378 12.329 22.5789 11.2501 22.3701 10.1987C22.1613 9.14729 21.7072 8.14699 21.0374 7.26283L27.4377 5.36087C27.6015 5.31188 27.7439 5.21812 27.8448 5.09282C27.9457 4.96753 28 4.81705 28 4.66266C28 4.50828 27.9457 4.3578 27.8448 4.23251C27.7439 4.10721 27.6015 4.01344 27.4377 3.96446ZM20.8631 11.5343C20.8636 12.5119 20.6027 13.4755 20.1023 14.3448C19.6018 15.214 18.8762 15.9638 17.986 16.5316C17.0958 17.0993 16.0666 17.4687 14.9844 17.6089C13.9021 17.7491 12.798 17.6561 11.7641 17.3375C10.7302 17.019 9.79647 16.4842 9.04061 15.7776C8.28475 15.0711 7.72869 14.2133 7.41877 13.2758C7.10884 12.3382 7.05402 11.348 7.25887 10.3877C7.46372 9.42735 7.92231 8.52468 8.59643 7.75488L13.7395 9.28749C13.9087 9.33801 14.0918 9.33801 14.261 9.28749L19.4041 7.75488C20.3509 8.83268 20.8648 10.1638 20.8631 11.5343ZM14.0003 7.81378L3.43143 4.66266L14.0003 1.51155L24.5691 4.66266L14.0003 7.81378Z" fill="white"/>
</svg>
