<svg width="25" height="24" viewBox="0 0 25 24" fill="none" xmlns="http://www.w3.org/2000/svg">
<path d="M9.17395 15C6.4617 15 1.04736 16.34 1.04736 19V21H17.3005V19C17.3005 16.34 11.8862 15 9.17395 15ZM3.07901 19C3.30249 18.28 6.44138 17 9.17395 17C11.9167 17 15.0657 18.29 15.2689 19H3.07901Z" fill="white"/>
<path d="M4.84639 8.99998H5.1105C5.1105 11.21 6.92882 13 9.17379 13C11.4188 13 13.2371 11.21 13.2371 8.99998H13.5012C13.7755 8.99998 13.9989 8.77998 13.9989 8.50998V8.48998C13.9989 8.21998 13.7755 7.99998 13.5012 7.99998H13.2371C13.2371 6.51998 12.4143 5.24998 11.2054 4.54998V5.49998C11.2054 5.77998 10.982 5.99998 10.6975 5.99998C10.4131 5.99998 10.1896 5.77998 10.1896 5.49998V4.13998C9.86455 4.05998 9.52933 3.99998 9.17379 3.99998C8.81825 3.99998 8.48303 4.05998 8.15797 4.13998V5.49998C8.15797 5.77998 7.93449 5.99998 7.65006 5.99998C7.36563 5.99998 7.14215 5.77998 7.14215 5.49998V4.54998C5.93332 5.24998 5.1105 6.51998 5.1105 7.99998H4.84639C4.57211 7.99998 4.34863 8.21998 4.34863 8.48998V8.51999C4.34863 8.77999 4.57211 8.99998 4.84639 8.99998ZM11.2054 8.99998C11.2054 10.1 10.2912 11 9.17379 11C8.05639 11 7.14215 10.1 7.14215 8.99998H11.2054Z" fill="white"/>
<path d="M22.3592 6.22998L23.3039 5.39998L22.542 4.09998L21.3332 4.48998C21.191 4.37998 21.0284 4.28998 20.8558 4.21998L20.6018 2.99998H19.0781L18.8241 4.21998C18.6514 4.28998 18.4889 4.37998 18.3365 4.48998L17.1378 4.09998L16.376 5.39998L17.3207 6.22998C17.3004 6.39998 17.3004 6.57998 17.3207 6.74998L16.376 7.59998L17.1378 8.89998L18.3568 8.51999C18.4889 8.61999 18.6413 8.69999 18.7936 8.76999L19.0781 9.99998H20.6018L20.8761 8.77998C21.0386 8.70998 21.1808 8.62998 21.323 8.52998L22.5319 8.90998L23.2937 7.60998L22.349 6.75998C22.3795 6.56998 22.3693 6.39998 22.3592 6.22998ZM19.8399 7.74998C19.139 7.74998 18.5702 7.18998 18.5702 6.49998C18.5702 5.80998 19.139 5.24998 19.8399 5.24998C20.5408 5.24998 21.1097 5.80998 21.1097 6.49998C21.1097 7.18998 20.5408 7.74998 19.8399 7.74998Z" fill="white"/>
<path d="M19.7384 10.79L18.8749 11.07C18.7733 10.99 18.6616 10.93 18.5397 10.88L18.3568 9.99998H17.2699L17.0871 10.87C16.9652 10.92 16.8433 10.99 16.7417 11.06L15.8884 10.78L15.3398 11.71L16.0103 12.3C16.0001 12.43 16.0001 12.55 16.0103 12.67L15.3398 13.28L15.8884 14.21L16.762 13.94C16.8636 14.01 16.9652 14.07 17.0769 14.12L17.2597 15H18.3467L18.5397 14.13C18.6514 14.08 18.7632 14.02 18.8648 13.95L19.7282 14.22L20.2767 13.29L19.6063 12.68C19.6165 12.55 19.6165 12.43 19.6063 12.31L20.2767 11.72L19.7384 10.79ZM17.8083 13.39C17.3105 13.39 16.9042 12.99 16.9042 12.5C16.9042 12.01 17.3105 11.61 17.8083 11.61C18.306 11.61 18.7124 12.01 18.7124 12.5C18.7124 12.99 18.306 13.39 17.8083 13.39Z" fill="white"/>
</svg>
