<svg width="500" height="386" viewBox="0 0 500 386" fill="none" xmlns="http://www.w3.org/2000/svg">
<path d="M438.334 313.14L53.2083 302.104C44.549 301.864 36.2745 298.475 29.9349 292.571C23.5952 286.668 19.6254 278.656 18.7692 270.035L0.179437 86.36C-0.315487 81.4434 0.216132 76.4776 1.7406 71.7773C3.26507 67.0769 5.74916 62.7444 9.03551 59.0542C12.3218 55.3641 16.3388 52.3967 20.8319 50.34C25.3249 48.2834 30.1962 47.1824 35.137 47.1067L463.812 41.1817C468.909 41.1128 473.963 42.1363 478.632 44.1835C483.301 46.2306 487.477 49.2539 490.881 53.0499C494.284 56.8459 496.834 61.3267 498.361 66.1909C499.888 71.055 500.355 76.1897 499.732 81.2496L474.773 281.885C473.661 290.688 469.315 298.762 462.58 304.539C455.845 310.315 447.203 313.381 438.334 313.14Z" fill="#EAF9F3"/>
<mask id="mask0_1_782" style="mask-type:luminance" maskUnits="userSpaceOnUse" x="0" y="41" width="500" height="273">
<path d="M438.334 313.14L53.2083 302.104C44.549 301.864 36.2745 298.475 29.9349 292.571C23.5952 286.668 19.6254 278.656 18.7692 270.035L0.179437 86.36C-0.315487 81.4434 0.216132 76.4776 1.7406 71.7773C3.26507 67.0769 5.74916 62.7444 9.03551 59.0542C12.3218 55.3641 16.3388 52.3967 20.8319 50.34C25.3249 48.2834 30.1962 47.1824 35.137 47.1067L463.812 41.1817C468.909 41.1128 473.963 42.1363 478.632 44.1835C483.301 46.2306 487.477 49.2539 490.881 53.0499C494.284 56.8459 496.834 61.3267 498.361 66.1909C499.888 71.055 500.355 76.1897 499.732 81.2496L474.773 281.885C473.661 290.688 469.315 298.762 462.58 304.539C455.845 310.315 447.203 313.381 438.334 313.14Z" fill="white"/>
</mask>
<g mask="url(#mask0_1_782)">
<path d="M323.019 321.88L324.352 351.875C324.352 354.821 323.181 357.647 321.098 359.731C319.014 361.814 316.189 362.984 313.242 362.984H5.43789C2.49149 362.984 -0.334222 361.814 -2.41764 359.731C-4.50105 357.647 -5.67151 354.821 -5.67151 351.875V177.309C-5.67151 174.363 -4.50105 171.537 -2.41764 169.454C-0.334222 167.37 2.49149 166.2 5.43789 166.2H313.168C316.115 166.2 318.94 167.37 321.024 169.454C323.107 171.537 324.278 174.363 324.278 177.309V295.365" stroke="#B8D8C7" stroke-width="1.8" stroke-linecap="round" stroke-linejoin="round"/>
<path d="M391.971 296.106V124.206C391.971 121.26 393.141 118.434 395.225 116.351C397.308 114.267 400.134 113.097 403.08 113.097H494.918C497.864 113.097 500.69 114.267 502.774 116.351C504.857 118.434 506.027 121.26 506.027 124.206V379.204C506.027 382.15 504.857 384.976 502.774 387.059C500.69 389.143 497.864 390.313 494.918 390.313H403.08C400.134 390.313 397.308 389.143 395.225 387.059C393.141 384.976 391.971 382.15 391.971 379.204V323.731" stroke="#B8D8C7" stroke-width="1.8" stroke-linecap="round" stroke-linejoin="round"/>
<path d="M63.2808 114.134H-3.30151V107.542H63.2808C63.4562 107.541 63.63 107.575 63.7921 107.641C63.9543 107.708 64.1017 107.806 64.2257 107.93C64.3497 108.054 64.4478 108.202 64.5145 108.364C64.5811 108.526 64.6149 108.7 64.614 108.875V112.726C64.6286 112.909 64.6047 113.092 64.5438 113.264C64.483 113.437 64.3866 113.594 64.2609 113.727C64.1352 113.86 63.9829 113.964 63.8141 114.035C63.6452 114.105 63.4635 114.138 63.2808 114.134Z" stroke="#B8D8C7" stroke-width="1.8" stroke-linecap="round" stroke-linejoin="round"/>
<path d="M53.1342 166.2H38.0995C37.3162 166.202 36.5593 165.916 35.9724 165.398C35.3854 164.879 35.0091 164.163 34.9148 163.385L33.7298 152.72C33.681 152.273 33.7269 151.82 33.8646 151.391C34.0023 150.963 34.2288 150.568 34.5292 150.232C34.8296 149.897 35.1972 149.629 35.6082 149.445C36.0192 149.261 36.4643 149.166 36.9145 149.165H54.3192C54.7691 149.167 55.2137 149.263 55.6241 149.447C56.0345 149.631 56.4017 149.9 56.7019 150.235C57.002 150.57 57.2286 150.964 57.3667 151.392C57.5049 151.821 57.5516 152.273 57.5039 152.72L56.3189 163.385C56.2358 164.168 55.8627 164.89 55.2733 165.411C54.6839 165.932 53.9207 166.213 53.1342 166.2Z" stroke="#B8D8C7" stroke-width="1.8" stroke-linecap="round" stroke-linejoin="round"/>
<path d="M43.8764 149.239C43.8764 149.239 37.9514 148.646 36.7664 140.647C36.7664 140.647 42.0989 142.203 43.8024 145.98C43.8024 145.98 44.543 137.537 48.5424 136.722C48.5424 136.722 50.3199 143.017 47.5055 146.128C47.5055 146.128 49.6533 142.573 55.1339 142.647C54.6161 144.207 53.7245 145.616 52.5368 146.752C51.3491 147.888 49.9015 148.717 48.3202 149.165" fill="#B8D8C7"/>
<path d="M457.59 113.096H442.556C441.772 113.099 441.016 112.813 440.429 112.294C439.842 111.776 439.465 111.06 439.371 110.282L438.186 99.617C438.137 99.1695 438.183 98.7166 438.321 98.2879C438.459 97.8593 438.685 97.4645 438.985 97.1291C439.286 96.7938 439.653 96.5254 440.064 96.3416C440.475 96.1577 440.921 96.0625 441.371 96.062H458.775C459.225 96.0636 459.67 96.1597 460.08 96.3439C460.491 96.5281 460.858 96.7965 461.158 97.1316C461.458 97.4667 461.685 97.861 461.823 98.2892C461.961 98.7173 462.008 99.1697 461.96 99.617L460.775 110.282C460.681 111.06 460.305 111.776 459.718 112.294C459.131 112.813 458.374 113.099 457.59 113.096Z" stroke="#B8D8C7" stroke-width="1.8" stroke-linecap="round" stroke-linejoin="round"/>
<path d="M448.259 96.1365C448.259 96.1365 442.334 95.544 441.149 87.5452C441.149 87.5452 446.481 89.1005 448.184 92.8777C448.184 92.8777 448.925 84.4346 452.925 83.6199C452.925 83.6199 454.702 89.9152 451.888 93.0258C451.888 93.0258 454.035 89.4708 459.516 89.5449C458.998 91.1047 458.107 92.5141 456.919 93.6502C455.731 94.7862 454.284 95.6144 452.702 96.0624" fill="#B8D8C7"/>
<path d="M310.872 203.009H244.068C243.245 203.003 242.457 202.674 241.875 202.092C241.293 201.509 240.963 200.722 240.957 199.898V179.605C240.963 178.782 241.293 177.994 241.875 177.412C242.457 176.83 243.245 176.5 244.068 176.495H310.872C311.696 176.5 312.483 176.83 313.065 177.412C313.648 177.994 313.977 178.782 313.983 179.605V199.898C313.977 200.722 313.648 201.509 313.065 202.092C312.483 202.674 311.696 203.003 310.872 203.009Z" stroke="#B8D8C7" stroke-width="1.8" stroke-linecap="round" stroke-linejoin="round"/>
<path d="M285.099 183.678H269.693C269.401 183.671 269.123 183.551 268.916 183.345C268.709 183.138 268.59 182.86 268.583 182.567C268.59 182.275 268.709 181.997 268.916 181.79C269.123 181.584 269.401 181.464 269.693 181.457H285.099C285.391 181.464 285.669 181.584 285.876 181.79C286.083 181.997 286.202 182.275 286.209 182.567C286.212 182.714 286.186 182.86 286.131 182.996C286.076 183.132 285.995 183.256 285.891 183.36C285.787 183.464 285.663 183.545 285.527 183.6C285.391 183.655 285.245 183.681 285.099 183.678Z" fill="#B8D8C7"/>
<path d="M310.872 237.003H244.068C243.245 236.998 242.457 236.668 241.875 236.086C241.293 235.504 240.963 234.716 240.957 233.893V213.6C240.963 212.776 241.293 211.989 241.875 211.407C242.457 210.824 243.245 210.495 244.068 210.489H310.872C311.696 210.495 312.483 210.824 313.065 211.407C313.648 211.989 313.977 212.776 313.983 213.6V233.893C313.977 234.716 313.648 235.504 313.065 236.086C312.483 236.668 311.696 236.998 310.872 237.003Z" stroke="#B8D8C7" stroke-width="1.8" stroke-linecap="round" stroke-linejoin="round"/>
<path d="M285.099 217.599H269.693C269.401 217.592 269.123 217.472 268.916 217.265C268.709 217.059 268.59 216.78 268.583 216.488C268.59 216.196 268.709 215.918 268.916 215.711C269.123 215.504 269.401 215.385 269.693 215.377H285.099C285.391 215.385 285.669 215.504 285.876 215.711C286.083 215.918 286.202 216.196 286.209 216.488C286.212 216.635 286.186 216.781 286.131 216.917C286.076 217.053 285.995 217.177 285.891 217.28C285.787 217.384 285.663 217.466 285.527 217.521C285.391 217.575 285.245 217.602 285.099 217.599Z" fill="#B8D8C7"/>
<path d="M225.7 203.009H158.896C158.073 203.003 157.285 202.674 156.703 202.092C156.121 201.509 155.791 200.722 155.785 199.898V179.605C155.791 178.782 156.121 177.994 156.703 177.412C157.285 176.83 158.073 176.5 158.896 176.495H225.7C226.524 176.5 227.311 176.83 227.893 177.412C228.476 177.994 228.805 178.782 228.811 179.605V199.898C228.805 200.722 228.476 201.509 227.893 202.092C227.311 202.674 226.524 203.003 225.7 203.009Z" stroke="#B8D8C7" stroke-width="1.8" stroke-linecap="round" stroke-linejoin="round"/>
<path d="M200.001 183.678H184.595C184.303 183.671 184.025 183.551 183.818 183.345C183.611 183.138 183.492 182.86 183.485 182.567C183.492 182.275 183.611 181.997 183.818 181.79C184.025 181.584 184.303 181.464 184.595 181.457H200.001C200.293 181.464 200.571 181.584 200.778 181.79C200.985 181.997 201.104 182.275 201.111 182.567C201.104 182.86 200.985 183.138 200.778 183.345C200.571 183.551 200.293 183.671 200.001 183.678Z" fill="#B8D8C7"/>
<path d="M225.7 237.003H158.896C158.073 236.998 157.285 236.668 156.703 236.086C156.121 235.504 155.791 234.716 155.785 233.893V213.6C155.791 212.776 156.121 211.989 156.703 211.407C157.285 210.824 158.073 210.495 158.896 210.489H225.7C226.524 210.495 227.311 210.824 227.893 211.407C228.476 211.989 228.805 212.776 228.811 213.6V233.893C228.805 234.716 228.476 235.504 227.893 236.086C227.311 236.668 226.524 236.998 225.7 237.003Z" stroke="#B8D8C7" stroke-width="1.8" stroke-linecap="round" stroke-linejoin="round"/>
<path d="M200.001 217.599H184.595C184.303 217.592 184.025 217.472 183.818 217.265C183.611 217.059 183.492 216.78 183.485 216.488C183.492 216.196 183.611 215.918 183.818 215.711C184.025 215.504 184.303 215.385 184.595 215.377H200.001C200.293 215.385 200.571 215.504 200.778 215.711C200.985 215.918 201.104 216.196 201.111 216.488C201.104 216.78 200.985 217.059 200.778 217.265C200.571 217.472 200.293 217.592 200.001 217.599Z" fill="#B8D8C7"/>
<path d="M310.872 270.184H244.068C243.245 270.178 242.457 269.848 241.875 269.266C241.293 268.684 240.963 267.896 240.957 267.073V246.78C240.963 245.957 241.293 245.169 241.875 244.587C242.457 244.005 243.245 243.675 244.068 243.669H310.872C311.696 243.675 312.483 244.005 313.065 244.587C313.648 245.169 313.977 245.957 313.983 246.78V267.073C313.977 267.896 313.648 268.684 313.065 269.266C312.483 269.848 311.696 270.178 310.872 270.184Z" stroke="#B8D8C7" stroke-width="1.8" stroke-linecap="round" stroke-linejoin="round"/>
<path d="M285.099 250.853H269.693C269.401 250.845 269.123 250.726 268.916 250.519C268.709 250.313 268.59 250.034 268.583 249.742C268.59 249.45 268.709 249.172 268.916 248.965C269.123 248.758 269.401 248.639 269.693 248.631H285.099C285.391 248.639 285.669 248.758 285.876 248.965C286.083 249.172 286.202 249.45 286.209 249.742C286.212 249.889 286.186 250.035 286.131 250.171C286.076 250.307 285.995 250.431 285.891 250.534C285.787 250.638 285.663 250.72 285.527 250.775C285.391 250.829 285.245 250.856 285.099 250.853Z" fill="#B8D8C7"/>
<path d="M225.7 270.184H158.896C158.073 270.178 157.285 269.848 156.703 269.266C156.121 268.684 155.791 267.896 155.785 267.073V246.78C155.791 245.957 156.121 245.169 156.703 244.587C157.285 244.005 158.073 243.675 158.896 243.669H225.7C226.524 243.675 227.311 244.005 227.893 244.587C228.476 245.169 228.805 245.957 228.811 246.78V267.073C228.805 267.896 228.476 268.684 227.893 269.266C227.311 269.848 226.524 270.178 225.7 270.184Z" stroke="#B8D8C7" stroke-width="1.8" stroke-linecap="round" stroke-linejoin="round"/>
<path d="M200.001 250.853H184.595C184.303 250.845 184.025 250.726 183.818 250.519C183.611 250.313 183.492 250.034 183.485 249.742C183.492 249.45 183.611 249.172 183.818 248.965C184.025 248.758 184.303 248.639 184.595 248.631H200.001C200.293 248.639 200.571 248.758 200.778 248.965C200.985 249.172 201.104 249.45 201.111 249.742C201.104 250.034 200.985 250.313 200.778 250.519C200.571 250.726 200.293 250.845 200.001 250.853Z" fill="#B8D8C7"/>
<path d="M526.173 190.714H407.746C406.846 190.704 405.985 190.342 405.348 189.705C404.711 189.068 404.349 188.207 404.339 187.307V128.279C404.349 127.378 404.711 126.517 405.348 125.881C405.985 125.244 406.846 124.882 407.746 124.872H526.173C527.073 124.882 527.934 125.244 528.571 125.881C529.208 126.517 529.57 127.378 529.579 128.279V187.307C529.586 187.756 529.503 188.202 529.334 188.619C529.166 189.035 528.915 189.414 528.597 189.732C528.279 190.049 527.901 190.3 527.484 190.469C527.068 190.637 526.622 190.721 526.173 190.714Z" stroke="#B8D8C7" stroke-width="1.8" stroke-linecap="round" stroke-linejoin="round"/>
<path d="M526.173 264.036H407.746C406.846 264.026 405.985 263.664 405.348 263.027C404.711 262.39 404.349 261.529 404.339 260.629V201.601C404.349 200.7 404.711 199.839 405.348 199.203C405.985 198.566 406.846 198.204 407.746 198.194H526.173C527.073 198.204 527.934 198.566 528.571 199.203C529.208 199.839 529.57 200.7 529.579 201.601V260.629C529.58 261.077 529.493 261.52 529.322 261.934C529.151 262.348 528.9 262.724 528.584 263.04C528.267 263.357 527.891 263.608 527.477 263.778C527.064 263.949 526.62 264.037 526.173 264.036Z" stroke="#B8D8C7" stroke-width="1.8" stroke-linecap="round" stroke-linejoin="round"/>
<path d="M434.409 153.461H427.077V190.714H434.409V153.461Z" stroke="#B8D8C7" stroke-width="1.8" stroke-linecap="round" stroke-linejoin="round"/>
<path d="M441.963 163.681H434.335V190.788H441.963V163.681Z" stroke="#B8D8C7" stroke-width="1.8" stroke-linecap="round" stroke-linejoin="round"/>
<path d="M36.4701 70.2886H29.1379V107.542H36.4701V70.2886Z" stroke="#B8D8C7" stroke-width="1.8" stroke-linecap="round" stroke-linejoin="round"/>
<path d="M44.0246 80.4348H36.3961V107.542H44.0246V80.4348Z" stroke="#B8D8C7" stroke-width="1.8" stroke-linecap="round" stroke-linejoin="round"/>
<path d="M21.5095 85.7678H14.1773V107.542H21.5095V85.7678Z" stroke="#B8D8C7" stroke-width="1.8" stroke-linecap="round" stroke-linejoin="round"/>
<path d="M29.1379 63.9189H21.5095V107.468H29.1379V63.9189Z" stroke="#B8D8C7" stroke-width="1.8" stroke-linecap="round" stroke-linejoin="round"/>
<path d="M429.817 231.67L430.632 220.635C430.647 220.462 430.626 220.288 430.57 220.124C430.513 219.96 430.422 219.81 430.303 219.684C430.184 219.558 430.039 219.459 429.879 219.393C429.719 219.327 429.546 219.296 429.373 219.302H423.077C422.906 219.303 422.736 219.338 422.579 219.406C422.422 219.475 422.28 219.574 422.162 219.699C422.044 219.823 421.953 219.971 421.894 220.131C421.835 220.292 421.809 220.464 421.818 220.635L422.633 231.67C422.633 231.67 415.967 235.966 416.041 239.521C416.115 242.261 417.745 255.37 418.485 261.147C418.58 261.925 418.956 262.641 419.543 263.16C420.13 263.678 420.887 263.964 421.67 263.962H430.854C431.637 263.964 432.394 263.678 432.981 263.16C433.568 262.641 433.944 261.925 434.038 261.147C434.779 255.37 436.408 242.261 436.483 239.521C436.483 235.966 429.817 231.67 429.817 231.67Z" fill="#B8D8C7"/>
<path d="M465.515 158.423L466.33 147.387C466.346 147.215 466.325 147.04 466.268 146.877C466.211 146.713 466.12 146.563 466.001 146.436C465.882 146.31 465.738 146.211 465.577 146.145C465.417 146.079 465.244 146.048 465.071 146.054H458.701C458.53 146.055 458.36 146.091 458.203 146.159C458.046 146.227 457.904 146.326 457.786 146.451C457.669 146.576 457.577 146.723 457.518 146.884C457.459 147.045 457.433 147.216 457.442 147.387L458.257 158.423C458.257 158.423 451.591 162.718 451.665 166.273C451.739 169.014 453.369 182.123 454.109 187.9C454.204 188.677 454.58 189.393 455.167 189.912C455.754 190.431 456.511 190.716 457.294 190.714H466.478C467.261 190.716 468.018 190.431 468.605 189.912C469.192 189.393 469.568 188.677 469.663 187.9C470.403 182.123 472.033 169.014 472.107 166.273C472.181 162.718 465.515 158.423 465.515 158.423Z" fill="#B8D8C7"/>
<path d="M4.40094 291.884L525.061 297.587" stroke="#B8D8C7" stroke-width="1.8" stroke-linecap="round" stroke-linejoin="round"/>
</g>
<path d="M278.507 28.2942C275.618 34.4414 268.953 38.5149 264.287 37.2558C260.213 36.1449 259.473 31.3308 262.065 26.5167C264.583 21.9248 269.619 18.2217 273.989 18.1476C278.803 17.9995 281.173 22.4433 278.507 28.2942Z" fill="#F8AB5D"/>
<path d="M277.1 27.0354C274.211 33.1826 267.546 37.2561 262.88 35.997C258.806 34.8861 258.066 30.072 260.658 25.2579C263.176 20.666 268.212 16.9629 272.582 16.8889C277.396 16.7407 279.766 21.1845 277.1 27.0354Z" fill="#FFE779"/>
<path d="M274.73 26.7388C272.582 31.3307 267.546 34.4413 263.991 33.6266C260.806 32.886 260.065 29.1829 262.065 25.4057C263.991 21.7766 268.064 18.8882 271.397 18.8882C275.174 18.9622 276.803 22.3691 274.73 26.7388Z" fill="#B8D8C7"/>
<path d="M265.102 30.6647L265.398 30.1462C265.472 29.9241 265.472 29.7759 265.324 29.7019C264.996 29.639 264.705 29.4536 264.509 29.1834C264.435 29.1094 264.435 28.8872 264.583 28.665L264.657 28.5909C264.805 28.3687 265.102 28.2947 265.176 28.4428C265.432 28.7154 265.77 28.8974 266.138 28.9612C266.518 29.0155 266.905 28.9433 267.24 28.7559C267.574 28.5686 267.838 28.2764 267.99 27.9244C268.074 27.7899 268.13 27.6394 268.153 27.4825C268.176 27.3255 268.167 27.1654 268.125 27.0122C268.083 26.8591 268.01 26.7163 267.911 26.5929C267.811 26.4694 267.687 26.368 267.546 26.295C267.349 26.1998 267.176 26.0635 267.037 25.8952C266.898 25.7269 266.797 25.5306 266.74 25.3198C266.684 25.1089 266.674 24.8884 266.711 24.6732C266.747 24.4581 266.83 24.2534 266.953 24.0731C267.161 23.6328 267.471 23.2485 267.858 22.9523C268.244 22.656 268.696 22.4562 269.175 22.3697C269.323 22.3697 269.471 22.2215 269.619 21.9993L269.916 21.4809C269.954 21.3735 270.024 21.2803 270.116 21.214C270.209 21.1478 270.32 21.1117 270.434 21.1106C270.582 21.1106 270.656 21.2587 270.582 21.4809L270.36 21.9253C270.286 22.1475 270.286 22.2956 270.508 22.2956C270.753 22.3334 270.983 22.4356 271.175 22.5918C271.323 22.6659 271.249 22.8881 271.101 23.1103L271.027 23.1844C270.878 23.4065 270.582 23.4806 270.508 23.3325C270.254 23.1351 269.941 23.0306 269.619 23.0362C269.283 23.0146 268.947 23.0949 268.656 23.2666C268.366 23.4383 268.134 23.6935 267.99 23.999C267.694 24.5915 267.916 24.9618 268.582 25.4803C268.787 25.5974 268.965 25.7564 269.104 25.947C269.243 26.1376 269.34 26.3554 269.389 26.5862C269.438 26.817 269.438 27.0555 269.388 27.2861C269.338 27.5167 269.241 27.7342 269.101 27.9244C268.867 28.4173 268.515 28.8445 268.075 29.1676C267.636 29.4908 267.123 29.6998 266.583 29.7759C266.482 29.7901 266.386 29.8322 266.308 29.8977C266.229 29.9631 266.171 30.0492 266.138 30.1462L265.842 30.7387C265.795 30.8401 265.723 30.9275 265.632 30.9925C265.541 31.0574 265.435 31.0976 265.324 31.1091C265.027 31.1091 264.953 30.8869 265.102 30.6647Z" fill="#FFE779"/>
<path d="M413.523 160.644L384.787 158.866C384.314 158.835 383.852 158.711 383.428 158.5C383.003 158.289 382.625 157.996 382.315 157.638C382.005 157.279 381.769 156.863 381.621 156.413C381.474 155.963 381.417 155.488 381.454 155.015L385.824 96.0613C385.907 95.0748 386.341 94.1509 387.048 93.4577C387.755 92.7645 388.687 92.348 389.675 92.2841L419.078 90.5066C419.587 90.4801 420.096 90.5622 420.572 90.7474C421.047 90.9326 421.477 91.2166 421.835 91.5808C422.192 91.945 422.467 92.3809 422.643 92.8596C422.819 93.3384 422.891 93.8491 422.855 94.3578L417.967 156.867C417.853 157.946 417.328 158.941 416.5 159.644C415.673 160.347 414.607 160.705 413.523 160.644Z" fill="#22272E"/>
<path d="M411.523 160.644L382.787 158.866C382.314 158.835 381.852 158.711 381.428 158.5C381.004 158.289 380.625 157.996 380.315 157.638C380.005 157.279 379.769 156.863 379.622 156.413C379.474 155.963 379.417 155.488 379.454 155.015L383.824 96.0613C383.907 95.0748 384.341 94.1509 385.048 93.4577C385.755 92.7645 386.687 92.348 387.675 92.2841L417.078 90.5066C417.587 90.4801 418.097 90.5622 418.572 90.7474C419.047 90.9326 419.478 91.2166 419.835 91.5808C420.192 91.945 420.468 92.3809 420.644 92.8596C420.819 93.3384 420.892 93.8491 420.855 94.3578L415.967 156.867C415.853 157.946 415.328 158.941 414.501 159.644C413.673 160.347 412.607 160.705 411.523 160.644Z" fill="#22272E"/>
<path d="M402.71 97.395L397.229 97.6912C397.13 97.6978 397.031 97.6831 396.938 97.6482C396.845 97.6133 396.761 97.559 396.691 97.4888C396.621 97.4187 396.567 97.3344 396.532 97.2416C396.497 97.1488 396.482 97.0495 396.489 96.9506C396.491 96.7351 396.577 96.529 396.729 96.3767C396.882 96.2243 397.088 96.1378 397.303 96.1359L402.784 95.8397C402.883 95.8331 402.982 95.8478 403.075 95.8827C403.168 95.9176 403.252 95.9719 403.322 96.042C403.392 96.1122 403.447 96.1965 403.482 96.2893C403.516 96.3821 403.531 96.4813 403.525 96.5803C403.523 96.7958 403.436 97.0018 403.284 97.1542C403.131 97.3066 402.925 97.393 402.71 97.395Z" fill="#63737A"/>
<path d="M405.895 97.2474H405.746C405.648 97.2539 405.548 97.2392 405.455 97.2043C405.363 97.1694 405.278 97.1151 405.208 97.045C405.138 96.9748 405.084 96.8905 405.049 96.7977C405.014 96.7049 404.999 96.6057 405.006 96.5067C405.034 96.2808 405.136 96.0706 405.297 95.9096C405.458 95.7486 405.669 95.6459 405.895 95.618H406.043C406.142 95.6114 406.241 95.6261 406.334 95.661C406.427 95.6959 406.511 95.7502 406.581 95.8204C406.651 95.8905 406.705 95.9748 406.74 96.0676C406.775 96.1604 406.79 96.2596 406.783 96.3586C406.755 96.5846 406.653 96.7947 406.492 96.9557C406.331 97.1167 406.121 97.2194 405.895 97.2474Z" fill="#63737A"/>
<path d="M397.303 107.245L389.971 107.468C389.792 107.47 389.615 107.434 389.451 107.362C389.287 107.29 389.141 107.184 389.021 107.051C388.902 106.917 388.813 106.76 388.759 106.589C388.706 106.418 388.69 106.238 388.712 106.06C388.751 105.681 388.92 105.326 389.189 105.056C389.459 104.787 389.814 104.618 390.193 104.579L397.526 104.283C397.705 104.28 397.882 104.316 398.046 104.388C398.21 104.46 398.356 104.566 398.476 104.7C398.595 104.833 398.684 104.991 398.737 105.161C398.791 105.332 398.807 105.512 398.785 105.69C398.775 106.087 398.618 106.466 398.344 106.753C398.07 107.041 397.699 107.216 397.303 107.245Z" fill="#63737A"/>
<path d="M395.378 132.722L388.12 132.648C387.945 132.639 387.773 132.595 387.615 132.519C387.457 132.443 387.315 132.337 387.198 132.206C387.081 132.075 386.991 131.923 386.933 131.757C386.875 131.592 386.851 131.416 386.861 131.241C386.902 130.87 387.073 130.525 387.344 130.267C387.615 130.01 387.969 129.856 388.342 129.834L395.6 129.908C395.777 129.911 395.952 129.951 396.113 130.025C396.274 130.099 396.418 130.205 396.536 130.337C396.654 130.469 396.744 130.624 396.8 130.793C396.855 130.961 396.875 131.139 396.859 131.315C396.831 131.692 396.664 132.045 396.391 132.305C396.117 132.565 395.756 132.714 395.378 132.722Z" fill="#63737A"/>
<path d="M393.822 153.312L386.564 152.942C386.383 152.93 386.207 152.881 386.045 152.8C385.883 152.718 385.739 152.605 385.622 152.467C385.504 152.329 385.416 152.169 385.361 151.996C385.307 151.823 385.288 151.641 385.305 151.46C385.321 151.099 385.476 150.758 385.739 150.509C386.001 150.26 386.351 150.123 386.712 150.127L393.971 150.424C394.154 150.429 394.333 150.473 394.498 150.553C394.664 150.632 394.81 150.745 394.929 150.885C395.047 151.024 395.135 151.187 395.187 151.363C395.239 151.539 395.253 151.723 395.23 151.905C395.23 152.278 395.081 152.636 394.817 152.9C394.554 153.164 394.196 153.312 393.822 153.312Z" fill="#63737A"/>
<path d="M410.709 123.613L389.082 123.687C388.865 123.688 388.65 123.643 388.451 123.556C388.252 123.469 388.073 123.341 387.927 123.18C387.78 123.02 387.669 122.83 387.6 122.624C387.531 122.418 387.506 122.2 387.527 121.983L388.194 112.577C388.221 112.201 388.388 111.848 388.662 111.587C388.936 111.327 389.297 111.178 389.675 111.17L411.375 110.578C411.593 110.577 411.808 110.621 412.007 110.708C412.206 110.796 412.384 110.924 412.531 111.084C412.677 111.245 412.789 111.434 412.858 111.64C412.926 111.846 412.951 112.065 412.931 112.281L412.19 122.131C412.19 122.524 412.034 122.901 411.756 123.179C411.478 123.457 411.102 123.613 410.709 123.613Z" fill="#B0D7C0"/>
<path d="M394.859 145.387L387.453 145.091C387.241 145.084 387.033 145.033 386.842 144.942C386.651 144.851 386.48 144.722 386.341 144.562C386.202 144.402 386.098 144.215 386.034 144.013C385.97 143.811 385.949 143.598 385.972 143.387L386.416 137.758C386.426 137.564 386.473 137.373 386.557 137.197C386.64 137.021 386.757 136.863 386.902 136.732C387.046 136.602 387.215 136.501 387.399 136.435C387.582 136.37 387.777 136.341 387.971 136.351L395.452 136.499C395.883 136.522 396.287 136.714 396.578 137.033C396.869 137.351 397.023 137.772 397.007 138.203L396.563 143.98C396.495 144.38 396.286 144.742 395.973 145.001C395.66 145.259 395.265 145.396 394.859 145.387Z" fill="#FFE779"/>
<path d="M408.931 145.832L401.006 145.536C400.795 145.529 400.587 145.478 400.395 145.387C400.204 145.296 400.034 145.167 399.895 145.007C399.756 144.847 399.651 144.66 399.587 144.458C399.524 144.256 399.503 144.043 399.525 143.832L399.97 137.981C399.979 137.787 400.027 137.596 400.11 137.42C400.194 137.244 400.311 137.086 400.455 136.955C400.6 136.824 400.769 136.723 400.952 136.658C401.136 136.592 401.33 136.564 401.525 136.574L409.524 136.722C409.955 136.745 410.359 136.937 410.65 137.255C410.941 137.574 411.095 137.994 411.079 138.426L410.635 144.425C410.57 144.826 410.362 145.19 410.048 145.449C409.735 145.708 409.338 145.844 408.931 145.832Z" fill="#F4C2C9"/>
<path d="M231.625 69.473L207.555 70.5839C207.112 70.6019 206.671 70.5203 206.263 70.345C205.856 70.1698 205.494 69.9054 205.202 69.5713C204.911 69.2373 204.698 68.8421 204.58 68.4149C204.461 67.9877 204.44 67.5394 204.518 67.103L208.518 27.1092C208.626 26.0947 209.059 25.1426 209.754 24.395C210.448 23.6474 211.365 23.1446 212.369 22.9616L236.884 19.7769C239.032 19.4807 240.513 21.036 240.291 23.1838L235.773 65.4736C235.644 66.5145 235.162 67.4798 234.407 68.2078C233.652 68.9358 232.67 69.3825 231.625 69.473Z" fill="#22272E"/>
<path d="M229.848 68.659L205.777 69.77C205.334 69.7879 204.893 69.7063 204.486 69.531C204.079 69.3558 203.716 69.0914 203.425 68.7573C203.133 68.4233 202.921 68.0281 202.802 67.6009C202.684 67.1737 202.663 66.7254 202.741 66.289L206.74 26.2952C206.848 25.2808 207.282 24.3286 207.976 23.581C208.67 22.8334 209.588 22.3306 210.591 22.1477L235.106 18.963C237.254 18.6667 238.735 20.222 238.513 22.3699L233.995 64.6596C233.88 65.7059 233.403 66.6789 232.645 67.4095C231.887 68.1401 230.898 68.5822 229.848 68.659Z" fill="#22272E"/>
<path d="M230.959 32.4419L212.221 34.4416C212.081 34.4568 211.939 34.4405 211.807 34.3938C211.674 34.347 211.553 34.2711 211.454 34.1716C211.354 34.0721 211.278 33.9516 211.232 33.8189C211.185 33.6861 211.169 33.5446 211.184 33.4047L211.628 28.8128C211.642 28.6013 211.732 28.4021 211.882 28.2522C212.032 28.1024 212.231 28.0121 212.443 27.9982L231.255 25.7763C231.395 25.761 231.536 25.7774 231.669 25.8241C231.802 25.8708 231.922 25.9468 232.022 26.0462C232.121 26.1457 232.197 26.2663 232.244 26.399C232.291 26.5318 232.307 26.6733 232.292 26.8132L231.773 31.6272C231.771 31.8427 231.685 32.0488 231.533 32.2012C231.38 32.3535 231.174 32.44 230.959 32.4419Z" fill="#F4C2C9"/>
<path d="M213.554 45.1803L211.11 45.4025C210.97 45.4178 210.828 45.4014 210.696 45.3547C210.563 45.308 210.442 45.2321 210.343 45.1326C210.243 45.0331 210.168 44.9125 210.121 44.7798C210.074 44.6471 210.058 44.5055 210.073 44.3656L210.369 41.6994C210.383 41.4879 210.473 41.2887 210.623 41.1388C210.773 40.9889 210.972 40.8986 211.184 40.8847L213.628 40.6625C213.768 40.6473 213.909 40.6636 214.042 40.7104C214.175 40.7571 214.295 40.833 214.395 40.9325C214.494 41.032 214.57 41.1525 214.617 41.2853C214.664 41.418 214.68 41.5595 214.665 41.6994L214.369 44.3656C214.355 44.5771 214.264 44.7764 214.115 44.9263C213.965 45.0761 213.765 45.1664 213.554 45.1803Z" fill="#B0D7C0"/>
<path d="M229.774 43.7734L227.107 43.9956C226.968 44.0108 226.826 43.9944 226.693 43.9477C226.561 43.901 226.44 43.8251 226.34 43.7256C226.241 43.6261 226.165 43.5055 226.118 43.3728C226.072 43.2401 226.055 43.0986 226.071 42.9587L226.367 40.1443C226.381 39.9328 226.471 39.7336 226.621 39.5837C226.771 39.4338 226.97 39.3435 227.181 39.3296L229.848 39.0334C229.988 39.0181 230.129 39.0345 230.262 39.0812C230.395 39.1279 230.515 39.2038 230.615 39.3033C230.714 39.4028 230.79 39.5234 230.837 39.6561C230.883 39.7888 230.9 39.9304 230.885 40.0702L230.588 42.8846C230.577 43.1043 230.489 43.313 230.34 43.4752C230.192 43.6373 229.991 43.7427 229.774 43.7734Z" fill="#B0D7C0"/>
<path d="M221.553 44.4399L219.035 44.6621C218.895 44.6774 218.753 44.661 218.62 44.6143C218.488 44.5676 218.367 44.4917 218.268 44.3922C218.168 44.2927 218.092 44.1721 218.046 44.0394C217.999 43.9067 217.982 43.7651 217.998 43.6252L218.294 40.8849C218.308 40.6734 218.398 40.4742 218.548 40.3243C218.698 40.1745 218.897 40.0842 219.109 40.0702L221.627 39.8481C221.767 39.8328 221.908 39.8492 222.041 39.8959C222.174 39.9426 222.294 40.0185 222.394 40.118C222.493 40.2175 222.569 40.3381 222.616 40.4708C222.662 40.6035 222.679 40.745 222.664 40.8849L222.367 43.6252C222.365 43.8407 222.279 44.0468 222.127 44.1992C221.974 44.3515 221.768 44.438 221.553 44.4399Z" fill="#B0D7C0"/>
<path d="M212.591 54.2903L210.147 54.4384C210.008 54.4483 209.869 54.4283 209.739 54.3797C209.609 54.3311 209.49 54.255 209.392 54.1567C209.294 54.0584 209.218 53.94 209.169 53.8097C209.12 53.6795 209.1 53.5402 209.11 53.4015L209.406 50.7353C209.437 50.5175 209.542 50.3171 209.705 50.1684C209.867 50.0198 210.076 49.9322 210.295 49.9206L212.739 49.6984C212.879 49.6832 213.021 49.6995 213.153 49.7462C213.286 49.793 213.407 49.8689 213.506 49.9684C213.606 50.0679 213.682 50.1884 213.728 50.3211C213.775 50.4539 213.791 50.5954 213.776 50.7353L213.48 53.4015C213.464 53.6321 213.366 53.8492 213.202 54.0126C213.039 54.176 212.822 54.2747 212.591 54.2903Z" fill="#B0D7C0"/>
<path d="M228.811 53.1792L226.145 53.4014C226.006 53.4113 225.867 53.3913 225.736 53.3427C225.606 53.2941 225.488 53.218 225.389 53.1197C225.291 53.0213 225.215 52.903 225.166 52.7727C225.118 52.6424 225.098 52.5032 225.108 52.3645L225.404 49.6242C225.435 49.4064 225.54 49.206 225.702 49.0574C225.864 48.9087 226.073 48.8211 226.293 48.8095L228.959 48.5873C229.099 48.5721 229.24 48.5884 229.373 48.6352C229.506 48.6819 229.626 48.7578 229.726 48.8573C229.825 48.9568 229.901 49.0773 229.948 49.2101C229.995 49.3428 230.011 49.4843 229.996 49.6242L229.7 52.4386C229.629 52.6288 229.51 52.7973 229.354 52.9273C229.198 53.0572 229.011 53.144 228.811 53.1792Z" fill="#B0D7C0"/>
<path d="M220.59 53.7716L218.072 53.9197C217.933 53.9296 217.794 53.9096 217.664 53.861C217.533 53.8124 217.415 53.7363 217.317 53.638C217.218 53.5397 217.142 53.4213 217.094 53.291C217.045 53.1607 217.025 53.0215 217.035 52.8828L217.331 50.1425C217.362 49.9247 217.467 49.7243 217.629 49.5757C217.792 49.427 218 49.3394 218.22 49.3278L220.738 49.1056C220.878 49.0904 221.019 49.1067 221.152 49.1535C221.285 49.2002 221.405 49.2761 221.505 49.3756C221.604 49.4751 221.68 49.5956 221.727 49.7284C221.774 49.8611 221.79 50.0026 221.775 50.1425L221.479 52.8828C221.439 53.1038 221.332 53.3073 221.173 53.4661C221.014 53.6249 220.811 53.7315 220.59 53.7716Z" fill="#B0D7C0"/>
<path d="M211.628 63.3996L209.258 63.5477C209.123 63.5554 208.988 63.5332 208.863 63.4827C208.738 63.4323 208.625 63.3547 208.533 63.2557C208.441 63.1567 208.372 63.0386 208.331 62.9098C208.29 62.781 208.278 62.6448 208.296 62.5108L208.592 59.8446C208.622 59.6267 208.728 59.4263 208.89 59.2777C209.052 59.1291 209.261 59.0415 209.481 59.0299L211.851 58.8817C211.987 58.8667 212.126 58.8839 212.254 58.9319C212.383 58.9799 212.499 59.0573 212.593 59.1581C212.686 59.2589 212.755 59.3801 212.793 59.5122C212.832 59.6442 212.838 59.7834 212.813 59.9186L212.517 62.5849C212.498 62.8075 212.397 63.015 212.232 63.166C212.067 63.3169 211.852 63.4003 211.628 63.3996Z" fill="#B0D7C0"/>
<path d="M227.774 62.5115L225.108 62.6596C224.973 62.6673 224.838 62.6451 224.712 62.5946C224.587 62.5442 224.474 62.4667 224.382 62.3676C224.29 62.2686 224.221 62.1505 224.18 62.0217C224.139 61.8929 224.127 61.7567 224.145 61.6227L224.441 58.8824C224.472 58.6646 224.577 58.4642 224.739 58.3156C224.901 58.1669 225.11 58.0793 225.33 58.0677L227.996 57.9196C228.133 57.9046 228.271 57.9217 228.4 57.9697C228.529 58.0177 228.645 58.0952 228.738 58.1959C228.832 58.2967 228.901 58.418 228.939 58.55C228.977 58.6821 228.984 58.8213 228.959 58.9565L228.663 61.7708C228.616 61.9745 228.504 62.1572 228.343 62.291C228.183 62.4247 227.983 62.5022 227.774 62.5115Z" fill="#FFE779"/>
<path d="M219.627 62.9557L217.109 63.1038C216.974 63.1115 216.839 63.0894 216.714 63.0389C216.588 62.9884 216.476 62.9109 216.384 62.8119C216.292 62.7128 216.223 62.5947 216.182 62.466C216.141 62.3372 216.128 62.201 216.146 62.067L216.442 59.4007C216.473 59.1829 216.578 58.9825 216.74 58.8339C216.903 58.6852 217.111 58.5976 217.331 58.586L219.849 58.4379C219.986 58.4229 220.124 58.44 220.253 58.488C220.382 58.536 220.498 58.6135 220.591 58.7143C220.685 58.815 220.754 58.9363 220.792 59.0683C220.83 59.2004 220.837 59.3396 220.812 59.4748L220.516 62.2151C220.469 62.4187 220.357 62.6014 220.196 62.7352C220.036 62.869 219.836 62.9464 219.627 62.9557Z" fill="#FFE779"/>
<path d="M254.955 69.0286L370.937 57.0304C371.439 56.98 371.946 57.0405 372.422 57.2077C372.899 57.3748 373.332 57.6446 373.693 57.9979C374.053 58.3512 374.331 58.7793 374.508 59.2521C374.684 59.7248 374.755 60.2306 374.714 60.7336L364.79 173.605C364.676 174.941 364.05 176.181 363.042 177.065C362.034 177.948 360.723 178.407 359.383 178.345L246.734 172.272C245.822 172.218 244.969 171.807 244.358 171.128C243.748 170.448 243.431 169.555 243.475 168.643L250.289 73.9167C250.376 72.686 250.889 71.5241 251.741 70.6317C252.593 69.7392 253.73 69.1722 254.955 69.0286Z" fill="#20392B"/>
<path d="M250.733 67.7701L368.049 55.6238C368.558 55.5688 369.073 55.6287 369.557 55.7991C370.04 55.9695 370.479 56.246 370.841 56.6084C371.204 56.9707 371.48 57.4097 371.651 57.8929C371.821 58.3762 371.881 58.8915 371.826 59.401L361.827 173.532C361.727 174.886 361.094 176.145 360.066 177.034C359.039 177.922 357.702 178.367 356.347 178.272L242.364 172.124C241.905 172.102 241.455 171.988 241.04 171.788C240.626 171.588 240.255 171.308 239.952 170.962C239.648 170.617 239.416 170.214 239.271 169.778C239.126 169.341 239.069 168.88 239.106 168.421L245.993 72.5841C246.123 71.3642 246.663 70.2242 247.523 69.3499C248.384 68.4757 249.516 67.9188 250.733 67.7701Z" fill="#2F3A5A"/>
<path d="M262.88 92.3584L257.547 92.6547L256.881 102.579L262.139 102.431L262.88 92.3584Z" fill="#6DAFA7"/>
<path d="M256.881 102.58L256.51 107.468L261.769 107.32L262.139 102.431L256.881 102.58Z" fill="#B0D7C0"/>
<path d="M274.359 78.8794L269.027 79.2497L268.138 92.0626L273.397 91.8404L274.359 78.8794Z" fill="#6DAFA7"/>
<path d="M268.138 92.0625L267.027 107.171L272.286 107.023L273.397 91.8403L268.138 92.0625Z" fill="#B0D7C0"/>
<path d="M279.247 83.5451L278.655 91.5439L283.913 91.2476L284.506 83.1748L279.247 83.5451Z" fill="#6DAFA7"/>
<path d="M278.655 91.5438L277.544 106.949L282.802 106.801L283.913 91.2476L278.655 91.5438Z" fill="#B0D7C0"/>
<path d="M294.43 90.6548L289.172 90.951L288.802 96.5798L294.06 96.2836L294.43 90.6548Z" fill="#6DAFA7"/>
<path d="M288.802 96.5797L288.061 106.652L293.319 106.504L294.06 96.2834L288.802 96.5797Z" fill="#B0D7C0"/>
<path d="M305.614 81.6934L304.947 90.1365L304.577 95.6912L299.318 95.9875L299.689 90.3587L300.355 82.0637L305.614 81.6934Z" fill="#6DAFA7"/>
<path d="M299.318 95.9882L298.504 106.357L303.762 106.283L304.577 95.6919L299.318 95.9882Z" fill="#B0D7C0"/>
<path d="M347.904 75.6199L338.498 90.5065L330.277 79.3231C333.461 76.6491 337.392 75.0201 341.534 74.6571C343.702 74.5005 345.878 74.8294 347.904 75.6199Z" fill="#22272E"/>
<path d="M355.236 89.3224L338.498 90.5074L347.904 75.6208C353.088 77.6946 356.125 82.879 355.236 89.3224Z" fill="#F4C2C9"/>
<path d="M355.236 89.3223C355.236 89.5445 355.162 89.7666 355.162 89.9888C353.606 98.8023 345.385 106.134 336.72 106.801L338.498 90.5073L355.236 89.3223Z" fill="#B0D7C0"/>
<path d="M338.498 90.5071L336.72 106.801C336.254 106.862 335.783 106.887 335.313 106.875C326.499 106.875 321.093 99.6909 322.944 91.0255C324.015 86.4367 326.597 82.3411 330.277 79.3977L338.498 90.5071Z" fill="white"/>
<path d="M352.866 119.466L349.015 157.015L252.215 155.238L252.363 152.349L273.323 137.907C273.791 137.575 274.353 137.403 274.927 137.416C275.501 137.43 276.055 137.628 276.507 137.981L284.358 143.758C284.649 143.974 284.98 144.13 285.332 144.217C285.683 144.304 286.049 144.321 286.407 144.266C286.765 144.211 287.109 144.085 287.418 143.896C287.728 143.707 287.996 143.459 288.209 143.166L295.986 132.797C296.245 132.449 296.584 132.168 296.974 131.977C297.363 131.786 297.793 131.69 298.226 131.697C298.66 131.704 299.086 131.815 299.469 132.019C299.852 132.223 300.181 132.515 300.429 132.871L307.317 142.425C307.532 142.727 307.805 142.983 308.12 143.178C308.436 143.372 308.787 143.501 309.154 143.556C309.52 143.612 309.894 143.592 310.253 143.5C310.612 143.407 310.949 143.243 311.243 143.018C311.709 142.664 312.275 142.467 312.86 142.454C313.445 142.441 314.019 142.612 314.501 142.943L319.389 146.424C319.694 146.639 320.039 146.79 320.403 146.869C320.767 146.948 321.143 146.953 321.509 146.884C321.875 146.815 322.223 146.673 322.533 146.467C322.844 146.261 323.109 145.994 323.315 145.684L334.276 128.797C334.482 128.487 334.747 128.221 335.058 128.015C335.368 127.808 335.716 127.667 336.082 127.598C336.448 127.529 336.824 127.534 337.188 127.612C337.552 127.691 337.897 127.842 338.201 128.057L341.386 130.353C341.677 130.57 342.008 130.727 342.36 130.814C342.712 130.902 343.077 130.919 343.436 130.863C343.794 130.808 344.138 130.682 344.448 130.493C344.757 130.304 345.025 130.055 345.237 129.76L352.866 119.466Z" fill="#6DAFA7"/>
<path d="M282.432 131.389H278.211C278.113 131.387 278.017 131.405 277.927 131.444C277.838 131.482 277.757 131.539 277.692 131.612L276.729 132.574C276.591 132.71 276.405 132.786 276.211 132.786C276.017 132.786 275.831 132.71 275.693 132.574L274.952 131.612C274.887 131.539 274.807 131.482 274.717 131.444C274.628 131.405 274.531 131.387 274.433 131.389H270.36C270.274 131.394 270.189 131.379 270.11 131.346C270.031 131.313 269.96 131.263 269.903 131.199C269.846 131.135 269.805 131.059 269.781 130.976C269.758 130.894 269.753 130.807 269.768 130.723L270.36 122.724C270.374 122.532 270.456 122.352 270.592 122.216C270.728 122.08 270.909 121.997 271.101 121.983L283.173 121.539C283.35 121.539 283.519 121.609 283.644 121.734C283.769 121.859 283.839 122.029 283.839 122.206L283.173 130.575C283.183 130.678 283.172 130.782 283.139 130.881C283.107 130.98 283.054 131.07 282.984 131.147C282.914 131.224 282.829 131.285 282.734 131.327C282.639 131.369 282.536 131.39 282.432 131.389Z" fill="white"/>
<path d="M321.982 135.389L317.76 135.315C317.663 135.312 317.566 135.331 317.476 135.369C317.387 135.407 317.307 135.465 317.242 135.537L316.279 136.5C316.211 136.573 316.128 136.63 316.035 136.667C315.942 136.703 315.842 136.719 315.743 136.711C315.643 136.704 315.546 136.675 315.46 136.626C315.373 136.576 315.299 136.508 315.242 136.426L314.501 135.463C314.436 135.391 314.356 135.333 314.266 135.295C314.177 135.257 314.08 135.238 313.983 135.241L309.983 135.167C309.613 135.167 309.391 134.87 309.391 134.426L309.983 126.353C309.993 126.172 310.064 126 310.186 125.865C310.307 125.73 310.471 125.641 310.65 125.613L322.722 125.316C322.816 125.318 322.908 125.339 322.993 125.378C323.078 125.417 323.154 125.472 323.216 125.542C323.279 125.611 323.327 125.693 323.356 125.782C323.386 125.87 323.397 125.964 323.389 126.057L322.722 134.648C322.729 134.747 322.714 134.846 322.679 134.939C322.644 135.032 322.59 135.116 322.52 135.187C322.45 135.257 322.365 135.311 322.273 135.346C322.18 135.381 322.081 135.395 321.982 135.389Z" fill="#F4C2C9"/>
<path d="M119.124 349.06C118.828 350.023 118.161 353.874 117.643 357.429C112.106 358.257 106.449 357.566 101.275 355.429C101.645 351.726 102.015 347.875 102.015 347.875C102.015 345.801 119.716 347.283 119.124 349.06Z" fill="#22272E"/>
<path d="M117.643 357.355C117.198 360.466 116.754 363.206 116.754 363.206C116.754 363.206 114.754 367.872 109.718 367.872C104.682 367.872 100.608 363.65 100.682 361.873C100.757 361.058 100.979 358.244 101.275 355.355C106.447 357.501 112.107 358.192 117.643 357.355Z" fill="#F4C2C9"/>
<path d="M100.757 360.466C101.481 361.271 102.248 362.037 103.052 362.762C103.867 363.503 106.385 361.207 109.94 361.651C113.495 362.095 114.606 363.503 114.606 363.503C115.428 363.337 116.208 363.01 116.902 362.54C116.97 364.391 117.346 366.218 118.013 367.946C119.124 370.835 124.753 379.278 124.753 380.907C124.753 382.537 124.383 383.796 123.197 384.314C122.012 384.833 114.162 384.907 107.57 385.055C100.979 385.203 95.8684 385.573 95.1278 382.981C94.3871 380.389 97.4237 372.316 98.6828 367.354C99.9418 362.392 99.7196 360.54 100.757 360.466Z" fill="#22272E"/>
<path d="M103.349 370.02C107.464 368.85 111.824 368.85 115.939 370.02" stroke="white" stroke-width="1.8" stroke-linecap="round" stroke-linejoin="round"/>
<path d="M196.001 354.17C187.558 357.059 178.819 355.281 178.893 355.355C178.596 351.208 178.226 346.838 178.226 346.838C179.337 344.246 195.26 343.061 195.409 344.172C195.409 344.764 195.705 349.652 196.001 354.17Z" fill="#22272E"/>
<path d="M196.445 362.021C196.445 362.021 195.335 365.502 190.52 367.28C185.706 369.057 179.559 364.243 179.485 362.836C179.411 362.243 179.189 358.836 178.893 355.355C178.893 355.281 187.558 357.059 196.001 354.17C196.223 358.244 196.445 362.021 196.445 362.021Z" fill="#F4C2C9"/>
<path d="M179.337 361.798C178.819 361.798 178.448 362.539 178.152 367.205C177.856 371.871 176.374 382.165 178.152 383.721C179.929 385.276 215.405 384.832 219.479 384.535C223.552 384.239 225.774 381.573 224.515 379.795C223.256 378.018 214.517 374.759 206.814 369.575C199.112 364.39 197.26 363.279 196.371 362.02C196.371 362.02 196.816 357.799 194.52 358.465C192.224 359.132 190.669 364.613 187.706 365.353C184.744 366.094 184.373 361.502 179.337 361.798Z" fill="#22272E"/>
<path d="M208.518 369.724C208.518 369.724 206.518 369.131 202 373.945" stroke="white" stroke-width="1.8" stroke-linecap="round" stroke-linejoin="round"/>
<path d="M203.63 366.539C203.63 366.539 200.075 366.39 196.001 371.649" stroke="white" stroke-width="1.8" stroke-linecap="round" stroke-linejoin="round"/>
<path d="M104.089 356.392L104.534 353.43" stroke="#63737A" stroke-width="1.8" stroke-linecap="round" stroke-linejoin="round"/>
<path d="M109.2 357.503L109.644 354.541" stroke="#63737A" stroke-width="1.8" stroke-linecap="round" stroke-linejoin="round"/>
<path d="M114.828 357.725L115.347 355.059" stroke="#63737A" stroke-width="1.8" stroke-linecap="round" stroke-linejoin="round"/>
<path d="M182.225 355.725L182.003 352.615" stroke="#63737A" stroke-width="1.8" stroke-linecap="round" stroke-linejoin="round"/>
<path d="M188.373 355.652L188.151 352.245" stroke="#63737A" stroke-width="1.8" stroke-linecap="round" stroke-linejoin="round"/>
<path d="M193.927 354.763L193.705 351.578" stroke="#63737A" stroke-width="1.8" stroke-linecap="round" stroke-linejoin="round"/>
<path d="M99.1271 183.233C97.8598 189.077 97.1653 195.03 97.0534 201.009C96.8312 211.155 104.756 242.928 107.644 253.667C110.533 264.406 109.94 266.11 109.496 268.183C109.052 270.257 104.608 286.699 103.127 303.733C101.645 320.768 96.3127 334.469 96.9052 339.728C97.7199 346.838 100.757 348.912 102.016 349.726C103.275 350.541 113.643 353.874 120.679 352.244C120.679 352.244 128.16 347.504 129.567 340.839C130.974 334.173 130.159 326.1 134.973 304.326C139.788 282.552 142.009 273.59 142.676 264.925C143.046 259.74 143.12 244.928 143.194 233.596C143.268 225.894 143.268 219.746 143.343 219.154C143.565 217.673 147.194 219.376 149.119 214.636C149.934 212.488 150.378 208.415 150.453 204.045C150.601 198.49 150.23 192.417 149.49 189.084C148.305 182.937 100.312 176.716 99.1271 183.233Z" fill="#2F3A5A"/>
<path d="M200.741 341.062C199.482 344.172 197.186 347.727 195.112 348.542C193.039 349.357 183.707 350.616 178.967 350.171C178.967 350.171 171.042 347.875 170.227 341.876C169.413 335.877 170.82 329.211 168.154 315.732C165.487 302.253 163.191 278.405 162.525 271.369C161.858 264.333 147.342 243.373 140.528 230.708C133.714 218.043 126.382 194.862 132.455 189.455C138.528 184.049 160.229 181.605 166.672 185.974C166.672 185.974 174.153 204.194 181.633 225.968C188.521 245.965 189.928 252.705 190.891 258.482C190.954 259.006 191.053 259.526 191.187 260.037C191.483 261.814 191.854 266.406 192.372 272.331C193.557 287.366 194.964 310.696 195.557 316.028C196.371 323.435 202 337.951 200.741 341.062Z" fill="#2F3A5A"/>
<path d="M139.195 220.265C144.015 218.528 148.969 217.191 154.008 216.266" stroke="#63737A" stroke-width="1.8" stroke-linecap="round" stroke-linejoin="round"/>
<path d="M138.797 273.805C139.894 268.434 136.493 263.204 131.202 262.124C125.91 261.044 120.732 264.523 119.636 269.895C118.54 275.266 121.94 280.496 127.232 281.576C132.523 282.656 137.701 279.177 138.797 273.805Z" stroke="#63737A" stroke-width="1.80036" stroke-linecap="round" stroke-linejoin="round"/>
<path d="M192.372 272.257C191.468 273.392 190.319 274.308 189.01 274.936C187.702 275.565 186.269 275.889 184.818 275.886C182.205 275.896 179.696 274.867 177.842 273.027C175.987 271.186 174.94 268.685 174.93 266.072C174.92 263.46 175.949 260.951 177.789 259.096C179.63 257.242 182.131 256.195 184.744 256.185C186.989 256.186 189.163 256.972 190.891 258.407" stroke="#63737A" stroke-width="1.8" stroke-linecap="round" stroke-linejoin="round"/>
<path d="M100.831 218.265C103.451 215.852 105.542 212.921 106.97 209.657C108.398 206.393 109.132 202.868 109.126 199.305C106.34 199.149 103.569 198.802 100.831 198.269" stroke="#63737A" stroke-width="1.8" stroke-linecap="round" stroke-linejoin="round"/>
<path d="M143.194 233.596C143.268 225.894 143.268 219.747 143.343 219.154C143.565 217.673 147.194 219.376 149.119 214.636C149.934 212.489 150.379 208.415 150.453 204.045" stroke="#63737A" stroke-width="1.8" stroke-linecap="round" stroke-linejoin="round"/>
<path d="M165.043 98.4316C165.043 98.4316 171.116 98.7279 180.892 118.28C190.669 137.833 194.15 144.869 194.15 144.869C194.15 144.869 200.593 143.314 211.11 141.61C221.627 139.907 236.439 137.759 236.439 137.759C236.439 137.759 240.439 137.833 242.142 143.536C242.576 144.979 242.641 146.509 242.33 147.984C242.02 149.459 241.344 150.833 240.365 151.979C239.996 152.444 239.51 152.802 238.957 153.016C234.44 154.941 208.073 166.051 199.112 167.976C189.261 170.05 184.447 169.754 175.708 157.756C166.969 145.758 160.081 136.426 156.896 131.612C153.711 126.575 151.415 99.1723 165.043 98.4316Z" fill="#6DAFA7"/>
<path d="M181.707 164.57C181.707 164.57 181.189 160.645 188.817 160.645C196.446 160.645 200.371 166.347 198.519 167.977" stroke="#22272E" stroke-width="1.8" stroke-linecap="round" stroke-linejoin="round"/>
<path d="M194.15 144.795C194.15 144.795 190.965 146.276 190.298 148.498" stroke="#22272E" stroke-width="1.8" stroke-linecap="round" stroke-linejoin="round"/>
<path d="M236.81 138.351C236.81 138.351 240.068 137.166 240.883 136.722C241.698 136.278 243.475 133.167 244.956 131.241C246.438 129.316 250.659 128.205 251.844 128.427C252.166 128.47 252.477 128.578 252.757 128.743C253.036 128.909 253.28 129.128 253.474 129.39C253.474 129.39 257.177 128.057 259.695 127.02C262.213 125.983 266.879 123.687 267.546 125.538C267.916 126.649 265.027 128.279 263.028 129.39C260.584 130.797 258.954 131.834 258.954 131.834C259.342 132.063 259.676 132.374 259.932 132.745C260.187 133.115 260.359 133.538 260.436 133.982C260.732 135.537 261.546 137.24 260.065 139.61C259.621 140.277 261.324 142.129 259.991 143.832C257.695 146.572 252.141 147.979 249.178 148.868C246.216 149.757 239.254 150.201 239.254 150.201C239.254 150.201 237.032 149.683 236.069 144.869C235.106 140.055 236.81 138.351 236.81 138.351Z" fill="#F4C2C9"/>
<path d="M253.474 129.39C253.474 129.39 253.992 130.723 254.585 132.722C255.177 134.722 255.621 136.277 254.066 136.352C252.511 136.426 251.104 134.056 250.511 132.871" stroke="#E26E85" stroke-width="1.8" stroke-linecap="round" stroke-linejoin="round"/>
<path d="M251.548 134.574C251.548 134.574 253.252 137.981 249.326 140.944" stroke="#E26E85" stroke-width="1.8" stroke-linecap="round" stroke-linejoin="round"/>
<path d="M259.028 131.834L254.881 133.759" stroke="#E26E85" stroke-width="1.8" stroke-linecap="round" stroke-linejoin="round"/>
<path d="M252.807 135.908C252.807 135.908 252.067 137.093 252.807 137.759C253.548 138.426 257.621 136.944 260.584 135.241" stroke="#E26E85" stroke-width="1.8" stroke-linecap="round" stroke-linejoin="round"/>
<path d="M253.474 137.907C253.127 138.091 252.864 138.401 252.74 138.773C252.615 139.146 252.64 139.552 252.807 139.907C253.4 141.24 256.584 140.722 260.065 139.611" stroke="#E26E85" stroke-width="1.8" stroke-linecap="round" stroke-linejoin="round"/>
<path d="M254.14 140.721C254.14 140.721 252.289 140.944 253.252 142.795C253.844 143.906 257.399 143.536 258.14 143.832" stroke="#E26E85" stroke-width="1.8" stroke-linecap="round" stroke-linejoin="round"/>
<path d="M232.514 139.018C231.921 140.055 231.181 142.055 231.699 145.61C231.844 147.144 232.332 148.626 233.127 149.947C233.922 151.267 235.003 152.392 236.291 153.238" stroke="#22272E" stroke-width="1.8" stroke-linecap="round" stroke-linejoin="round"/>
<path d="M141.047 71.3245C141.047 71.3245 138.677 83.2486 137.344 86.5074C136.01 89.7661 143.269 94.8765 150.527 95.1727C157.785 95.469 157.044 91.2474 157.044 91.2474L159.192 79.3974C159.192 79.4714 143.639 68.5842 141.047 71.3245Z" fill="#F4C2C9"/>
<path d="M144.305 74.8804C143.268 83.916 149.786 88.2857 157.044 91.6926V91.2482L158.229 84.9529C152.822 83.1754 148.082 79.3241 144.305 74.8804Z" fill="#E26E85"/>
<path d="M109.94 95.2471C111.57 90.433 117.791 87.5446 122.827 87.989C128.012 88.4333 137.936 88.5815 147.49 91.544C163.784 96.5802 167.709 99.5427 168.672 100.431C174.079 105.616 173.56 113.318 170.45 134.574C168.45 148.572 166.746 152.127 167.191 159.015C167.635 165.903 168.894 178.123 169.709 180.641C170.524 183.159 168.45 187.529 166.672 189.084C164.895 190.64 150.527 193.899 137.195 193.602C123.864 193.306 102.904 189.677 99.5716 187.455C96.2388 185.233 93.8688 181.382 94.6094 178.049C95.5302 172.954 96.7168 167.911 98.1644 162.94C100.238 155.904 100.386 146.721 103.645 131.982C106.163 121.095 106.533 105.32 109.94 95.2471Z" fill="#1B251F"/>
<mask id="mask1_1_782" style="mask-type:luminance" maskUnits="userSpaceOnUse" x="94" y="88" width="79" height="106">
<path d="M109.467 95.303C111.096 90.4889 117.318 87.6005 122.354 88.0449C127.538 88.4892 137.463 88.6374 147.017 91.5999C163.311 96.6361 167.236 99.5986 168.199 100.487C173.605 105.672 173.087 113.374 169.976 134.63C167.977 148.628 166.273 152.183 166.718 159.071C167.162 165.959 168.421 178.179 169.236 180.697C170.05 183.215 167.977 187.585 166.199 189.14C164.422 190.696 150.053 193.954 136.722 193.658C123.391 193.362 102.431 189.733 99.0983 187.511C95.7655 185.289 93.3955 181.438 94.1361 178.105C95.057 173.01 96.2436 167.967 97.6911 162.996C99.7649 155.96 99.913 146.777 103.172 132.038C105.69 121.151 106.06 105.376 109.467 95.303Z" fill="white"/>
</mask>
<g mask="url(#mask1_1_782)">
<path d="M163.224 100.374C165.016 99.4768 166.113 98.038 165.674 97.1601C165.235 96.2822 163.425 96.2975 161.633 97.1943C159.84 98.0911 158.744 99.5298 159.183 100.408C159.622 101.286 161.431 101.27 163.224 100.374Z" fill="#13542E"/>
<path d="M175.517 108.65C177.31 107.753 178.407 106.315 177.968 105.437C177.528 104.559 175.719 104.574 173.927 105.471C172.134 106.368 171.037 107.806 171.476 108.684C171.916 109.562 173.725 109.547 175.517 108.65Z" fill="#13542E"/>
<path d="M149.304 93.6302C151.096 92.7334 152.193 91.2946 151.754 90.4167C151.315 89.5388 149.505 89.5541 147.713 90.4509C145.921 91.3477 144.824 92.7864 145.263 93.6643C145.702 94.5423 147.511 94.527 149.304 93.6302Z" fill="#13542E"/>
<path d="M122.1 92.7483C123.893 91.8515 124.99 90.4128 124.55 89.5349C124.111 88.6569 122.302 88.6722 120.509 89.5691C118.717 90.4659 117.62 91.9046 118.059 92.7825C118.499 93.6604 120.308 93.6451 122.1 92.7483Z" fill="#13542E"/>
<path d="M134.387 101.025C136.179 100.128 137.276 98.6897 136.837 97.8117C136.397 96.9338 134.588 96.9491 132.796 97.8459C131.003 98.7427 129.906 100.181 130.346 101.059C130.785 101.937 132.594 101.922 134.387 101.025Z" fill="#13542E"/>
<path d="M148.306 107.77C150.099 106.873 151.196 105.434 150.757 104.556C150.317 103.678 148.508 103.693 146.716 104.59C144.923 105.487 143.826 106.926 144.265 107.804C144.705 108.682 146.514 108.666 148.306 107.77Z" fill="#13542E"/>
<path d="M160.562 116.156C162.354 115.259 163.451 113.821 163.012 112.943C162.572 112.065 160.763 112.08 158.971 112.977C157.178 113.874 156.081 115.312 156.521 116.19C156.96 117.068 158.769 117.053 160.562 116.156Z" fill="#13542E"/>
<path d="M133.358 115.275C135.15 114.378 136.247 112.94 135.808 112.062C135.369 111.184 133.56 111.199 131.767 112.096C129.975 112.993 128.878 114.431 129.317 115.309C129.756 116.187 131.566 116.172 133.358 115.275Z" fill="#13542E"/>
<path d="M145.644 123.552C147.437 122.655 148.534 121.216 148.094 120.338C147.655 119.46 145.846 119.476 144.054 120.373C142.261 121.269 141.164 122.708 141.603 123.586C142.043 124.464 143.852 124.449 145.644 123.552Z" fill="#13542E"/>
<path d="M174.752 123.415C176.544 122.518 177.641 121.079 177.202 120.201C176.763 119.323 174.954 119.339 173.161 120.236C171.369 121.132 170.272 122.571 170.711 123.449C171.15 124.327 172.959 124.312 174.752 123.415Z" fill="#13542E"/>
<path d="M159.868 130.875C161.66 129.978 162.757 128.54 162.318 127.662C161.879 126.784 160.07 126.799 158.277 127.696C156.485 128.593 155.388 130.031 155.827 130.909C156.266 131.787 158.076 131.772 159.868 130.875Z" fill="#13542E"/>
<path d="M172.093 139.186C173.885 138.289 174.982 136.851 174.543 135.973C174.104 135.095 172.295 135.11 170.502 136.007C168.71 136.904 167.613 138.342 168.052 139.22C168.491 140.098 170.301 140.083 172.093 139.186Z" fill="#13542E"/>
<path d="M144.916 138.374C146.709 137.477 147.806 136.038 147.366 135.16C146.927 134.282 145.118 134.298 143.325 135.195C141.533 136.091 140.436 137.53 140.875 138.408C141.315 139.286 143.124 139.271 144.916 138.374Z" fill="#13542E"/>
<path d="M157.209 146.655C159.002 145.758 160.098 144.319 159.659 143.441C159.22 142.563 157.411 142.579 155.618 143.476C153.826 144.372 152.729 145.811 153.168 146.689C153.607 147.567 155.417 147.552 157.209 146.655Z" fill="#13542E"/>
<path d="M171.13 153.395C172.922 152.498 174.019 151.059 173.58 150.181C173.141 149.303 171.332 149.319 169.539 150.216C167.747 151.112 166.65 152.551 167.089 153.429C167.528 154.307 169.337 154.292 171.13 153.395Z" fill="#13542E"/>
<path d="M168.464 169.167C170.256 168.27 171.353 166.831 170.914 165.953C170.475 165.075 168.665 165.09 166.873 165.987C165.08 166.884 163.984 168.323 164.423 169.201C164.862 170.079 166.671 170.063 168.464 169.167Z" fill="#13542E"/>
<path d="M107.066 100.286C108.858 99.3894 109.955 97.9507 109.516 97.0727C109.077 96.1948 107.268 96.2101 105.475 97.1069C103.683 98.0037 102.586 99.4424 103.025 100.32C103.464 101.198 105.273 101.183 107.066 100.286Z" fill="#13542E"/>
<path d="M119.293 108.6C121.086 107.704 122.183 106.265 121.744 105.387C121.304 104.509 119.495 104.524 117.703 105.421C115.91 106.318 114.813 107.757 115.253 108.635C115.692 109.512 117.501 109.497 119.293 108.6Z" fill="#13542E"/>
<path d="M92.1818 107.755C93.9743 106.858 95.0713 105.419 94.632 104.541C94.1927 103.664 92.3836 103.679 90.5912 104.576C88.7987 105.472 87.7017 106.911 88.141 107.789C88.5802 108.667 90.3894 108.652 92.1818 107.755Z" fill="#13542E"/>
<path d="M104.41 116.072C106.203 115.176 107.3 113.737 106.86 112.859C106.421 111.981 104.612 111.996 102.82 112.893C101.027 113.79 99.9301 115.229 100.369 116.107C100.809 116.984 102.618 116.969 104.41 116.072Z" fill="#13542E"/>
<path d="M118.33 122.809C120.123 121.913 121.22 120.474 120.78 119.596C120.341 118.718 118.532 118.733 116.74 119.63C114.947 120.527 113.85 121.966 114.289 122.844C114.729 123.721 116.538 123.706 118.33 122.809Z" fill="#13542E"/>
<path d="M130.616 131.092C132.409 130.196 133.506 128.757 133.067 127.879C132.627 127.001 130.818 127.016 129.026 127.913C127.233 128.81 126.136 130.249 126.576 131.127C127.015 132.004 128.824 131.989 130.616 131.092Z" fill="#13542E"/>
<path d="M103.447 130.273C105.239 129.376 106.336 127.938 105.897 127.06C105.458 126.182 103.649 126.197 101.856 127.094C100.064 127.991 98.9669 129.429 99.4062 130.307C99.8454 131.185 101.655 131.17 103.447 130.273Z" fill="#13542E"/>
<path d="M115.665 138.584C117.457 137.687 118.554 136.249 118.115 135.371C117.676 134.493 115.867 134.508 114.074 135.405C112.282 136.302 111.185 137.741 111.624 138.618C112.063 139.496 113.872 139.481 115.665 138.584Z" fill="#13542E"/>
<path d="M100.781 146.052C102.573 145.155 103.67 143.717 103.231 142.839C102.792 141.961 100.983 141.976 99.1901 142.873C97.3976 143.77 96.3007 145.208 96.7399 146.086C97.1792 146.964 98.9883 146.949 100.781 146.052Z" fill="#13542E"/>
<path d="M115.012 153.376C116.804 152.479 117.901 151.041 117.462 150.163C117.023 149.285 115.214 149.3 113.421 150.197C111.629 151.094 110.532 152.533 110.971 153.41C111.41 154.288 113.219 154.273 115.012 153.376Z" fill="#13542E"/>
<path d="M153.439 176.715C155.232 175.818 156.329 174.379 155.889 173.501C155.45 172.623 153.641 172.639 151.849 173.535C150.056 174.432 148.959 175.871 149.398 176.749C149.838 177.627 151.647 177.611 153.439 176.715Z" fill="#13542E"/>
<path d="M126.229 175.837C128.021 174.94 129.118 173.502 128.679 172.624C128.24 171.746 126.431 171.761 124.638 172.658C122.846 173.555 121.749 174.993 122.188 175.871C122.627 176.749 124.437 176.734 126.229 175.837Z" fill="#13542E"/>
<path d="M138.487 184.213C140.28 183.317 141.377 181.878 140.938 181C140.498 180.122 138.689 180.137 136.897 181.034C135.104 181.931 134.007 183.37 134.447 184.248C134.886 185.126 136.695 185.11 138.487 184.213Z" fill="#13542E"/>
<path d="M100.029 160.813C101.822 159.916 102.919 158.477 102.48 157.599C102.04 156.721 100.231 156.737 98.4387 157.634C96.6463 158.53 95.5493 159.969 95.9886 160.847C96.4278 161.725 98.237 161.71 100.029 160.813Z" fill="#13542E"/>
<path d="M112.312 169.083C114.105 168.186 115.202 166.748 114.762 165.87C114.323 164.992 112.514 165.007 110.722 165.904C108.929 166.801 107.832 168.239 108.271 169.117C108.711 169.995 110.52 169.98 112.312 169.083Z" fill="#13542E"/>
<path d="M97.3566 176.588C99.149 175.691 100.246 174.253 99.8067 173.375C99.3675 172.497 97.5583 172.512 95.7659 173.409C93.9734 174.306 92.8765 175.744 93.3157 176.622C93.755 177.5 95.5641 177.485 97.3566 176.588Z" fill="#13542E"/>
<path d="M111.284 183.325C113.076 182.428 114.173 180.99 113.734 180.112C113.295 179.234 111.486 179.249 109.693 180.146C107.901 181.043 106.804 182.481 107.243 183.359C107.682 184.237 109.491 184.222 111.284 183.325Z" fill="#13542E"/>
<path d="M123.57 191.609C125.363 190.713 126.46 189.274 126.02 188.396C125.581 187.518 123.772 187.533 121.98 188.43C120.187 189.327 119.09 190.766 119.529 191.644C119.969 192.522 121.778 192.506 123.57 191.609Z" fill="#13542E"/>
<path d="M96.3933 190.797C98.1857 189.9 99.2827 188.461 98.8434 187.583C98.4042 186.705 96.595 186.721 94.8026 187.617C93.0101 188.514 91.9132 189.953 92.3524 190.831C92.7917 191.709 94.6008 191.693 96.3933 190.797Z" fill="#13542E"/>
</g>
<path d="M130.308 149.535C138.544 151.273 146.925 152.24 155.341 152.423C155.888 152.438 156.413 152.647 156.82 153.014C157.227 153.38 157.491 153.88 157.563 154.423C157.97 157.414 159.289 160.207 161.34 162.422C161.532 162.617 161.683 162.849 161.785 163.103C161.886 163.357 161.937 163.629 161.932 163.903C162.006 167.014 162.154 177.531 160.081 179.16C157.711 180.938 132.529 182.567 116.902 178.197C116.405 178.07 115.962 177.785 115.641 177.384C115.321 176.983 115.139 176.489 115.125 175.975C115.199 172.939 115.347 166.569 115.865 162.57C115.938 162.173 116.103 161.798 116.347 161.476C116.592 161.154 116.909 160.895 117.273 160.718C119.717 159.608 125.345 156.645 127.345 151.09C127.584 150.529 128.009 150.068 128.549 149.784C129.089 149.501 129.71 149.413 130.308 149.535Z" stroke="white" stroke-width="1.8" stroke-linecap="round" stroke-linejoin="round"/>
<path d="M136.381 84.7305C136.457 84.5625 136.572 84.415 136.716 84.3003C136.861 84.1856 137.031 84.1069 137.211 84.0707C137.392 84.0345 137.579 84.0419 137.757 84.0922C137.934 84.1425 138.097 84.2344 138.232 84.3601C139.639 85.8414 142.676 88.0633 148.157 89.1002C156.526 90.6555 157.34 89.3964 157.34 89.3964C157.34 89.3964 158.673 89.8408 158.822 90.9517C158.865 92.7478 158.666 94.5416 158.229 96.2842C157.785 97.6914 151.563 97.8396 146.601 96.8027C142.217 95.999 138.17 93.911 134.973 90.8036C134.721 90.5599 134.55 90.2441 134.483 89.8994C134.417 89.5547 134.459 89.198 134.603 88.878C135.048 87.767 135.788 86.1376 136.381 84.7305Z" fill="#6DAFA7"/>
<path d="M172.894 57.2534C172.966 60.4278 172.464 63.5893 171.412 66.5853C169.931 70.4365 167.487 81.1756 162.673 84.6565C157.859 88.1375 147.342 87.4709 142.75 78.5093C138.158 69.5478 139.639 60.1418 142.009 52.5874C144.379 45.033 154.156 42.2927 162.673 45.4033C171.19 48.514 172.894 53.9205 172.894 57.2534Z" fill="#F4C2C9"/>
<path d="M141.787 62.4367C142.292 63.0991 142.715 63.8203 143.046 64.5845C143.713 66.1399 145.12 65.2511 145.638 62.4367C146.157 59.6223 147.342 57.6227 148.231 57.7708C149.372 58.0437 150.572 57.9213 151.635 57.4235C152.698 56.9257 153.56 56.0821 154.082 55.0305C155.933 51.6236 156.748 52.142 156.748 52.142C156.748 52.142 158.229 48.587 162.08 53.6973C165.932 58.8077 168.376 62.807 172.968 61.9924C177.559 61.1777 181.633 53.6973 178.152 46.5133C174.671 39.3292 163.71 37.6257 155.563 39.7736C147.416 41.9214 143.194 40.1439 138.306 44.2914C133.418 48.4389 134.603 52.8086 134.307 57.6967C134.011 62.5848 131.492 65.177 134.825 69.5467C138.158 73.9164 137.269 77.9899 139.121 80.434C139.121 80.434 141.121 73.9905 140.898 69.3246C140.676 64.6586 141.787 62.4367 141.787 62.4367Z" fill="#22272E"/>
<path d="M163.784 66.5111C163.731 68.3731 162.962 70.1432 161.638 71.4534C160.314 72.7637 158.536 73.5135 156.674 73.547C155.746 73.5397 154.83 73.3466 153.978 72.9792C153.126 72.6119 152.356 72.0776 151.714 71.408C151.072 70.7384 150.571 69.9471 150.24 69.0806C149.909 68.2141 149.754 67.2901 149.786 66.363C149.78 65.4047 149.963 64.4546 150.325 63.5672C150.687 62.6799 151.22 61.8725 151.894 61.1915C152.568 60.5104 153.37 59.969 154.254 59.5982C155.138 59.2275 156.086 59.0346 157.044 59.0308C157.982 59.0683 158.902 59.293 159.751 59.6915C160.601 60.0901 161.362 60.6544 161.99 61.3514C162.617 62.0484 163.1 62.8639 163.408 63.75C163.716 64.6361 163.844 65.5749 163.784 66.5111Z" stroke="#22272E" stroke-width="1.8" stroke-linecap="round" stroke-linejoin="round"/>
<path d="M175.207 70.8974C176.237 67.3629 175.066 63.9135 172.592 63.1928C170.117 62.4721 167.277 64.7531 166.248 68.2876C165.218 71.822 166.389 75.2715 168.863 75.9921C171.337 76.7128 174.178 74.4318 175.207 70.8974Z" stroke="#22272E" stroke-width="1.8" stroke-linecap="round" stroke-linejoin="round"/>
<path d="M166.376 68.0665C166.376 68.0665 166.302 66.5852 163.71 67.3999" stroke="#22272E" stroke-width="1.8" stroke-linecap="round" stroke-linejoin="round"/>
<path d="M150.379 63.3261L141.787 61.7708" stroke="#22272E" stroke-width="1.8" stroke-linecap="round" stroke-linejoin="round"/>
<path d="M142.528 63.7703C142.528 63.7703 141.861 59.845 138.677 59.7709C135.492 59.6969 133.566 69.4731 141.491 70.8063" fill="#F4C2C9"/>
<path d="M138.158 62.808C138.527 62.7136 138.916 62.7338 139.274 62.8662C139.631 62.9985 139.939 63.2366 140.158 63.5487C140.368 63.934 140.471 64.369 140.454 64.8077C140.454 65.0299 140.38 65.1781 140.38 65.4002C140.38 65.6224 140.306 65.6965 140.306 65.8446C140.248 66.087 140.223 66.3362 140.232 66.5852C140.216 66.6772 140.221 66.7716 140.247 66.8613C140.273 66.9511 140.318 67.0339 140.38 67.1037C140.778 67.5361 141.256 67.8881 141.787 68.1406C141.436 68.2672 141.06 68.313 140.688 68.2746C140.316 68.2361 139.958 68.1143 139.639 67.9184C139.284 67.6466 139.045 67.2492 138.973 66.8074C138.921 66.4113 138.946 66.009 139.047 65.6224C139.121 65.4743 139.121 65.2521 139.195 65.104C139.269 64.9559 139.269 64.8818 139.269 64.7337C139.343 64.5432 139.343 64.3317 139.269 64.1412C139.189 63.8529 139.048 63.585 138.857 63.3552C138.665 63.1253 138.427 62.9388 138.158 62.808Z" fill="#22272E"/>
<path d="M165.339 66.8811C165.39 67.717 165.564 68.5408 165.858 69.3252C165.985 69.6684 166.16 69.9923 166.376 70.288C166.687 70.6543 166.914 71.084 167.043 71.5471C167.161 72.0425 167.17 72.558 167.067 73.0571C166.965 73.5562 166.754 74.0267 166.45 74.4355C166.18 74.8291 165.826 75.158 165.413 75.3983C165.022 75.6654 164.553 75.7956 164.08 75.7686C164.736 75.2865 165.227 74.6142 165.487 73.843C165.775 73.2179 165.853 72.5164 165.709 71.8433C165.579 71.5013 165.405 71.1777 165.191 70.8805C164.965 70.4395 164.815 69.9638 164.747 69.4733C164.713 68.5722 164.918 67.6782 165.339 66.8811Z" fill="#22272E"/>
<path d="M157.933 78.6569C156.896 78.619 155.891 78.2944 155.028 77.7191C154.165 77.1438 153.478 76.3404 153.045 75.3982" stroke="#22272E" stroke-width="1.8" stroke-linecap="round" stroke-linejoin="round"/>
<path d="M154.896 67.9175C154.755 67.8836 154.622 67.8222 154.505 67.7369C154.388 67.6515 154.288 67.5438 154.213 67.42C154.137 67.2961 154.086 67.1586 154.064 67.0152C154.041 66.8718 154.047 66.7254 154.082 66.5844L154.378 65.4735C154.412 65.3324 154.473 65.1993 154.559 65.082C154.644 64.9646 154.752 64.8653 154.876 64.7896C154.999 64.7139 155.137 64.6634 155.28 64.641C155.424 64.6185 155.57 64.6246 155.711 64.6588C155.852 64.6927 155.985 64.7541 156.103 64.8395C156.22 64.9248 156.319 65.0325 156.395 65.1564C156.471 65.2802 156.521 65.4177 156.544 65.5611C156.566 65.7045 156.56 65.8509 156.526 65.9919L156.23 67.1029C156.196 67.244 156.134 67.377 156.049 67.4943C155.963 67.6117 155.856 67.7111 155.732 67.7867C155.608 67.8624 155.471 67.9129 155.327 67.9354C155.184 67.9578 155.037 67.9517 154.896 67.9175Z" fill="#22272E"/>
<path d="M166.672 70.9544C166.531 70.9205 166.398 70.8591 166.281 70.7737C166.163 70.6884 166.064 70.5807 165.988 70.4568C165.913 70.333 165.862 70.1955 165.84 70.0521C165.817 69.9087 165.823 69.7623 165.858 69.6213L166.154 68.5103C166.188 68.3692 166.249 68.2362 166.334 68.1188C166.42 68.0015 166.528 67.9021 166.651 67.8265C166.775 67.7508 166.913 67.7003 167.056 67.6778C167.2 67.6554 167.346 67.6614 167.487 67.6956C167.628 67.7295 167.761 67.7909 167.878 67.8763C167.996 67.9617 168.095 68.0694 168.171 68.1932C168.247 68.317 168.297 68.4546 168.319 68.598C168.342 68.7413 168.336 68.8877 168.302 69.0288L168.005 70.1397C167.971 70.2808 167.91 70.4139 167.825 70.5312C167.739 70.6486 167.632 70.7479 167.508 70.8236C167.384 70.8993 167.246 70.9498 167.103 70.9722C166.96 70.9947 166.813 70.9886 166.672 70.9544Z" fill="#22272E"/>
<path d="M157.859 62.8076C157.044 62.9557 156.674 61.8448 155.489 61.9188C153.637 61.9929 152.6 62.3632 152.452 61.5485C152.378 60.956 153.785 59.8451 155.563 59.771C158.155 59.771 159.34 62.5854 157.859 62.8076Z" fill="#22272E"/>
<path d="M166.672 65.0295C167.191 65.4739 167.931 64.6592 168.672 65.1776C169.783 65.8442 170.153 66.4367 170.524 65.9182C170.894 65.3998 170.524 64.1407 169.487 63.4742C167.783 62.2892 165.561 64.2148 166.672 65.0295Z" fill="#22272E"/>
<path d="M73.3533 188.862C72.8543 189.914 72.5292 191.039 72.3905 192.195C72.3905 193.454 73.4273 205.082 73.1311 207.378C72.8348 209.674 72.0942 214.191 71.6498 214.858C71.2054 215.525 68.5392 213.451 68.4651 206.489C68.3911 199.527 66.021 189.973 68.0207 188.862C70.0204 187.751 72.7608 187.973 73.3533 188.862Z" fill="#F4C2C9"/>
<path d="M24.8422 223.227L42.6173 195.232C42.814 194.922 43.0706 194.655 43.3718 194.446C43.6731 194.238 44.013 194.091 44.3717 194.015C44.7304 193.939 45.1006 193.936 45.4606 194.005C45.8207 194.074 46.1633 194.214 46.4685 194.417L88.3139 221.005C88.6233 221.202 88.8902 221.459 89.0991 221.76C89.308 222.061 89.4547 222.401 89.5306 222.76C89.6065 223.119 89.61 223.489 89.541 223.849C89.472 224.209 89.3318 224.552 89.1286 224.857L71.3536 252.852C71.1568 253.162 70.9003 253.429 70.599 253.638C70.2978 253.847 69.9578 253.993 69.5991 254.069C69.2405 254.145 68.8703 254.148 68.5102 254.079C68.1502 254.01 67.8075 253.87 67.5023 253.667L25.6569 227.079C25.0462 226.669 24.6193 226.038 24.4671 225.318C24.3149 224.599 24.4495 223.849 24.8422 223.227Z" fill="#22272E"/>
<path d="M73.9458 244.631L82.8333 230.708C82.9255 230.558 83.053 230.434 83.2045 230.345C83.356 230.256 83.527 230.206 83.7024 230.199C83.8778 230.191 84.0524 230.227 84.2107 230.303C84.3691 230.379 84.5065 230.492 84.6108 230.633L86.018 232.485C86.1565 232.663 86.2378 232.878 86.251 233.103C86.2642 233.328 86.2088 233.551 86.0921 233.744L78.0933 246.335C77.9864 246.524 77.818 246.672 77.616 246.752C77.414 246.833 77.1904 246.843 76.9823 246.779L74.6864 246.335C74.5138 246.289 74.3537 246.204 74.2183 246.088C74.0829 245.971 73.9755 245.826 73.9043 245.662C73.8331 245.498 73.7998 245.32 73.807 245.142C73.8142 244.963 73.8616 244.789 73.9458 244.631Z" fill="#6DAFA7"/>
<path d="M71.3536 188.122C71.3536 188.122 70.9093 201.009 70.8352 203.749C70.7611 206.489 70.9093 211.896 70.2427 214.488C69.5761 217.08 68.4652 223.598 66.4655 224.042C64.4658 224.487 66.6136 216.043 66.6136 214.414C66.451 212.544 66.154 210.687 65.7249 208.859C65.7249 208.859 64.9842 212.933 64.4658 214.71C63.9474 216.488 60.5405 222.042 59.2074 221.82C57.8742 221.598 59.5036 217.451 60.5405 214.932C61.5033 212.637 61.8736 207.822 61.8736 207.822C61.2961 209.294 60.6282 210.729 59.8739 212.118C58.9852 213.599 55.9486 218.191 54.6895 217.969C53.4305 217.747 55.5042 213.081 56.7633 210.933C57.4764 209.813 57.9317 208.548 58.0964 207.23C58.0964 207.23 56.0967 209.23 54.8377 210.192C53.5786 211.155 49.1348 213.303 48.7645 212.192C48.3942 211.081 50.3939 209.896 52.2455 208.193C54.097 206.489 56.0967 203.082 56.5411 202.49C56.9855 201.897 55.7264 196.713 57.7261 193.232C59.7258 189.751 60.9108 188.344 61.4292 185.974C61.9477 183.604 71.1314 186.418 71.3536 188.122Z" fill="#F4C2C9"/>
<path d="M117.643 87.989C117.643 87.989 109.2 87.1743 99.0531 99.9131C88.9065 112.652 78.908 123.317 76.0936 128.353C73.2793 133.389 67.058 152.275 63.9473 167.162C60.8367 182.049 60.5405 184.715 60.6145 186.344C60.6886 187.825 68.1689 189.899 73.0571 189.825C73.4866 189.834 73.9085 189.711 74.266 189.472C74.6235 189.234 74.8995 188.892 75.0567 188.492C76.9824 183.974 83.7221 168.569 86.3883 162.94C89.499 156.349 93.128 146.573 93.5724 145.906C94.0168 145.239 114.236 124.65 118.013 119.243C121.79 113.837 125.419 105.097 124.605 97.3949C123.716 89.0259 119.42 87.9149 117.643 87.989Z" fill="#6DAFA7"/>
<path d="M77.1304 126.65C77.1304 126.65 79.4264 123.465 82.3148 126.354C85.3514 129.39 84.0183 135.982 79.7967 140.129C76.3157 143.536 71.3535 142.129 71.7979 138.944" stroke="#22272E" stroke-width="1.8" stroke-linecap="round" stroke-linejoin="round"/>
<path d="M61.6513 182.789C63.651 183.752 69.6501 186.418 75.501 185.678" stroke="#22272E" stroke-width="1.8" stroke-linecap="round" stroke-linejoin="round"/>
<path d="M255.548 203.823L267.99 163.088C268.171 162.546 268.52 162.074 268.985 161.742C269.451 161.409 270.01 161.232 270.582 161.237L344.201 163.311C344.487 163.314 344.769 163.383 345.024 163.512C345.28 163.641 345.502 163.828 345.674 164.057C345.846 164.286 345.963 164.552 346.015 164.833C346.068 165.115 346.055 165.405 345.978 165.681L331.536 215.377C331.361 215.983 330.972 216.506 330.44 216.847C329.909 217.187 329.272 217.323 328.647 217.228L257.177 206.193C256.899 206.178 256.629 206.1 256.387 205.964C256.144 205.828 255.936 205.638 255.779 205.409C255.621 205.18 255.519 204.918 255.479 204.643C255.438 204.368 255.462 204.087 255.548 203.823Z" fill="#22272E"/>
<path d="M254.881 205.897L212.073 209.896L285.469 227.967C287.244 228.413 289.101 228.413 290.875 227.967L330.721 217.673L254.881 205.897Z" fill="#63737A"/>
<path d="M285.543 227.967L212.147 209.896C212.152 210.573 212.379 211.23 212.794 211.765C213.209 212.301 213.788 212.685 214.443 212.859L283.617 231.226C286.537 231.992 289.612 231.941 292.505 231.078L328.795 220.413C329.403 220.238 329.936 219.867 330.311 219.358C330.686 218.849 330.882 218.231 330.869 217.599L291.024 227.893C289.235 228.398 287.345 228.423 285.543 227.967Z" fill="#22272E"/>
<path d="M303.91 170.273L298.726 187.9C298.65 188.115 298.51 188.301 298.324 188.433C298.139 188.566 297.917 188.638 297.689 188.64L268.582 186.122C268.436 186.111 268.293 186.067 268.165 185.995C268.037 185.922 267.927 185.822 267.842 185.702C267.757 185.582 267.7 185.444 267.674 185.299C267.648 185.154 267.655 185.005 267.694 184.863L272.582 168.717C272.642 168.507 272.768 168.322 272.941 168.189C273.115 168.055 273.326 167.981 273.545 167.977L302.948 169.014C303.099 169.018 303.248 169.057 303.383 169.126C303.518 169.195 303.636 169.294 303.728 169.414C303.82 169.535 303.885 169.675 303.916 169.823C303.948 169.972 303.946 170.125 303.91 170.273Z" fill="white"/>
<path d="M298.356 173.458L295.097 184.048L272.434 182.419L273.248 180.049L281.618 176.346L286.358 180.049L298.356 173.458Z" fill="#F4C2C9"/>
<path d="M281.395 195.084L279.248 201.749C279.172 201.974 279.018 202.165 278.815 202.287C278.611 202.409 278.371 202.455 278.137 202.416L264.139 200.564C263.995 200.551 263.856 200.505 263.733 200.43C263.61 200.355 263.505 200.253 263.426 200.132C263.348 200.011 263.298 199.874 263.28 199.73C263.263 199.587 263.278 199.442 263.324 199.305L265.176 193.084C265.252 192.869 265.392 192.683 265.577 192.55C265.763 192.418 265.985 192.345 266.213 192.343L280.507 193.825C280.66 193.818 280.812 193.851 280.949 193.919C281.087 193.986 281.205 194.087 281.293 194.213C281.381 194.338 281.437 194.483 281.455 194.635C281.473 194.787 281.452 194.941 281.395 195.084Z" fill="#FFE779"/>
<path d="M303.318 197.305L300.948 204.637C300.872 204.862 300.718 205.053 300.515 205.175C300.311 205.297 300.071 205.343 299.837 205.304L286.506 203.526C286.357 203.507 286.214 203.455 286.088 203.374C285.962 203.292 285.856 203.184 285.778 203.056C285.699 202.928 285.651 202.784 285.636 202.634C285.621 202.485 285.64 202.334 285.691 202.193L287.913 195.305C287.98 195.09 288.121 194.906 288.311 194.784C288.5 194.662 288.726 194.611 288.95 194.639L302.429 195.972C302.584 195.98 302.736 196.025 302.871 196.102C303.006 196.179 303.121 196.286 303.208 196.416C303.294 196.545 303.349 196.693 303.368 196.847C303.387 197.002 303.37 197.158 303.318 197.305Z" fill="#6DAFA7"/>
<path d="M328.499 199.823L325.981 207.97C325.905 208.195 325.752 208.386 325.548 208.508C325.345 208.63 325.104 208.676 324.87 208.637L308.799 206.489C308.65 206.47 308.507 206.418 308.381 206.337C308.255 206.255 308.149 206.146 308.071 206.018C307.992 205.89 307.944 205.746 307.929 205.597C307.914 205.448 307.933 205.297 307.984 205.156L310.428 197.527C310.495 197.313 310.636 197.128 310.826 197.006C311.015 196.885 311.241 196.833 311.465 196.861L327.536 198.49C327.696 198.493 327.852 198.534 327.994 198.608C328.135 198.682 328.257 198.787 328.35 198.917C328.444 199.046 328.506 199.195 328.531 199.352C328.557 199.51 328.546 199.671 328.499 199.823Z" fill="#F4C2C9"/>
<path d="M319.834 173.827C319.542 174.932 318.886 175.906 317.972 176.591C317.058 177.277 315.94 177.634 314.798 177.604C312.65 177.456 311.539 175.605 312.131 173.531C312.459 172.543 313.082 171.679 313.916 171.056C314.751 170.433 315.757 170.082 316.797 170.05C317.268 170.031 317.737 170.123 318.166 170.318C318.595 170.513 318.972 170.806 319.268 171.173C319.563 171.541 319.768 171.972 319.866 172.433C319.965 172.894 319.953 173.371 319.834 173.827Z" fill="#FFE779"/>
<path d="M325.092 171.384L335.905 171.754" stroke="#63737A" stroke-width="1.8" stroke-linecap="round" stroke-linejoin="round"/>
<path d="M308.206 185.455L331.388 187.085" stroke="#63737A" stroke-width="1.8" stroke-linecap="round" stroke-linejoin="round"/>
<path d="M323.833 175.753L334.646 176.198" stroke="#63737A" stroke-width="1.8" stroke-linecap="round" stroke-linejoin="round"/>
<path d="M383.157 65.1034L326.87 69.4731C326.533 69.4948 326.196 69.4446 325.881 69.3258C325.566 69.2069 325.279 69.0222 325.041 68.7839C324.803 68.5456 324.618 68.2591 324.499 67.9438C324.38 67.6284 324.33 67.2913 324.352 66.9549L326.722 34.4414C326.789 33.4987 327.179 32.608 327.827 31.9198C328.474 31.2316 329.34 30.7881 330.277 30.6642L387.453 22.8877C387.801 22.8443 388.154 22.8784 388.487 22.9874C388.82 23.0964 389.125 23.2778 389.38 23.5184C389.634 23.759 389.833 24.053 389.961 24.3793C390.089 24.7056 390.143 25.0561 390.119 25.4058L386.935 61.4002C386.828 62.3581 386.394 63.2496 385.705 63.9243C385.017 64.599 384.117 65.0155 383.157 65.1034Z" fill="#6DAFA7"/>
<path d="M381.306 63.9186L325.018 68.2883C324.682 68.31 324.345 68.2598 324.029 68.141C323.714 68.0221 323.428 67.8374 323.189 67.599C322.951 67.3607 322.766 67.0743 322.647 66.7589C322.529 66.4436 322.478 66.1065 322.5 65.7701L324.87 33.2566C324.937 32.3139 325.327 31.4232 325.975 30.735C326.623 30.0468 327.488 29.6033 328.425 29.4794L385.601 21.7028C385.949 21.6595 386.302 21.6935 386.635 21.8026C386.968 21.9116 387.273 22.0929 387.528 22.3336C387.783 22.5742 387.981 22.8682 388.109 23.1945C388.237 23.5208 388.291 23.8713 388.268 24.221L385.083 60.2154C385.002 61.1829 384.575 62.0889 383.882 62.7685C383.189 63.4482 382.275 63.8563 381.306 63.9186Z" fill="#B0D7C0"/>
<path d="M343.83 42.1447C343.726 43.2512 343.253 44.2906 342.488 45.0963C341.722 45.9021 340.708 46.4275 339.609 46.5885C339.127 46.6517 338.637 46.6032 338.177 46.4469C337.717 46.2906 337.299 46.0306 336.955 45.687C336.612 45.3434 336.352 44.9254 336.195 44.4653C336.039 44.0052 335.99 43.5153 336.054 43.0335C336.142 41.9334 336.6 40.8954 337.353 40.0886C338.106 39.2817 339.11 38.7534 340.201 38.5897C342.423 38.2935 343.978 39.9229 343.83 42.1447Z" fill="#22272E"/>
<path d="M342.719 56.2898L335.017 57.0304C334.63 57.072 334.24 57.0253 333.874 56.8937C333.509 56.7621 333.178 56.5491 332.907 56.2709C332.636 55.9926 332.431 55.6564 332.309 55.2876C332.187 54.9187 332.151 54.527 332.202 54.1419C332.393 52.1781 333.231 50.3334 334.585 48.8986C335.94 47.4638 337.733 46.5204 339.683 46.2172C343.534 45.7728 346.496 48.7354 346.126 52.8088C346.032 53.6874 345.644 54.5087 345.026 55.1402C344.408 55.7717 343.596 56.1766 342.719 56.2898Z" fill="#22272E"/>
<path d="M352.94 38.1452L376.936 35.3308" stroke="#63737A" stroke-width="1.8" stroke-linecap="round" stroke-linejoin="round"/>
<path d="M352.347 44.7365L376.344 42.1443" stroke="#63737A" stroke-width="1.8" stroke-linecap="round" stroke-linejoin="round"/>
<path d="M351.829 51.3276L366.271 49.9204" stroke="#63737A" stroke-width="1.8" stroke-linecap="round" stroke-linejoin="round"/>
<path d="M295.615 1.48369C298.727 0.190935 302.122 -0.268542 305.466 0.150563C310.502 0.743064 314.501 2.44651 317.464 5.33495C320.426 8.22339 321.389 12.3709 320.056 17.4072C319.382 20.3169 317.8 22.9367 315.538 24.8875C314.279 25.9984 312.057 27.2575 308.873 28.7388L305.836 30.1459C304.315 30.7841 303.024 31.8688 302.133 33.2566C301.44 34.5497 300.894 35.9159 300.504 37.33L291.616 34.886C292.875 31.0347 293.912 28.5166 294.949 27.1834C295.986 25.8503 297.837 24.5172 300.726 23.11L303.688 21.6287C304.601 21.2083 305.449 20.6597 306.206 19.9994C307.441 18.991 308.322 17.6163 308.724 16.074C309.175 14.4378 309.097 12.7012 308.502 11.1118C307.91 9.55652 306.206 8.59371 303.614 8.2234C301.022 7.85309 299.096 8.44558 297.615 9.92683C296.187 11.2876 295.14 12.9983 294.579 14.889L285.913 13.3337C287.987 7.33464 291.098 3.48338 295.615 1.48369ZM294.653 40.885L294.949 40.9591C296.271 41.4097 297.367 42.3575 298.003 43.6017C298.639 44.8459 298.765 46.2888 298.356 47.6247C297.541 50.5872 294.653 52.2166 292.06 51.3279L291.764 51.1797C290.485 50.6828 289.443 49.7166 288.851 48.478C288.259 47.2394 288.162 45.8218 288.579 44.5141C288.904 43.2281 289.727 42.1236 290.865 41.4432C292.004 40.7628 293.366 40.562 294.653 40.885Z" fill="#6DAFA7"/>
<path d="M94.0908 47.1805H122.531L125.419 49.0321C125.631 49.1686 125.875 49.2454 126.127 49.2541C126.378 49.2628 126.627 49.2032 126.847 49.0817C127.068 48.9601 127.251 48.7811 127.378 48.5638C127.504 48.3464 127.57 48.0987 127.567 47.8471V27.7761C127.567 26.794 127.177 25.8521 126.483 25.1576C125.788 24.4631 124.846 24.073 123.864 24.073H94.0908C93.1087 24.073 92.1668 24.4631 91.4723 25.1576C90.7779 25.8521 90.3877 26.794 90.3877 27.7761V43.4774C90.3877 44.4595 90.7779 45.4015 91.4723 46.0959C92.1668 46.7904 93.1087 47.1805 94.0908 47.1805Z" fill="#F4C2C9"/>
<path d="M118.383 30.6648H99.4233" stroke="#22272E" stroke-width="1.8" stroke-linecap="round" stroke-linejoin="round"/>
<path d="M118.383 35.8486H99.4233" stroke="#22272E" stroke-width="1.8" stroke-linecap="round" stroke-linejoin="round"/>
<path d="M118.383 41.0327H107.496" stroke="#22272E" stroke-width="1.8" stroke-linecap="round" stroke-linejoin="round"/>
</svg>
