<svg width="32" height="31" viewBox="0 0 32 31" fill="none" xmlns="http://www.w3.org/2000/svg">
<path d="M16.123 30.1779V11.58C22.4949 1.83825 31.5972 0.657227 31.5972 0.657227C31.5972 0.657227 23.7385 11.172 21.585 15.4186C16.87 24.7155 16.1612 30.1928 16.125 30.1928C16.123 30.1919 16.123 30.1879 16.123 30.1779ZM10.661 15.4186C8.50751 11.172 0.648743 0.657227 0.648743 0.657227C0.648743 0.657227 9.75112 1.83825 16.123 11.58V30.1779C16.123 30.1869 16.123 30.1919 16.123 30.1919C16.0848 30.1919 15.376 24.7155 10.661 15.4186Z" fill="url(#paint0_linear_1_11)"/>
<defs>
<linearGradient id="paint0_linear_1_11" x1="17.8252" y1="28.1844" x2="17.8252" y2="2.0454" gradientUnits="userSpaceOnUse">
<stop stop-color="#38EF7D"/>
<stop offset="0.652" stop-color="#21CFB3"/>
<stop offset="1" stop-color="#30F6C5"/>
</linearGradient>
</defs>
</svg>
