<svg width="16" height="13" viewBox="0 0 16 13" fill="none" xmlns="http://www.w3.org/2000/svg">
<path d="M5.61938 10.9337C4.5958 10.1441 3.90401 9.00726 3.67751 7.74258C3.45101 6.4779 3.70585 5.17501 4.39286 4.08534L1.77897 3.90425L3.0457 8.6801L2.52393 9.30096L1.38688 3.88037L0.281006 3.80078L6.676 0L15.7553 0.330329L11.8133 2.54911C11.9018 2.60947 11.9889 2.67281 12.0747 2.73915C12.6278 3.1553 13.092 3.67598 13.4402 4.27099C13.7885 4.86601 14.014 5.52353 14.1036 6.20543C14.1932 6.88733 14.1451 7.58005 13.9621 8.24342C13.7792 8.90679 13.465 9.52763 13.0378 10.0699C12.6106 10.6122 12.0789 11.0652 11.4735 11.4026C10.868 11.74 10.201 11.9551 9.51091 12.0355C8.82086 12.1158 8.12155 12.0598 7.45354 11.8707C6.78553 11.6816 6.16209 11.3631 5.61938 10.9337Z" fill="url(#paint0_linear_1_8)"/>
<defs>
<linearGradient id="paint0_linear_1_8" x1="15.7553" y1="0" x2="4.04715" y2="15.0089" gradientUnits="userSpaceOnUse">
<stop stop-color="#38EF7D"/>
<stop offset="0.474" stop-color="#21CFB3"/>
<stop offset="1" stop-color="#30F6C5"/>
</linearGradient>
</defs>
</svg>
