<svg width="160" height="16" viewBox="0 0 160 16" fill="none" xmlns="http://www.w3.org/2000/svg">
<path d="M12.9369 5.3125H10.721C10.6358 4.83902 10.4772 4.42235 10.2452 4.0625C10.0132 3.70265 9.72906 3.39725 9.39289 3.14631C9.05672 2.89536 8.68029 2.70597 8.26363 2.57813C7.8517 2.45028 7.41372 2.38636 6.94971 2.38636C6.11164 2.38636 5.36117 2.59706 4.69829 3.01847C4.04014 3.43987 3.51931 4.05777 3.13579 4.87216C2.757 5.68655 2.5676 6.68087 2.5676 7.85511C2.5676 9.03883 2.757 10.0379 3.13579 10.8523C3.51931 11.6667 4.04251 12.2822 4.70539 12.6989C5.36827 13.1155 6.11401 13.3239 6.94261 13.3239C7.40189 13.3239 7.83749 13.2623 8.24942 13.1392C8.66609 13.0114 9.04251 12.8243 9.37868 12.5781C9.71486 12.3319 9.99895 12.0312 10.231 11.6761C10.4677 11.3163 10.6311 10.9044 10.721 10.4403L12.9369 10.4474C12.8186 11.1624 12.5889 11.8206 12.248 12.4219C11.9118 13.0185 11.4786 13.5346 10.9483 13.9702C10.4227 14.401 9.82139 14.7348 9.14431 14.9716C8.46723 15.2083 7.72859 15.3267 6.9284 15.3267C5.66893 15.3267 4.54677 15.0284 3.56192 14.4318C2.57707 13.8305 1.80056 12.9711 1.23238 11.8537C0.668931 10.7363 0.387207 9.40341 0.387207 7.85511C0.387207 6.30208 0.671298 4.96922 1.23948 3.85653C1.80766 2.73911 2.58418 1.8821 3.56903 1.28551C4.55387 0.684185 5.67367 0.383522 6.9284 0.383522C7.70018 0.383522 8.41988 0.494792 9.08749 0.71733C9.75984 0.935133 10.3635 1.2571 10.8986 1.68324C11.4336 2.10464 11.8763 2.62074 12.2267 3.23153C12.5771 3.83759 12.8138 4.53125 12.9369 5.3125Z" fill="#F9F9F9"/>
<path d="M19.9877 15.348C18.965 15.348 18.0725 15.1136 17.3101 14.6449C16.5478 14.1761 15.956 13.5204 15.5346 12.6776C15.1132 11.8348 14.9025 10.8499 14.9025 9.72301C14.9025 8.59138 15.1132 7.6018 15.5346 6.75426C15.956 5.90672 16.5478 5.24858 17.3101 4.77983C18.0725 4.31108 18.965 4.0767 19.9877 4.0767C21.0104 4.0767 21.903 4.31108 22.6653 4.77983C23.4276 5.24858 24.0194 5.90672 24.4408 6.75426C24.8622 7.6018 25.0729 8.59138 25.0729 9.72301C25.0729 10.8499 24.8622 11.8348 24.4408 12.6776C24.0194 13.5204 23.4276 14.1761 22.6653 14.6449C21.903 15.1136 21.0104 15.348 19.9877 15.348ZM19.9948 13.5653C20.6577 13.5653 21.2069 13.3902 21.6425 13.0398C22.0781 12.6894 22.4001 12.223 22.6084 11.6406C22.8215 11.0582 22.928 10.4167 22.928 9.71591C22.928 9.01989 22.8215 8.38068 22.6084 7.7983C22.4001 7.21117 22.0781 6.74006 21.6425 6.38494C21.2069 6.02983 20.6577 5.85227 19.9948 5.85227C19.3272 5.85227 18.7732 6.02983 18.3329 6.38494C17.8973 6.74006 17.5729 7.21117 17.3599 7.7983C17.1515 8.38068 17.0474 9.01989 17.0474 9.71591C17.0474 10.4167 17.1515 11.0582 17.3599 11.6406C17.5729 12.223 17.8973 12.6894 18.3329 13.0398C18.7732 13.3902 19.3272 13.5653 19.9948 13.5653Z" fill="#F9F9F9"/>
<path d="M29.5669 8.65057V15.1278H27.4433V4.21875H29.4817V5.99432H29.6166C29.8676 5.41667 30.2605 4.95265 30.7956 4.60227C31.3354 4.25189 32.0148 4.0767 32.8339 4.0767C33.5773 4.0767 34.2284 4.23295 34.7871 4.54545C35.3458 4.85322 35.779 5.3125 36.0868 5.9233C36.3945 6.53409 36.5484 7.2893 36.5484 8.18892V15.1278H34.4249V8.4446C34.4249 7.65388 34.2189 7.03598 33.807 6.59091C33.395 6.1411 32.8292 5.91619 32.1095 5.91619C31.6171 5.91619 31.1791 6.02273 30.7956 6.2358C30.4168 6.44886 30.1161 6.76136 29.8936 7.1733C29.6758 7.58049 29.5669 8.07292 29.5669 8.65057Z" fill="#F9F9F9"/>
<path d="M41.52 8.65057V15.1278H39.3964V4.21875H41.4348V5.99432H41.5697C41.8207 5.41667 42.2137 4.95265 42.7487 4.60227C43.2885 4.25189 43.9679 4.0767 44.7871 4.0767C45.5304 4.0767 46.1815 4.23295 46.7402 4.54545C47.2989 4.85322 47.7321 5.3125 48.0399 5.9233C48.3477 6.53409 48.5016 7.2893 48.5016 8.18892V15.1278H46.378V8.4446C46.378 7.65388 46.172 7.03598 45.7601 6.59091C45.3481 6.1411 44.7823 5.91619 44.0626 5.91619C43.5702 5.91619 43.1322 6.02273 42.7487 6.2358C42.3699 6.44886 42.0693 6.76136 41.8467 7.1733C41.6289 7.58049 41.52 8.07292 41.52 8.65057Z" fill="#F9F9F9"/>
<path d="M56.0513 15.348C54.9765 15.348 54.0508 15.1184 53.2743 14.6591C52.5025 14.1951 51.9059 13.544 51.4845 12.706C51.0678 11.8632 50.8595 10.8759 50.8595 9.74432C50.8595 8.62689 51.0678 7.64204 51.4845 6.78977C51.9059 5.9375 52.493 5.27225 53.2459 4.79403C54.0034 4.31581 54.8889 4.0767 55.9021 4.0767C56.5177 4.0767 57.1142 4.1785 57.6919 4.3821C58.2695 4.5857 58.788 4.9053 59.2473 5.34091C59.7066 5.77651 60.0688 6.34233 60.3339 7.03835C60.5991 7.72964 60.7317 8.57008 60.7317 9.55966V10.3125H52.0598V8.72159H58.6507C58.6507 8.16288 58.5371 7.66809 58.3098 7.23722C58.0825 6.80161 57.7629 6.45833 57.351 6.20739C56.9438 5.95644 56.4656 5.83097 55.9163 5.83097C55.3197 5.83097 54.7989 5.97775 54.3538 6.27131C53.9135 6.56013 53.5726 6.93892 53.3311 7.40767C53.0944 7.87169 52.976 8.37595 52.976 8.92045V10.1634C52.976 10.8925 53.1038 11.5128 53.3595 12.0241C53.6199 12.5355 53.9821 12.9261 54.4462 13.196C54.9102 13.4612 55.4523 13.5938 56.0726 13.5938C56.475 13.5938 56.842 13.5369 57.1734 13.4233C57.5049 13.3049 57.7913 13.1297 58.0328 12.8977C58.2743 12.6657 58.4589 12.3793 58.5868 12.0384L60.5967 12.4006C60.4357 12.9924 60.1469 13.5109 59.7302 13.956C59.3183 14.3963 58.7999 14.7396 58.1749 14.9858C57.5546 15.2273 56.8467 15.348 56.0513 15.348Z" fill="#F9F9F9"/>
<path d="M67.683 15.348C66.6271 15.348 65.7181 15.1089 64.9557 14.6307C64.1982 14.1477 63.6158 13.4825 63.2086 12.6349C62.8014 11.7874 62.5978 10.8168 62.5978 9.72301C62.5978 8.61506 62.8061 7.63731 63.2228 6.78977C63.6395 5.9375 64.2266 5.27225 64.9841 4.79403C65.7417 4.31581 66.6342 4.0767 67.6617 4.0767C68.4903 4.0767 69.2289 4.23059 69.8776 4.53835C70.5263 4.84138 71.0495 5.26752 71.4472 5.81676C71.8497 6.366 72.0888 7.00758 72.1646 7.74148H70.0978C69.9841 7.23011 69.7237 6.78977 69.3165 6.42045C68.9141 6.05114 68.3743 5.86648 67.6972 5.86648C67.1054 5.86648 66.5869 6.02273 66.1418 6.33523C65.7015 6.64299 65.3582 7.08333 65.112 7.65625C64.8658 8.22443 64.7427 8.89678 64.7427 9.6733C64.7427 10.4687 64.8634 11.1553 65.1049 11.733C65.3464 12.3106 65.6873 12.758 66.1276 13.0753C66.5727 13.3925 67.0959 13.5511 67.6972 13.5511C68.0997 13.5511 68.4643 13.4777 68.791 13.331C69.1224 13.1795 69.3994 12.964 69.6219 12.6847C69.8492 12.4053 70.0078 12.0691 70.0978 11.6761H72.1646C72.0888 12.3816 71.8591 13.0114 71.4756 13.5653C71.0921 14.1193 70.5784 14.5549 69.9344 14.8722C69.2952 15.1894 68.5448 15.348 67.683 15.348Z" fill="#F9F9F9"/>
<path d="M79.5278 4.21875V5.9233H73.569V4.21875H79.5278ZM75.167 1.60511H77.2906V11.9247C77.2906 12.3366 77.3522 12.6468 77.4753 12.8551C77.5984 13.0587 77.757 13.1984 77.9511 13.2741C78.15 13.3452 78.3654 13.3807 78.5974 13.3807C78.7679 13.3807 78.917 13.3688 79.0449 13.3452C79.1727 13.3215 79.2721 13.3026 79.3432 13.2884L79.7267 15.0426C79.6036 15.09 79.4284 15.1373 79.2011 15.1847C78.9739 15.2367 78.6898 15.2652 78.3489 15.2699C77.7901 15.2794 77.2693 15.1799 76.7864 14.9716C76.3034 14.7633 75.9128 14.4413 75.6145 14.0057C75.3162 13.5701 75.167 13.0232 75.167 12.3651V1.60511Z" fill="#F9F9F9"/>
<path d="M90.1883 15.1278L86.1543 0.582386H88.4625L91.2963 11.8466H91.4312L94.3787 0.582386H96.6656L99.6131 11.8537H99.748L102.575 0.582386H104.89L100.849 15.1278H98.64L95.579 4.23295H95.4653L92.4043 15.1278H90.1883Z" fill="#F9F9F9"/>
<path d="M106.721 15.1278V4.21875H108.844V15.1278H106.721ZM107.793 2.53551C107.424 2.53551 107.107 2.4124 106.841 2.16619C106.581 1.91525 106.451 1.61695 106.451 1.27131C106.451 0.920928 106.581 0.622633 106.841 0.37642C107.107 0.125474 107.424 0 107.793 0C108.162 0 108.477 0.125474 108.738 0.37642C109.003 0.622633 109.135 0.920928 109.135 1.27131C109.135 1.61695 109.003 1.91525 108.738 2.16619C108.477 2.4124 108.162 2.53551 107.793 2.53551Z" fill="#F9F9F9"/>
<path d="M116.793 4.21875V5.9233H110.835V4.21875H116.793ZM112.433 1.60511H114.556V11.9247C114.556 12.3366 114.618 12.6468 114.741 12.8551C114.864 13.0587 115.023 13.1984 115.217 13.2741C115.416 13.3452 115.631 13.3807 115.863 13.3807C116.034 13.3807 116.183 13.3688 116.311 13.3452C116.438 13.3215 116.538 13.3026 116.609 13.2884L116.992 15.0426C116.869 15.09 116.694 15.1373 116.467 15.1847C116.239 15.2367 115.955 15.2652 115.614 15.2699C115.056 15.2794 114.535 15.1799 114.052 14.9716C113.569 14.7633 113.178 14.4413 112.88 14.0057C112.582 13.5701 112.433 13.0232 112.433 12.3651V1.60511Z" fill="#F9F9F9"/>
<path d="M121.5 8.65057V15.1278H119.377V0.582386H121.472V5.99432H121.607C121.863 5.4072 122.253 4.94081 122.779 4.59517C123.304 4.24953 123.991 4.0767 124.839 4.0767C125.587 4.0767 126.24 4.23059 126.799 4.53835C127.362 4.84612 127.798 5.3054 128.106 5.91619C128.418 6.52225 128.574 7.27983 128.574 8.18892V15.1278H126.451V8.4446C126.451 7.64441 126.245 7.02415 125.833 6.58381C125.421 6.13873 124.848 5.91619 124.114 5.91619C123.612 5.91619 123.162 6.02273 122.765 6.2358C122.372 6.44886 122.062 6.76136 121.834 7.1733C121.612 7.58049 121.5 8.07292 121.5 8.65057Z" fill="#F9F9F9"/>
<path d="M146.225 0.582386H148.427V10.1491C148.427 11.1671 148.188 12.0691 147.71 12.8551C147.231 13.6364 146.559 14.2519 145.693 14.7017C144.826 15.1468 143.811 15.3693 142.646 15.3693C141.486 15.3693 140.472 15.1468 139.606 14.7017C138.739 14.2519 138.067 13.6364 137.589 12.8551C137.111 12.0691 136.872 11.1671 136.872 10.1491V0.582386H139.066V9.97159C139.066 10.6297 139.211 11.2145 139.499 11.7259C139.793 12.2372 140.207 12.6397 140.742 12.9332C141.277 13.2221 141.912 13.3665 142.646 13.3665C143.384 13.3665 144.021 13.2221 144.556 12.9332C145.096 12.6397 145.508 12.2372 145.792 11.7259C146.081 11.2145 146.225 10.6297 146.225 9.97159V0.582386Z" fill="#F9F9F9"/>
<path d="M159.622 6.8821L157.697 7.22301C157.617 6.9768 157.489 6.74242 157.314 6.51989C157.143 6.29735 156.911 6.11506 156.618 5.97301C156.324 5.83097 155.957 5.75994 155.517 5.75994C154.916 5.75994 154.414 5.89489 154.011 6.16477C153.609 6.42992 153.407 6.7732 153.407 7.1946C153.407 7.55919 153.542 7.85275 153.812 8.07528C154.082 8.29782 154.518 8.48011 155.119 8.62216L156.852 9.01989C157.856 9.25189 158.604 9.60938 159.096 10.0923C159.589 10.5753 159.835 11.2027 159.835 11.9744C159.835 12.6278 159.646 13.2102 159.267 13.7216C158.893 14.2282 158.37 14.6259 157.697 14.9148C157.03 15.2036 156.255 15.348 155.375 15.348C154.153 15.348 153.157 15.0876 152.385 14.5668C151.613 14.0412 151.139 13.2955 150.964 12.3295L153.017 12.017C153.145 12.5521 153.407 12.9569 153.805 13.2315C154.203 13.5014 154.721 13.6364 155.361 13.6364C156.057 13.6364 156.613 13.492 157.03 13.2031C157.446 12.9096 157.655 12.5521 157.655 12.1307C157.655 11.7898 157.527 11.5033 157.271 11.2713C157.02 11.0393 156.634 10.8641 156.113 10.7457L154.267 10.3409C153.249 10.1089 152.496 9.73958 152.008 9.23295C151.525 8.72633 151.284 8.08475 151.284 7.30824C151.284 6.6643 151.464 6.10085 151.824 5.6179C152.183 5.13494 152.681 4.75852 153.315 4.48864C153.95 4.21402 154.676 4.0767 155.496 4.0767C156.674 4.0767 157.603 4.33239 158.28 4.84375C158.957 5.35038 159.404 6.02983 159.622 6.8821Z" fill="#F9F9F9"/>
</svg>
