<svg width="414" height="21" viewBox="0 0 414 21" fill="none" xmlns="http://www.w3.org/2000/svg">
<path d="M149.295 7.11071H147.966C147.915 6.82662 147.819 6.57662 147.68 6.36071C147.541 6.1448 147.371 5.96156 147.169 5.81099C146.967 5.66042 146.741 5.54679 146.491 5.47008C146.244 5.39338 145.981 5.35503 145.703 5.35503C145.2 5.35503 144.75 5.48145 144.352 5.73429C143.957 5.98713 143.645 6.35787 143.415 6.8465C143.187 7.33514 143.074 7.93173 143.074 8.63628C143.074 9.3465 143.187 9.94593 143.415 10.4346C143.645 10.9232 143.959 11.2925 144.356 11.5425C144.754 11.7925 145.202 11.9175 145.699 11.9175C145.974 11.9175 146.236 11.8806 146.483 11.8067C146.733 11.73 146.959 11.6178 147.16 11.4701C147.362 11.3224 147.533 11.142 147.672 10.9289C147.814 10.713 147.912 10.4658 147.966 10.1874L149.295 10.1917C149.224 10.6207 149.086 11.0155 148.882 11.3763C148.68 11.7343 148.42 12.0439 148.102 12.3053C147.787 12.5638 147.426 12.7641 147.02 12.9062C146.613 13.0482 146.17 13.1192 145.69 13.1192C144.934 13.1192 144.261 12.9403 143.67 12.5823C143.079 12.2215 142.613 11.7059 142.273 11.0354C141.934 10.365 141.765 9.56525 141.765 8.63628C141.765 7.70446 141.936 6.90474 142.277 6.23713C142.618 5.56667 143.084 5.05247 143.675 4.69451C144.265 4.33372 144.937 4.15332 145.69 4.15332C146.153 4.15332 146.585 4.22008 146.986 4.3536C147.389 4.48429 147.751 4.67747 148.072 4.93315C148.393 5.18599 148.659 5.49565 148.869 5.86213C149.079 6.22576 149.221 6.64196 149.295 7.11071Z" fill="#F9F9F9"/>
<path d="M169.774 15.9999V14.409L174.696 9.30957C175.222 8.75559 175.655 8.27027 175.996 7.8536C176.341 7.4322 176.599 7.03211 176.77 6.65332C176.94 6.27453 177.026 5.87207 177.026 5.44593C177.026 4.96298 176.912 4.54631 176.685 4.19593C176.457 3.84082 176.147 3.56857 175.754 3.37917C175.361 3.18504 174.919 3.08798 174.426 3.08798C173.905 3.08798 173.451 3.19451 173.063 3.40758C172.674 3.62065 172.376 3.92131 172.168 4.30957C171.959 4.69783 171.855 5.15237 171.855 5.67321H169.76C169.76 4.78779 169.964 4.01364 170.371 3.35076C170.778 2.68788 171.337 2.17415 172.047 1.80957C172.757 1.44025 173.564 1.25559 174.469 1.25559C175.383 1.25559 176.188 1.43788 176.884 1.80247C177.584 2.16232 178.131 2.65474 178.524 3.27974C178.917 3.90001 179.114 4.60076 179.114 5.38201C179.114 5.92179 179.012 6.44972 178.808 6.96582C178.609 7.48192 178.261 8.0572 177.764 8.69167C177.267 9.32141 176.576 10.0861 175.69 10.9857L172.8 14.0113V14.1178H179.348V15.9999H169.774Z" fill="#F9F9F9"/>
<path d="M187.104 16.2414C185.982 16.2367 185.023 15.9407 184.227 15.3536C183.432 14.7665 182.823 13.9118 182.402 12.7897C181.981 11.6675 181.77 10.3157 181.77 8.73429C181.77 7.15758 181.981 5.81052 182.402 4.69309C182.828 3.57567 183.439 2.7234 184.234 2.13628C185.035 1.54915 185.991 1.25559 187.104 1.25559C188.216 1.25559 189.17 1.55152 189.966 2.14338C190.761 2.7305 191.37 3.58277 191.791 4.7002C192.217 5.81289 192.43 7.15758 192.43 8.73429C192.43 10.3205 192.22 11.6746 191.798 12.7968C191.377 13.9142 190.768 14.7689 189.973 15.3607C189.178 15.9478 188.221 16.2414 187.104 16.2414ZM187.104 14.3451C188.089 14.3451 188.858 13.8645 189.412 12.9033C189.971 11.9421 190.25 10.5525 190.25 8.73429C190.25 7.5269 190.122 6.50654 189.866 5.67321C189.616 4.83514 189.253 4.20067 188.78 3.7698C188.311 3.33419 187.752 3.11639 187.104 3.11639C186.124 3.11639 185.354 3.59934 184.795 4.56525C184.237 5.53116 183.955 6.92084 183.95 8.73429C183.95 9.94641 184.076 10.9715 184.327 11.8096C184.582 12.6429 184.945 13.275 185.413 13.7059C185.882 14.132 186.446 14.3451 187.104 14.3451Z" fill="#F9F9F9"/>
<path d="M194.95 15.9999V14.409L199.872 9.30957C200.397 8.75559 200.831 8.27027 201.172 7.8536C201.517 7.4322 201.775 7.03211 201.946 6.65332C202.116 6.27453 202.201 5.87207 202.201 5.44593C202.201 4.96298 202.088 4.54631 201.86 4.19593C201.633 3.84082 201.323 3.56857 200.93 3.37917C200.537 3.18504 200.094 3.08798 199.602 3.08798C199.081 3.08798 198.627 3.19451 198.238 3.40758C197.85 3.62065 197.552 3.92131 197.343 4.30957C197.135 4.69783 197.031 5.15237 197.031 5.67321H194.936C194.936 4.78779 195.139 4.01364 195.547 3.35076C195.954 2.68788 196.512 2.17415 197.223 1.80957C197.933 1.44025 198.74 1.25559 199.645 1.25559C200.558 1.25559 201.363 1.43788 202.059 1.80247C202.76 2.16232 203.307 2.65474 203.7 3.27974C204.093 3.90001 204.289 4.60076 204.289 5.38201C204.289 5.92179 204.188 6.44972 203.984 6.96582C203.785 7.48192 203.437 8.0572 202.94 8.69167C202.443 9.32141 201.752 10.0861 200.866 10.9857L197.976 14.0113V14.1178H204.524V15.9999H194.95Z" fill="#F9F9F9"/>
<path d="M212.279 16.1988C211.304 16.1988 210.433 16.0307 209.666 15.6945C208.904 15.3583 208.3 14.892 207.855 14.2954C207.414 13.694 207.178 12.998 207.145 12.2073H209.375C209.403 12.6382 209.547 13.0122 209.808 13.3295C210.073 13.642 210.419 13.8834 210.845 14.0539C211.271 14.2243 211.744 14.3096 212.265 14.3096C212.838 14.3096 213.345 14.2101 213.785 14.0113C214.23 13.8124 214.578 13.5354 214.829 13.1803C215.08 12.8205 215.206 12.4062 215.206 11.9374C215.206 11.4497 215.08 11.0212 214.829 10.6519C214.583 10.2778 214.221 9.98429 213.743 9.77122C213.269 9.55815 212.696 9.45162 212.024 9.45162H210.795V7.66184H212.024C212.564 7.66184 213.037 7.56478 213.444 7.37065C213.856 7.17652 214.178 6.90663 214.41 6.56099C214.642 6.21061 214.758 5.80105 214.758 5.3323C214.758 4.88249 214.656 4.49186 214.453 4.16042C214.254 3.82425 213.97 3.56146 213.601 3.37207C213.236 3.18268 212.805 3.08798 212.308 3.08798C211.834 3.08798 211.392 3.17557 210.98 3.35076C210.573 3.52122 210.241 3.76743 209.985 4.0894C209.73 4.40663 209.592 4.78779 209.574 5.23287H207.45C207.474 4.44688 207.706 3.75559 208.146 3.159C208.591 2.56241 209.178 2.09603 209.907 1.75985C210.637 1.42368 211.446 1.25559 212.336 1.25559C213.269 1.25559 214.074 1.43788 214.751 1.80247C215.433 2.16232 215.958 2.6429 216.328 3.24423C216.702 3.84555 216.887 4.5037 216.882 5.21866C216.887 6.03306 216.659 6.72434 216.2 7.29252C215.745 7.86071 215.139 8.24186 214.382 8.43599V8.54963C215.348 8.69641 216.096 9.07993 216.626 9.7002C217.161 10.3205 217.426 11.0899 217.422 12.0084C217.426 12.8086 217.204 13.526 216.754 14.1604C216.309 14.7949 215.7 15.2944 214.929 15.659C214.157 16.0188 213.274 16.1988 212.279 16.1988Z" fill="#F9F9F9"/>
<path d="M226.827 15.9999H224.497L229.732 1.45446H232.267L237.501 15.9999H235.172L231.06 4.0965H230.946L226.827 15.9999ZM227.217 10.3039H234.774V12.1505H227.217V10.3039Z" fill="#F9F9F9"/>
<path d="M241.555 1.45446V15.9999H239.431V1.45446H241.555Z" fill="#F9F9F9"/>
<path d="M246.536 1.45446V15.9999H244.412V1.45446H246.536Z" fill="#F9F9F9"/>
<path d="M254.856 15.9999V1.45446H260.041C261.167 1.45446 262.103 1.64859 262.846 2.03684C263.594 2.4251 264.153 2.96251 264.522 3.64906C264.891 4.33088 265.076 5.11923 265.076 6.01412C265.076 6.90427 264.889 7.68788 264.515 8.36497C264.146 9.03732 263.587 9.56052 262.839 9.93457C262.095 10.3086 261.16 10.4957 260.033 10.4957H256.106V8.60645H259.835C260.545 8.60645 261.122 8.50465 261.567 8.30105C262.017 8.09745 262.346 7.80152 262.555 7.41326C262.763 7.02501 262.867 6.55862 262.867 6.01412C262.867 5.46487 262.761 4.98902 262.548 4.58656C262.339 4.1841 262.01 3.87633 261.56 3.66326C261.115 3.44546 260.531 3.33656 259.806 3.33656H257.05V15.9999H254.856ZM262.036 9.43741L265.63 15.9999H263.13L259.607 9.43741H262.036Z" fill="#F9F9F9"/>
<path d="M267.576 15.9999V5.09082H269.7V15.9999H267.576ZM268.648 3.40758C268.279 3.40758 267.962 3.28448 267.697 3.03826C267.436 2.78732 267.306 2.48902 267.306 2.14338C267.306 1.793 267.436 1.4947 267.697 1.24849C267.962 0.997544 268.279 0.87207 268.648 0.87207C269.018 0.87207 269.333 0.997544 269.593 1.24849C269.858 1.4947 269.991 1.793 269.991 2.14338C269.991 2.48902 269.858 2.78732 269.593 3.03826C269.333 3.28448 269.018 3.40758 268.648 3.40758Z" fill="#F9F9F9"/>
<path d="M277.13 20.3181C276.264 20.3181 275.518 20.2045 274.893 19.9772C274.273 19.7499 273.766 19.4493 273.373 19.0752C272.98 18.7011 272.687 18.2916 272.493 17.8465L274.318 17.0937C274.446 17.302 274.616 17.5222 274.829 17.7542C275.047 17.9909 275.341 18.1921 275.71 18.3579C276.084 18.5236 276.565 18.6064 277.152 18.6064C277.957 18.6064 278.622 18.41 279.147 18.017C279.673 17.6287 279.936 17.0084 279.936 16.1562V14.0113H279.801C279.673 14.2433 279.488 14.5013 279.247 14.7854C279.01 15.0695 278.683 15.3157 278.267 15.5241C277.85 15.7324 277.308 15.8366 276.64 15.8366C275.779 15.8366 275.002 15.6353 274.311 15.2329C273.624 14.8257 273.08 14.2267 272.677 13.436C272.279 12.6405 272.081 11.6628 272.081 10.5028C272.081 9.34271 272.277 8.3484 272.67 7.5198C273.068 6.6912 273.612 6.05673 274.304 5.61639C274.995 5.17131 275.779 4.94878 276.654 4.94878C277.332 4.94878 277.878 5.06241 278.295 5.28968C278.712 5.51222 279.036 5.77264 279.268 6.07093C279.505 6.36923 279.687 6.63201 279.815 6.85929H279.971V5.09082H282.052V16.2414C282.052 17.1789 281.834 17.9483 281.399 18.5496C280.963 19.151 280.374 19.596 279.63 19.8849C278.892 20.1737 278.058 20.3181 277.13 20.3181ZM277.109 14.0752C277.72 14.0752 278.236 13.9331 278.657 13.6491C279.083 13.3602 279.405 12.9483 279.623 12.4133C279.846 11.8735 279.957 11.2272 279.957 10.4743C279.957 9.74044 279.848 9.09413 279.63 8.53542C279.413 7.97671 279.093 7.5411 278.672 7.2286C278.25 6.91137 277.729 6.75275 277.109 6.75275C276.47 6.75275 275.937 6.91847 275.511 7.24991C275.085 7.57662 274.763 8.02169 274.545 8.58514C274.332 9.14859 274.226 9.77832 274.226 10.4743C274.226 11.1893 274.334 11.8167 274.552 12.3564C274.77 12.8962 275.092 13.3176 275.518 13.6207C275.949 13.9237 276.479 14.0752 277.109 14.0752Z" fill="#F9F9F9"/>
<path d="M287.024 9.52264V15.9999H284.9V1.45446H286.995V6.86639H287.13C287.386 6.27927 287.777 5.81288 288.302 5.46724C288.828 5.1216 289.514 4.94878 290.362 4.94878C291.11 4.94878 291.763 5.10266 292.322 5.41042C292.886 5.71819 293.321 6.17747 293.629 6.78826C293.941 7.39432 294.098 8.1519 294.098 9.06099V15.9999H291.974V9.31667C291.974 8.51648 291.768 7.89622 291.356 7.45588C290.944 7.0108 290.371 6.78826 289.637 6.78826C289.136 6.78826 288.686 6.8948 288.288 7.10787C287.895 7.32093 287.585 7.63343 287.358 8.04537C287.135 8.45256 287.024 8.94499 287.024 9.52264Z" fill="#F9F9F9"/>
<path d="M302.024 5.09082V6.79537H296.065V5.09082H302.024ZM297.663 2.47718H299.787V12.7968C299.787 13.2087 299.848 13.5188 299.971 13.7272C300.094 13.9308 300.253 14.0705 300.447 14.1462C300.646 14.2172 300.861 14.2528 301.093 14.2528C301.264 14.2528 301.413 14.2409 301.541 14.2172C301.669 14.1936 301.768 14.1746 301.839 14.1604L302.223 15.9147C302.1 15.962 301.924 16.0094 301.697 16.0567C301.47 16.1088 301.186 16.1372 300.845 16.142C300.286 16.1514 299.765 16.052 299.282 15.8437C298.799 15.6353 298.409 15.3134 298.11 14.8778C297.812 14.4421 297.663 13.8953 297.663 13.2371V2.47718Z" fill="#F9F9F9"/>
<path d="M312.372 7.75417L310.447 8.09508C310.367 7.84887 310.239 7.61449 310.064 7.39196C309.893 7.16942 309.661 6.98713 309.368 6.84508C309.074 6.70304 308.707 6.63201 308.267 6.63201C307.665 6.63201 307.163 6.76696 306.761 7.03684C306.359 7.30199 306.157 7.64527 306.157 8.06667C306.157 8.43126 306.292 8.72482 306.562 8.94735C306.832 9.16989 307.268 9.35218 307.869 9.49423L309.602 9.89196C310.606 10.124 311.354 10.4814 311.846 10.9644C312.339 11.4474 312.585 12.0747 312.585 12.8465C312.585 13.4999 312.395 14.0823 312.017 14.5937C311.643 15.1003 311.119 15.498 310.447 15.7868C309.779 16.0757 309.005 16.2201 308.125 16.2201C306.903 16.2201 305.906 15.9597 305.135 15.4388C304.363 14.9133 303.889 14.1675 303.714 13.2016L305.767 12.8891C305.895 13.4242 306.157 13.829 306.555 14.1036C306.953 14.3735 307.471 14.5084 308.11 14.5084C308.806 14.5084 309.363 14.364 309.779 14.0752C310.196 13.7816 310.404 13.4242 310.404 13.0028C310.404 12.6618 310.277 12.3754 310.021 12.1434C309.77 11.9114 309.384 11.7362 308.863 11.6178L307.017 11.213C305.999 10.981 305.246 10.6117 304.758 10.105C304.275 9.5984 304.034 8.95682 304.034 8.18031C304.034 7.53637 304.214 6.97292 304.574 6.48997C304.933 6.00701 305.431 5.63059 306.065 5.36071C306.699 5.08609 307.426 4.94878 308.245 4.94878C309.424 4.94878 310.352 5.20446 311.029 5.71582C311.707 6.22245 312.154 6.9019 312.372 7.75417Z" fill="#F9F9F9"/>
<path d="M320.383 15.9999V1.45446H325.568C326.695 1.45446 327.63 1.64859 328.373 2.03684C329.121 2.4251 329.68 2.96251 330.049 3.64906C330.419 4.33088 330.603 5.11923 330.603 6.01412C330.603 6.90427 330.416 7.68788 330.042 8.36497C329.673 9.03732 329.114 9.56052 328.366 9.93457C327.623 10.3086 326.688 10.4957 325.561 10.4957H321.633V8.60645H325.362C326.072 8.60645 326.65 8.50465 327.095 8.30105C327.545 8.09745 327.874 7.80152 328.082 7.41326C328.29 7.02501 328.395 6.55862 328.395 6.01412C328.395 5.46487 328.288 4.98902 328.075 4.58656C327.867 4.1841 327.538 3.87633 327.088 3.66326C326.643 3.44546 326.058 3.33656 325.333 3.33656H322.578V15.9999H320.383ZM327.564 9.43741L331.157 15.9999H328.657L325.135 9.43741H327.564Z" fill="#F9F9F9"/>
<path d="M337.668 16.2201C336.594 16.2201 335.668 15.9904 334.891 15.5312C334.12 15.0671 333.523 14.4161 333.102 13.578C332.685 12.7352 332.477 11.748 332.477 10.6164C332.477 9.49896 332.685 8.51412 333.102 7.66184C333.523 6.80957 334.11 6.14432 334.863 5.6661C335.621 5.18789 336.506 4.94878 337.519 4.94878C338.135 4.94878 338.731 5.05057 339.309 5.25417C339.887 5.45777 340.405 5.77737 340.864 6.21298C341.324 6.64859 341.686 7.2144 341.951 7.91042C342.216 8.60171 342.349 9.44215 342.349 10.4317V11.1846H333.677V9.59366H340.268C340.268 9.03495 340.154 8.54016 339.927 8.10929C339.7 7.67368 339.38 7.3304 338.968 7.07946C338.561 6.82851 338.083 6.70304 337.533 6.70304C336.937 6.70304 336.416 6.84982 335.971 7.14338C335.531 7.4322 335.19 7.81099 334.948 8.27974C334.711 8.74376 334.593 9.24802 334.593 9.79253V11.0354C334.593 11.7646 334.721 12.3849 334.977 12.8962C335.237 13.4076 335.599 13.7982 336.063 14.0681C336.527 14.3332 337.069 14.4658 337.69 14.4658C338.092 14.4658 338.459 14.409 338.79 14.2954C339.122 14.177 339.408 14.0018 339.65 13.7698C339.891 13.5378 340.076 13.2513 340.204 12.9104L342.214 13.2726C342.053 13.8645 341.764 14.383 341.347 14.828C340.935 15.2684 340.417 15.6117 339.792 15.8579C339.172 16.0993 338.464 16.2201 337.668 16.2201Z" fill="#F9F9F9"/>
<path d="M352.88 7.75417L350.955 8.09508C350.874 7.84887 350.747 7.61449 350.571 7.39196C350.401 7.16942 350.169 6.98713 349.875 6.84508C349.582 6.70304 349.215 6.63201 348.775 6.63201C348.173 6.63201 347.671 6.76696 347.269 7.03684C346.866 7.30199 346.665 7.64527 346.665 8.06667C346.665 8.43126 346.8 8.72482 347.07 8.94735C347.34 9.16989 347.775 9.35218 348.377 9.49423L350.11 9.89196C351.114 10.124 351.862 10.4814 352.354 10.9644C352.846 11.4474 353.093 12.0747 353.093 12.8465C353.093 13.4999 352.903 14.0823 352.525 14.5937C352.15 15.1003 351.627 15.498 350.955 15.7868C350.287 16.0757 349.513 16.2201 348.632 16.2201C347.411 16.2201 346.414 15.9597 345.642 15.4388C344.871 14.9133 344.397 14.1675 344.222 13.2016L346.275 12.8891C346.402 13.4242 346.665 13.829 347.063 14.1036C347.461 14.3735 347.979 14.5084 348.618 14.5084C349.314 14.5084 349.871 14.364 350.287 14.0752C350.704 13.7816 350.912 13.4242 350.912 13.0028C350.912 12.6618 350.784 12.3754 350.529 12.1434C350.278 11.9114 349.892 11.7362 349.371 11.6178L347.525 11.213C346.507 10.981 345.754 10.6117 345.266 10.105C344.783 9.5984 344.542 8.95682 344.542 8.18031C344.542 7.53637 344.721 6.97292 345.081 6.48997C345.441 6.00701 345.938 5.63059 346.573 5.36071C347.207 5.08609 347.934 4.94878 348.753 4.94878C349.932 4.94878 350.86 5.20446 351.537 5.71582C352.214 6.22245 352.662 6.9019 352.88 7.75417Z" fill="#F9F9F9"/>
<path d="M360.129 16.2201C359.054 16.2201 358.129 15.9904 357.352 15.5312C356.581 15.0671 355.984 14.4161 355.563 13.578C355.146 12.7352 354.938 11.748 354.938 10.6164C354.938 9.49896 355.146 8.51412 355.563 7.66184C355.984 6.80957 356.571 6.14432 357.324 5.6661C358.081 5.18789 358.967 4.94878 359.98 4.94878C360.596 4.94878 361.192 5.05057 361.77 5.25417C362.348 5.45777 362.866 5.77737 363.325 6.21298C363.785 6.64859 364.147 7.2144 364.412 7.91042C364.677 8.60171 364.81 9.44215 364.81 10.4317V11.1846H356.138V9.59366H362.729C362.729 9.03495 362.615 8.54016 362.388 8.10929C362.161 7.67368 361.841 7.3304 361.429 7.07946C361.022 6.82851 360.544 6.70304 359.994 6.70304C359.398 6.70304 358.877 6.84982 358.432 7.14338C357.991 7.4322 357.651 7.81099 357.409 8.27974C357.172 8.74376 357.054 9.24802 357.054 9.79253V11.0354C357.054 11.7646 357.182 12.3849 357.438 12.8962C357.698 13.4076 358.06 13.7982 358.524 14.0681C358.988 14.3332 359.53 14.4658 360.151 14.4658C360.553 14.4658 360.92 14.409 361.251 14.2954C361.583 14.177 361.869 14.0018 362.111 13.7698C362.352 13.5378 362.537 13.2513 362.665 12.9104L364.675 13.2726C364.514 13.8645 364.225 14.383 363.808 14.828C363.396 15.2684 362.878 15.6117 362.253 15.8579C361.633 16.0993 360.925 16.2201 360.129 16.2201Z" fill="#F9F9F9"/>
<path d="M367.166 15.9999V5.09082H369.218V6.82377H369.332C369.531 6.23665 369.881 5.77501 370.383 5.43883C370.89 5.09792 371.463 4.92747 372.102 4.92747C372.235 4.92747 372.391 4.9322 372.571 4.94167C372.755 4.95114 372.9 4.96298 373.004 4.97718V7.00843C372.919 6.98476 372.767 6.95872 372.549 6.93031C372.332 6.89716 372.114 6.88059 371.896 6.88059C371.394 6.88059 370.947 6.98713 370.554 7.2002C370.165 7.40853 369.858 7.69972 369.63 8.07377C369.403 8.44309 369.289 8.86449 369.289 9.33798V15.9999H367.166Z" fill="#F9F9F9"/>
<path d="M384.506 5.09082L380.55 15.9999H378.277L374.314 5.09082H376.594L379.357 13.4857H379.471L382.226 5.09082H384.506Z" fill="#F9F9F9"/>
<path d="M390.832 16.2201C389.758 16.2201 388.832 15.9904 388.055 15.5312C387.284 15.0671 386.687 14.4161 386.266 13.578C385.849 12.7352 385.641 11.748 385.641 10.6164C385.641 9.49896 385.849 8.51412 386.266 7.66184C386.687 6.80957 387.274 6.14432 388.027 5.6661C388.785 5.18789 389.67 4.94878 390.683 4.94878C391.299 4.94878 391.895 5.05057 392.473 5.25417C393.051 5.45777 393.569 5.77737 394.028 6.21298C394.488 6.64859 394.85 7.2144 395.115 7.91042C395.38 8.60171 395.513 9.44215 395.513 10.4317V11.1846H386.841V9.59366H393.432C393.432 9.03495 393.318 8.54016 393.091 8.10929C392.864 7.67368 392.544 7.3304 392.132 7.07946C391.725 6.82851 391.247 6.70304 390.697 6.70304C390.101 6.70304 389.58 6.84982 389.135 7.14338C388.695 7.4322 388.354 7.81099 388.112 8.27974C387.875 8.74376 387.757 9.24802 387.757 9.79253V11.0354C387.757 11.7646 387.885 12.3849 388.141 12.8962C388.401 13.4076 388.763 13.7982 389.227 14.0681C389.691 14.3332 390.233 14.4658 390.854 14.4658C391.256 14.4658 391.623 14.409 391.955 14.2954C392.286 14.177 392.572 14.0018 392.814 13.7698C393.055 13.5378 393.24 13.2513 393.368 12.9104L395.378 13.2726C395.217 13.8645 394.928 14.383 394.511 14.828C394.099 15.2684 393.581 15.6117 392.956 15.8579C392.336 16.0993 391.628 16.2201 390.832 16.2201Z" fill="#F9F9F9"/>
<path d="M401.953 16.213C401.072 16.213 400.286 15.9881 399.595 15.5383C398.908 15.0837 398.369 14.4374 397.976 13.5993C397.587 12.7565 397.393 11.7456 397.393 10.5667C397.393 9.38769 397.59 8.37917 397.983 7.5411C398.38 6.70304 398.925 6.06146 399.616 5.61639C400.307 5.17131 401.091 4.94878 401.967 4.94878C402.644 4.94878 403.189 5.06241 403.601 5.28968C404.017 5.51222 404.339 5.77264 404.566 6.07093C404.798 6.36923 404.978 6.63201 405.106 6.85929H405.234V1.45446H407.358V15.9999H405.284V14.3025H405.106C404.978 14.5345 404.794 14.7996 404.552 15.0979C404.315 15.3962 403.989 15.6566 403.572 15.8792C403.155 16.1017 402.616 16.213 401.953 16.213ZM402.422 14.4019C403.032 14.4019 403.548 14.2409 403.97 13.9189C404.396 13.5922 404.718 13.1401 404.936 12.5624C405.158 11.9848 405.27 11.3124 405.27 10.5454C405.27 9.78779 405.161 9.12491 404.943 8.55673C404.725 7.98855 404.405 7.54584 403.984 7.2286C403.563 6.91137 403.042 6.75275 402.422 6.75275C401.782 6.75275 401.25 6.91847 400.824 7.24991C400.397 7.58135 400.075 8.03353 399.858 8.60645C399.645 9.17936 399.538 9.82567 399.538 10.5454C399.538 11.2745 399.647 11.9303 399.865 12.5127C400.083 13.0951 400.404 13.5567 400.831 13.8976C401.261 14.2338 401.792 14.4019 402.422 14.4019Z" fill="#F9F9F9"/>
<path d="M411.788 16.1349C411.399 16.1349 411.066 15.9975 410.786 15.7229C410.507 15.4436 410.367 15.1074 410.367 14.7144C410.367 14.3261 410.507 13.9947 410.786 13.7201C411.066 13.4407 411.399 13.301 411.788 13.301C412.176 13.301 412.51 13.4407 412.789 13.7201C413.068 13.9947 413.208 14.3261 413.208 14.7144C413.208 14.9748 413.142 15.2139 413.009 15.4317C412.881 15.6448 412.711 15.8153 412.498 15.9431C412.285 16.0709 412.048 16.1349 411.788 16.1349Z" fill="#F9F9F9"/>
<path d="M0.77771 0.45459H3.44106L8.07174 11.7614H8.2422L12.8729 0.45459H15.5362V15H13.4482V4.47448H13.3132L9.02345 14.9787H7.29049L3.00072 4.46737H2.86578V15H0.77771V0.45459Z" fill="#F9F9F9"/>
<path d="M21.7312 15.2415C21.0399 15.2415 20.4149 15.1137 19.8562 14.858C19.2975 14.5976 18.8548 14.2212 18.5281 13.7287C18.2061 13.2363 18.0451 12.6326 18.0451 11.9177C18.0451 11.3021 18.1635 10.7955 18.4002 10.3978C18.637 10 18.9566 9.68518 19.359 9.45317C19.7615 9.22116 20.2113 9.04597 20.7085 8.9276C21.2056 8.80923 21.7123 8.71927 22.2283 8.65771C22.8818 8.58196 23.4121 8.5204 23.8193 8.47306C24.2265 8.42097 24.5224 8.33811 24.707 8.22448C24.8917 8.11084 24.984 7.92618 24.984 7.6705V7.62078C24.984 7.00052 24.8088 6.51993 24.4585 6.17902C24.1128 5.83811 23.5967 5.66766 22.9102 5.66766C22.1952 5.66766 21.6318 5.82628 21.2198 6.14351C20.8126 6.45601 20.5309 6.80402 20.3747 7.18754L18.3789 6.733C18.6157 6.07012 18.9613 5.53508 19.4158 5.12789C19.8751 4.71595 20.4031 4.41766 20.9997 4.233C21.5962 4.04361 22.2236 3.94891 22.8818 3.94891C23.3174 3.94891 23.779 4.00099 24.2667 4.10516C24.7591 4.20459 25.2184 4.38925 25.6445 4.65913C26.0754 4.92902 26.4282 5.31491 26.7028 5.81681C26.9774 6.31396 27.1147 6.96027 27.1147 7.75573V15H25.0408V13.5086H24.9556C24.8183 13.7832 24.6123 14.0531 24.3377 14.3182C24.0631 14.5834 23.7104 14.8035 23.2795 14.9787C22.8486 15.1539 22.3325 15.2415 21.7312 15.2415ZM22.1928 13.537C22.78 13.537 23.2819 13.421 23.6985 13.189C24.1199 12.957 24.4395 12.6539 24.6573 12.2799C24.8799 11.9011 24.9911 11.4963 24.9911 11.0654V9.65914C24.9154 9.73489 24.7686 9.80592 24.5508 9.8722C24.3377 9.93376 24.0939 9.98821 23.8193 10.0356C23.5446 10.0782 23.2771 10.1184 23.0167 10.1563C22.7563 10.1894 22.5385 10.2178 22.3633 10.2415C21.9514 10.2936 21.5749 10.3812 21.234 10.5043C20.8979 10.6274 20.628 10.805 20.4244 11.037C20.2255 11.2642 20.1261 11.5673 20.1261 11.9461C20.1261 12.4716 20.3202 12.8694 20.7085 13.1392C21.0967 13.4044 21.5915 13.537 22.1928 13.537Z" fill="#F9F9F9"/>
<path d="M29.9432 15V4.09095H31.9958V5.82391H32.1094C32.3083 5.23679 32.6586 4.77514 33.1605 4.43896C33.6672 4.09806 34.2401 3.9276 34.8793 3.9276C35.0118 3.9276 35.1681 3.93234 35.348 3.94181C35.5327 3.95128 35.6771 3.96311 35.7813 3.97732V6.00857C35.696 5.98489 35.5445 5.95885 35.3267 5.93044C35.1089 5.8973 34.8911 5.88073 34.6733 5.88073C34.1714 5.88073 33.724 5.98726 33.331 6.20033C32.9427 6.40866 32.635 6.69985 32.4077 7.07391C32.1804 7.44323 32.0668 7.86463 32.0668 8.33811V15H29.9432Z" fill="#F9F9F9"/>
<path d="M41.8022 19.3182C40.9357 19.3182 40.19 19.2046 39.565 18.9773C38.9447 18.75 38.4381 18.4494 38.0451 18.0753C37.6521 17.7013 37.3586 17.2917 37.1644 16.8466L38.9897 16.0938C39.1176 16.3021 39.288 16.5223 39.5011 16.7543C39.7189 16.991 40.0124 17.1923 40.3818 17.358C40.7558 17.5237 41.2364 17.6066 41.8235 17.6066C42.6284 17.6066 43.2937 17.4101 43.8193 17.0171C44.3448 16.6288 44.6076 16.0086 44.6076 15.1563V13.0114H44.4727C44.3448 13.2434 44.1602 13.5015 43.9187 13.7856C43.6819 14.0696 43.3552 14.3159 42.9386 14.5242C42.5219 14.7325 41.9798 14.8367 41.3122 14.8367C40.4504 14.8367 39.6739 14.6355 38.9826 14.233C38.2961 13.8258 37.7515 13.2268 37.3491 12.4361C36.9514 11.6407 36.7525 10.6629 36.7525 9.50289C36.7525 8.34285 36.949 7.34853 37.342 6.51993C37.7397 5.69133 38.2842 5.05686 38.9755 4.61652C39.6668 4.17145 40.4504 3.94891 41.3264 3.94891C42.0034 3.94891 42.5503 4.06254 42.967 4.28982C43.3837 4.51235 43.708 4.77277 43.94 5.07107C44.1767 5.36936 44.359 5.63215 44.4869 5.85942H44.6431V4.09095H46.7241V15.2415C46.7241 16.179 46.5063 16.9484 46.0707 17.5498C45.6351 18.1511 45.0456 18.5962 44.3022 18.885C43.5636 19.1738 42.7302 19.3182 41.8022 19.3182ZM41.7809 13.0753C42.3917 13.0753 42.9078 12.9333 43.3292 12.6492C43.7553 12.3604 44.0773 11.9484 44.2951 11.4134C44.5177 10.8736 44.6289 10.2273 44.6289 9.47448C44.6289 8.74058 44.52 8.09427 44.3022 7.53556C44.0844 6.97684 43.7648 6.54124 43.3434 6.22874C42.922 5.9115 42.4012 5.75289 41.7809 5.75289C41.1417 5.75289 40.609 5.91861 40.1829 6.25004C39.7568 6.57675 39.4348 7.02182 39.217 7.58527C39.0039 8.14872 38.8974 8.77845 38.8974 9.47448C38.8974 10.1894 39.0063 10.8168 39.2241 11.3566C39.4419 11.8964 39.7639 12.3178 40.19 12.6208C40.6209 12.9238 41.1512 13.0753 41.7809 13.0753Z" fill="#F9F9F9"/>
<path d="M53.6559 15.2131C52.7752 15.2131 51.9892 14.9882 51.298 14.5384C50.6114 14.0839 50.0716 13.4375 49.6786 12.5995C49.2904 11.7567 49.0962 10.7458 49.0962 9.56681C49.0962 8.38783 49.2927 7.37931 49.6857 6.54124C50.0835 5.70317 50.628 5.0616 51.3193 4.61652C52.0105 4.17145 52.7942 3.94891 53.6701 3.94891C54.3472 3.94891 54.8917 4.06254 55.3036 4.28982C55.7203 4.51235 56.0423 4.77277 56.2695 5.07107C56.5016 5.36936 56.6815 5.63215 56.8093 5.85942H56.9372V0.45459H59.0607V15H56.9869V13.3026H56.8093C56.6815 13.5346 56.4968 13.7998 56.2553 14.0981C56.0186 14.3964 55.6919 14.6568 55.2752 14.8793C54.8586 15.1018 54.3188 15.2131 53.6559 15.2131ZM54.1247 13.402C54.7355 13.402 55.2515 13.241 55.673 12.9191C56.0991 12.5924 56.4211 12.1402 56.6389 11.5625C56.8614 10.9849 56.9727 10.3125 56.9727 9.5455C56.9727 8.78792 56.8638 8.12504 56.646 7.55686C56.4282 6.98868 56.1086 6.54597 55.6872 6.22874C55.2658 5.9115 54.7449 5.75289 54.1247 5.75289C53.4855 5.75289 52.9528 5.91861 52.5266 6.25004C52.1005 6.58148 51.7785 7.03366 51.5607 7.60658C51.3477 8.1795 51.2411 8.8258 51.2411 9.5455C51.2411 10.2747 51.35 10.9304 51.5678 11.5128C51.7856 12.0952 52.1076 12.5569 52.5337 12.8978C52.9646 13.2339 53.4949 13.402 54.1247 13.402Z" fill="#F9F9F9"/>
<path d="M65.2663 15.2415C64.5751 15.2415 63.9501 15.1137 63.3913 14.858C62.8326 14.5976 62.3899 14.2212 62.0632 13.7287C61.7413 13.2363 61.5803 12.6326 61.5803 11.9177C61.5803 11.3021 61.6986 10.7955 61.9354 10.3978C62.1721 10 62.4917 9.68518 62.8942 9.45317C63.2967 9.22116 63.7465 9.04597 64.2436 8.9276C64.7408 8.80923 65.2474 8.71927 65.7635 8.65771C66.4169 8.58196 66.9472 8.5204 67.3544 8.47306C67.7616 8.42097 68.0575 8.33811 68.2422 8.22448C68.4269 8.11084 68.5192 7.92618 68.5192 7.6705V7.62078C68.5192 7.00052 68.344 6.51993 67.9936 6.17902C67.648 5.83811 67.1319 5.66766 66.4453 5.66766C65.7304 5.66766 65.1669 5.82628 64.755 6.14351C64.3478 6.45601 64.0661 6.80402 63.9098 7.18754L61.9141 6.733C62.1508 6.07012 62.4965 5.53508 62.951 5.12789C63.4103 4.71595 63.9382 4.41766 64.5348 4.233C65.1314 4.04361 65.7588 3.94891 66.4169 3.94891C66.8525 3.94891 67.3142 4.00099 67.8019 4.10516C68.2943 4.20459 68.7536 4.38925 69.1797 4.65913C69.6106 4.92902 69.9633 5.31491 70.2379 5.81681C70.5126 6.31396 70.6499 6.96027 70.6499 7.75573V15H68.576V13.5086H68.4908C68.3535 13.7832 68.1475 14.0531 67.8729 14.3182C67.5983 14.5834 67.2455 14.8035 66.8146 14.9787C66.3838 15.1539 65.8677 15.2415 65.2663 15.2415ZM65.728 13.537C66.3151 13.537 66.817 13.421 67.2337 13.189C67.6551 12.957 67.9747 12.6539 68.1925 12.2799C68.415 11.9011 68.5263 11.4963 68.5263 11.0654V9.65914C68.4505 9.73489 68.3037 9.80592 68.0859 9.8722C67.8729 9.93376 67.629 9.98821 67.3544 10.0356C67.0798 10.0782 66.8123 10.1184 66.5519 10.1563C66.2914 10.1894 66.0736 10.2178 65.8984 10.2415C65.4865 10.2936 65.1101 10.3812 64.7692 10.5043C64.433 10.6274 64.1631 10.805 63.9595 11.037C63.7607 11.2642 63.6612 11.5673 63.6612 11.9461C63.6612 12.4716 63.8554 12.8694 64.2436 13.1392C64.6319 13.4044 65.1267 13.537 65.728 13.537Z" fill="#F9F9F9"/>
<path d="M73.4783 15V4.09095H75.5309V5.82391H75.6445C75.8434 5.23679 76.1938 4.77514 76.6957 4.43896C77.2023 4.09806 77.7752 3.9276 78.4144 3.9276C78.547 3.9276 78.7033 3.93234 78.8832 3.94181C79.0678 3.95128 79.2122 3.96311 79.3164 3.97732V6.00857C79.2312 5.98489 79.0797 5.95885 78.8619 5.93044C78.6441 5.8973 78.4263 5.88073 78.2085 5.88073C77.7066 5.88073 77.2591 5.98726 76.8661 6.20033C76.4779 6.40866 76.1701 6.69985 75.9428 7.07391C75.7156 7.44323 75.6019 7.86463 75.6019 8.33811V15H73.4783Z" fill="#F9F9F9"/>
<path d="M89.3288 6.75431L87.4041 7.09521C87.3236 6.849 87.1958 6.61463 87.0206 6.39209C86.8502 6.16955 86.6181 5.98726 86.3246 5.84521C86.031 5.70317 85.6641 5.63215 85.2237 5.63215C84.6224 5.63215 84.1205 5.76709 83.718 6.03698C83.3156 6.30213 83.1144 6.6454 83.1144 7.06681C83.1144 7.43139 83.2493 7.72495 83.5192 7.94749C83.7891 8.17003 84.2247 8.35232 84.826 8.49436L86.559 8.89209C87.5627 9.1241 88.3109 9.48158 88.8033 9.96453C89.2957 10.4475 89.5419 11.0749 89.5419 11.8466C89.5419 12.5 89.3525 13.0824 88.9737 13.5938C88.5997 14.1004 88.0765 14.4982 87.4041 14.787C86.7365 15.0758 85.9624 15.2202 85.0817 15.2202C83.8601 15.2202 82.8634 14.9598 82.0916 14.439C81.3198 13.9134 80.8464 13.1677 80.6712 12.2017L82.7237 11.8892C82.8516 12.4243 83.1144 12.8291 83.5121 13.1037C83.9098 13.3736 84.4283 13.5086 85.0675 13.5086C85.7635 13.5086 86.3198 13.3642 86.7365 13.0753C87.1532 12.7818 87.3615 12.4243 87.3615 12.0029C87.3615 11.662 87.2337 11.3755 86.978 11.1435C86.727 10.9115 86.3412 10.7363 85.8203 10.6179L83.9737 10.2131C82.9557 9.98111 82.2029 9.61179 81.7152 9.10516C81.2323 8.59853 80.9908 7.95696 80.9908 7.18044C80.9908 6.5365 81.1707 5.97306 81.5305 5.4901C81.8904 5.00715 82.3876 4.63073 83.022 4.36084C83.6565 4.08622 84.3833 3.94891 85.2024 3.94891C86.3814 3.94891 87.3094 4.20459 87.9865 4.71595C88.6636 5.22258 89.111 5.90203 89.3288 6.75431Z" fill="#F9F9F9"/>
<path d="M94.0004 8.52277V15H91.8768V0.45459H93.972V5.86652H94.1069C94.3626 5.2794 94.7532 4.81302 95.2788 4.46737C95.8043 4.12173 96.4909 3.94891 97.3384 3.94891C98.0865 3.94891 98.7399 4.10279 99.2987 4.41056C99.8621 4.71832 100.298 5.1776 100.605 5.7884C100.918 6.39446 101.074 7.15203 101.074 8.06112V15H98.9506V8.31681C98.9506 7.51662 98.7447 6.89635 98.3327 6.45601C97.9208 6.01093 97.3479 5.7884 96.614 5.7884C96.1121 5.7884 95.6623 5.89493 95.2646 6.108C94.8716 6.32107 94.5614 6.63357 94.3342 7.0455C94.1116 7.4527 94.0004 7.94512 94.0004 8.52277Z" fill="#F9F9F9"/>
<path d="M107.083 15.2415C106.391 15.2415 105.766 15.1137 105.208 14.858C104.649 14.5976 104.206 14.2212 103.88 13.7287C103.558 13.2363 103.397 12.6326 103.397 11.9177C103.397 11.3021 103.515 10.7955 103.752 10.3978C103.989 10 104.308 9.68518 104.711 9.45317C105.113 9.22116 105.563 9.04597 106.06 8.9276C106.557 8.80923 107.064 8.71927 107.58 8.65771C108.233 8.58196 108.764 8.5204 109.171 8.47306C109.578 8.42097 109.874 8.33811 110.059 8.22448C110.243 8.11084 110.336 7.92618 110.336 7.6705V7.62078C110.336 7.00052 110.16 6.51993 109.81 6.17902C109.464 5.83811 108.948 5.66766 108.262 5.66766C107.547 5.66766 106.983 5.82628 106.571 6.14351C106.164 6.45601 105.882 6.80402 105.726 7.18754L103.73 6.733C103.967 6.07012 104.313 5.53508 104.767 5.12789C105.227 4.71595 105.755 4.41766 106.351 4.233C106.948 4.04361 107.575 3.94891 108.233 3.94891C108.669 3.94891 109.131 4.00099 109.618 4.10516C110.111 4.20459 110.57 4.38925 110.996 4.65913C111.427 4.92902 111.78 5.31491 112.054 5.81681C112.329 6.31396 112.466 6.96027 112.466 7.75573V15H110.392V13.5086H110.307C110.17 13.7832 109.964 14.0531 109.689 14.3182C109.415 14.5834 109.062 14.8035 108.631 14.9787C108.2 15.1539 107.684 15.2415 107.083 15.2415ZM107.544 13.537C108.132 13.537 108.633 13.421 109.05 13.189C109.471 12.957 109.791 12.6539 110.009 12.2799C110.231 11.9011 110.343 11.4963 110.343 11.0654V9.65914C110.267 9.73489 110.12 9.80592 109.902 9.8722C109.689 9.93376 109.445 9.98821 109.171 10.0356C108.896 10.0782 108.629 10.1184 108.368 10.1563C108.108 10.1894 107.89 10.2178 107.715 10.2415C107.303 10.2936 106.926 10.3812 106.586 10.5043C106.249 10.6274 105.98 10.805 105.776 11.037C105.577 11.2642 105.478 11.5673 105.478 11.9461C105.478 12.4716 105.672 12.8694 106.06 13.1392C106.448 13.4044 106.943 13.537 107.544 13.537Z" fill="#F9F9F9"/>
<path d="M117.418 8.52277V15H115.295V4.09095H117.333V5.86652H117.468C117.719 5.28887 118.112 4.82485 118.647 4.47448C119.187 4.1241 119.866 3.94891 120.685 3.94891C121.429 3.94891 122.08 4.10516 122.639 4.41766C123.197 4.72542 123.63 5.1847 123.938 5.7955C124.246 6.40629 124.4 7.1615 124.4 8.06112V15H122.276V8.31681C122.276 7.52609 122.07 6.90819 121.658 6.46311C121.246 6.0133 120.681 5.7884 119.961 5.7884C119.469 5.7884 119.031 5.89493 118.647 6.108C118.268 6.32107 117.968 6.63357 117.745 7.0455C117.527 7.4527 117.418 7.94512 117.418 8.52277Z" fill="#F9F9F9"/>
<path fill-rule="evenodd" clip-rule="evenodd" d="M146 17C150.418 17 154 13.4183 154 9C154 4.58172 150.418 1 146 1C141.582 1 138 4.58172 138 9C138 13.4183 141.582 17 146 17ZM146 18C150.971 18 155 13.9706 155 9C155 4.02944 150.971 0 146 0C141.029 0 137 4.02944 137 9C137 13.9706 141.029 18 146 18Z" fill="#F9F9F9"/>
</svg>
