<svg width="30" height="30" viewBox="0 0 30 30" fill="none" xmlns="http://www.w3.org/2000/svg">
<g clip-path="url(#clip0_1_153)">
<path d="M29.7141 4.52822C29.7094 4.52354 29.7094 4.51416 29.7047 4.50947C29.7 4.50479 29.6906 4.5001 29.6859 4.49541C29.5031 4.31729 29.2547 4.20947 28.9781 4.20947H1.02656C0.754688 4.20947 0.50625 4.31729 0.323438 4.49541C0.314063 4.50479 0.304687 4.50479 0.3 4.51416C0.295312 4.51885 0.290625 4.52822 0.285938 4.53291C0.107813 4.71572 0 4.96416 0 5.24072V24.7595C0 25.0595 0.13125 25.3313 0.342188 25.5188L0.346875 25.5235C0.351563 25.5282 0.360937 25.5329 0.365625 25.5376C0.54375 25.6923 0.773438 25.786 1.02656 25.786H28.9734C29.2266 25.786 29.4563 25.6876 29.6391 25.5376C29.6438 25.5329 29.6484 25.5329 29.6578 25.5282C29.6578 25.5282 29.6578 25.5235 29.6625 25.5235C29.8687 25.336 30.0047 25.0688 30.0047 24.7642V5.24072C30 4.96416 29.8875 4.71572 29.7141 4.52822V4.52822ZM28.4297 5.12354L15.0844 18.2345C15.0375 18.2813 14.9625 18.2813 14.9156 18.2345L1.57031 5.12354H28.4297ZM0.909375 24.3188V5.75166L10.275 14.9532L0.909375 24.3188ZM1.63594 24.8767L10.9266 15.586L14.2828 18.8813C14.4797 19.0735 14.7422 19.172 15 19.172C15.2625 19.172 15.5203 19.0735 15.7219 18.8813L19.0781 15.586L28.3687 24.8767H1.63594ZM29.0906 24.3188L19.725 14.9532L29.0906 5.75166V24.3188V24.3188Z" fill="#1ADB69"/>
</g>
<defs>
<clipPath id="clip0_1_153">
<rect width="30" height="30" fill="white"/>
</clipPath>
</defs>
</svg>
