<svg width="66" height="65" viewBox="0 0 66 65" fill="none" xmlns="http://www.w3.org/2000/svg">
<path d="M23.7572 64.1692H42.7094C58.503 64.1692 64.8204 57.8518 64.8204 42.0583V23.1061C64.8204 7.31253 58.503 0.995117 42.7094 0.995117H23.7572C7.96365 0.995117 1.64624 7.31253 1.64624 23.1061V42.0583C1.64624 57.8518 7.96365 64.1692 23.7572 64.1692Z" fill="#1EA154" stroke="white" stroke-width="1.5" stroke-linecap="round" stroke-linejoin="round"/>
<path d="M53.389 42.9033V18.6128C53.389 16.1806 51.4306 14.4117 49.03 14.6012H48.9036C44.671 14.9487 38.2588 17.1282 34.6579 19.3709L34.3104 19.592C33.7418 19.9395 32.7626 19.9395 32.1625 19.592L31.6571 19.2761C28.0877 17.0335 21.6756 14.9171 17.4429 14.5697C15.0423 14.3801 13.0839 16.1806 13.0839 18.5812V42.9033C13.0839 44.8301 14.6632 46.6622 16.59 46.8833L17.1586 46.9781C21.5176 47.5466 28.2773 49.7893 32.1309 51.9057L32.2257 51.9373C32.7626 52.2531 33.6471 52.2531 34.1525 51.9373C38.0061 49.7893 44.7973 47.5782 49.1879 46.9781L49.8513 46.8833C51.8097 46.6622 53.389 44.8617 53.389 42.9033ZM33.2364 20.2553V50.4527Z" fill="#1EA154"/>
<path d="M33.2364 20.2553V50.4527M53.389 42.9033V18.6128C53.389 16.1806 51.4306 14.4117 49.03 14.6012H48.9036C44.671 14.9487 38.2588 17.1282 34.6579 19.3709L34.3104 19.592C33.7418 19.9395 32.7626 19.9395 32.1625 19.592L31.6571 19.2761C28.0877 17.0335 21.6756 14.9171 17.4429 14.5697C15.0423 14.3801 13.0839 16.1806 13.0839 18.5812V42.9033C13.0839 44.8301 14.6632 46.6622 16.59 46.8833L17.1586 46.9781C21.5176 47.5466 28.2773 49.7893 32.1309 51.9057L32.2257 51.9373C32.7626 52.2531 33.6471 52.2531 34.1525 51.9373C38.0061 49.7893 44.7973 47.5782 49.1879 46.9781L49.8513 46.8833C51.8097 46.6622 53.389 44.8617 53.389 42.9033Z" stroke="white" stroke-width="1.5" stroke-linecap="round" stroke-linejoin="round"/>
</svg>
