<svg width="79" height="88" viewBox="0 0 79 88" fill="none" xmlns="http://www.w3.org/2000/svg">
<path d="M77.7995 22.9378V65.6592C77.7995 78.4756 71.3913 87.0199 56.4388 87.0199H22.2618C7.30932 87.0199 0.901123 78.4756 0.901123 65.6592V22.9378C0.901123 10.1214 7.30932 1.57715 22.2618 1.57715H56.4388C71.3913 1.57715 77.7995 10.1214 77.7995 22.9378Z" fill="#1EA154" stroke="white" stroke-width="1.5" stroke-miterlimit="10" stroke-linecap="round" stroke-linejoin="round"/>
<path d="M50.0337 12.2583V20.8026C50.0337 25.5019 53.8786 29.3469 58.5779 29.3469H67.1222M30.8091 48.5714L22.2648 57.1157L30.8091 65.66M47.8976 48.5714L56.4419 57.1157L47.8976 65.66" fill="#1EA154"/>
<path d="M50.0337 12.2583V20.8026C50.0337 25.5019 53.8786 29.3469 58.5779 29.3469H67.1222M30.8091 48.5714L22.2648 57.1157L30.8091 65.66M47.8976 48.5714L56.4419 57.1157L47.8976 65.66" stroke="white" stroke-width="1.5" stroke-miterlimit="10" stroke-linecap="round" stroke-linejoin="round"/>
</svg>
