<svg width="52" height="52" viewBox="0 0 52 52" fill="none" xmlns="http://www.w3.org/2000/svg">
<path fill-rule="evenodd" clip-rule="evenodd" d="M43.3333 14.4445C43.3333 13.2953 43.7899 12.1931 44.6025 11.3804C45.4152 10.5678 46.5174 10.1112 47.6667 10.1112C48.8159 10.1112 49.9181 10.5678 50.7308 11.3804C51.5434 12.1931 52 13.2953 52 14.4445V43.7711L47.6667 50.2711L43.3333 43.7711V14.4445ZM47.6667 13.0001C47.2836 13.0001 46.9162 13.1523 46.6453 13.4232C46.3744 13.6941 46.2222 14.0615 46.2222 14.4445V42.8958L47.6667 45.0624L49.1111 42.8958V14.4445C49.1111 14.0615 48.9589 13.6941 48.688 13.4232C48.4172 13.1523 48.0498 13.0001 47.6667 13.0001Z" fill="#2F3A5A"/>
<path fill-rule="evenodd" clip-rule="evenodd" d="M50.5556 20.2222H44.7778V17.3333H50.5556V20.2222ZM5.77778 2.88889C5.0116 2.88889 4.2768 3.19325 3.73503 3.73503C3.19325 4.2768 2.88889 5.0116 2.88889 5.77778V46.2222C2.88889 46.9884 3.19325 47.7232 3.73503 48.265C4.2768 48.8067 5.0116 49.1111 5.77778 49.1111H34.6667C35.4328 49.1111 36.1676 48.8067 36.7094 48.265C37.2512 47.7232 37.5556 46.9884 37.5556 46.2222V5.77778C37.5556 5.0116 37.2512 4.2768 36.7094 3.73503C36.1676 3.19325 35.4328 2.88889 34.6667 2.88889H5.77778ZM0 5.77778C0 4.24542 0.608728 2.77582 1.69227 1.69227C2.77582 0.608728 4.24542 0 5.77778 0H34.6667C36.199 0 37.6686 0.608728 38.7522 1.69227C39.8357 2.77582 40.4444 4.24542 40.4444 5.77778V46.2222C40.4444 47.7546 39.8357 49.2242 38.7522 50.3077C37.6686 51.3913 36.199 52 34.6667 52H5.77778C4.24542 52 2.77582 51.3913 1.69227 50.3077C0.608728 49.2242 0 47.7546 0 46.2222V5.77778Z" fill="#2F3A5A"/>
<path fill-rule="evenodd" clip-rule="evenodd" d="M20.2224 12.9999C20.2224 12.6168 20.3746 12.2494 20.6454 11.9786C20.9163 11.7077 21.2837 11.5555 21.6668 11.5555H33.2224C33.6055 11.5555 33.9729 11.7077 34.2438 11.9786C34.5146 12.2494 34.6668 12.6168 34.6668 12.9999C34.6668 13.383 34.5146 13.7504 34.2438 14.0213C33.9729 14.2922 33.6055 14.4444 33.2224 14.4444H21.6668C21.2837 14.4444 20.9163 14.2922 20.6454 14.0213C20.3746 13.7504 20.2224 13.383 20.2224 12.9999ZM20.2224 18.7777C20.2224 18.3946 20.3746 18.0272 20.6454 17.7563C20.9163 17.4854 21.2837 17.3333 21.6668 17.3333H33.2224C33.6055 17.3333 33.9729 17.4854 34.2438 17.7563C34.5146 18.0272 34.6668 18.3946 34.6668 18.7777C34.6668 19.1608 34.5146 19.5282 34.2438 19.7991C33.9729 20.07 33.6055 20.2222 33.2224 20.2222H21.6668C21.2837 20.2222 20.9163 20.07 20.6454 19.7991C20.3746 19.5282 20.2224 19.1608 20.2224 18.7777ZM20.2224 31.7777C20.2224 31.3946 20.3746 31.0272 20.6454 30.7563C20.9163 30.4854 21.2837 30.3333 21.6668 30.3333H33.2224C33.6055 30.3333 33.9729 30.4854 34.2438 30.7563C34.5146 31.0272 34.6668 31.3946 34.6668 31.7777C34.6668 32.1608 34.5146 32.5282 34.2438 32.7991C33.9729 33.07 33.6055 33.2222 33.2224 33.2222H21.6668C21.2837 33.2222 20.9163 33.07 20.6454 32.7991C20.3746 32.5282 20.2224 32.1608 20.2224 31.7777ZM20.2224 37.5555C20.2224 37.1724 20.3746 36.805 20.6454 36.5341C20.9163 36.2632 21.2837 36.111 21.6668 36.111H33.2224C33.6055 36.111 33.9729 36.2632 34.2438 36.5341C34.5146 36.805 34.6668 37.1724 34.6668 37.5555C34.6668 37.9386 34.5146 38.306 34.2438 38.5769C33.9729 38.8478 33.6055 38.9999 33.2224 38.9999H21.6668C21.2837 38.9999 20.9163 38.8478 20.6454 38.5769C20.3746 38.306 20.2224 37.9386 20.2224 37.5555ZM8.66682 31.7777V36.111H13.0002V31.7777H8.66682ZM7.22238 28.8888H14.4446C14.8277 28.8888 15.1951 29.041 15.466 29.3119C15.7369 29.5828 15.889 29.9502 15.889 30.3333V37.5555C15.889 37.9386 15.7369 38.306 15.466 38.5769C15.1951 38.8478 14.8277 38.9999 14.4446 38.9999H7.22238C6.83929 38.9999 6.47189 38.8478 6.201 38.5769C5.93012 38.306 5.77794 37.9386 5.77794 37.5555V30.3333C5.77794 29.9502 5.93012 29.5828 6.201 29.3119C6.47189 29.041 6.83929 28.8888 7.22238 28.8888ZM16.9103 11.9787C17.1811 12.2496 17.3332 12.6169 17.3332 12.9999C17.3332 13.3829 17.1811 13.7503 16.9103 14.0212L10.1113 20.8202L6.20116 16.91C6.0632 16.7768 5.95316 16.6174 5.87746 16.4412C5.80175 16.265 5.76191 16.0754 5.76024 15.8836C5.75857 15.6918 5.79512 15.5016 5.86775 15.3241C5.94038 15.1466 6.04763 14.9853 6.18325 14.8497C6.31888 14.7141 6.48015 14.6068 6.65767 14.5342C6.83519 14.4616 7.02539 14.425 7.21718 14.4267C7.40897 14.4283 7.59851 14.4682 7.77474 14.5439C7.95097 14.6196 8.11036 14.7296 8.2436 14.8676L10.1113 16.7353L14.8678 11.9787C15.1387 11.7079 15.506 11.5558 15.889 11.5558C16.2721 11.5558 16.6394 11.7079 16.9103 11.9787Z" fill="#2F3A5A"/>
</svg>
