<svg width="49" height="49" viewBox="0 0 49 49" fill="none" xmlns="http://www.w3.org/2000/svg">
<path d="M22.1606 12.3978C22.6936 12.3978 23.2048 12.6095 23.5818 12.9864C23.9587 13.3634 24.1704 13.8746 24.1704 14.4076C24.1704 14.9407 23.9587 15.4519 23.5818 15.8288C23.2048 16.2057 22.6936 16.4175 22.1606 16.4175H10.1014V38.5259H32.2099V26.4668C32.2099 25.9337 32.4216 25.4225 32.7985 25.0456C33.1755 24.6687 33.6867 24.4569 34.2197 24.4569C34.7528 24.4569 35.264 24.6687 35.6409 25.0456C36.0178 25.4225 36.2296 25.9337 36.2296 26.4668V38.5259C36.2296 39.592 35.8061 40.6144 35.0522 41.3683C34.2984 42.1221 33.276 42.5456 32.2099 42.5456H10.1014C9.03535 42.5456 8.01292 42.1221 7.25907 41.3683C6.50523 40.6144 6.08173 39.592 6.08173 38.5259V16.4175C6.08173 15.3514 6.50523 14.329 7.25907 13.5751C8.01292 12.8213 9.03535 12.3978 10.1014 12.3978H22.1606ZM40.2493 6.36819C40.7823 6.36819 41.2936 6.57995 41.6705 6.95687C42.0474 7.33379 42.2592 7.845 42.2592 8.37805V18.4273C42.2592 18.9604 42.0474 19.4716 41.6705 19.8485C41.2936 20.2254 40.7823 20.4372 40.2493 20.4372C39.7162 20.4372 39.205 20.2254 38.8281 19.8485C38.4512 19.4716 38.2394 18.9604 38.2394 18.4273V13.2298L21.5717 29.8976C21.1926 30.2637 20.6849 30.4663 20.158 30.4617C19.631 30.4571 19.1269 30.2458 18.7542 29.8731C18.3816 29.5005 18.1702 28.9964 18.1656 28.4694C18.1611 27.9424 18.3636 27.4347 18.7298 27.0557L35.3975 10.3879H30.2C29.667 10.3879 29.1557 10.1762 28.7788 9.79923C28.4019 9.42231 28.1902 8.9111 28.1902 8.37805C28.1902 7.845 28.4019 7.33379 28.7788 6.95687C29.1557 6.57995 29.667 6.36819 30.2 6.36819H40.2493Z" fill="white"/>
</svg>
