<svg width="65" height="63" viewBox="0 0 65 63" fill="none" xmlns="http://www.w3.org/2000/svg">
<path d="M1.63275 59.2369V19.2991C1.63275 4.77627 5.26346 1.14557 19.7863 1.14557H45.2012C59.724 1.14557 63.3547 4.77627 63.3547 19.2991V55.6061C63.3547 56.1144 63.3547 56.6227 63.3184 57.131" fill="#1EA154"/>
<path d="M1.63275 59.2369V19.2991C1.63275 4.77627 5.26346 1.14557 19.7863 1.14557H45.2012C59.724 1.14557 63.3547 4.77627 63.3547 19.2991V55.6061C63.3547 56.1144 63.3547 56.6227 63.3184 57.131" stroke="white" stroke-width="1.5" stroke-linecap="round" stroke-linejoin="round"/>
<path d="M11.9802 36.0176H63.3547V48.7251C63.3547 55.7323 57.6545 61.4325 50.6472 61.4325H14.3402C7.33293 61.4325 1.63272 55.7323 1.63272 48.7251V46.3651C1.63272 40.6649 6.28002 36.0176 11.9802 36.0176ZM17.9709 6.97192H47.0165ZM17.9709 19.6794H36.1244Z" fill="#1EA154"/>
<path d="M17.9709 6.97192H47.0165M17.9709 19.6794H36.1244M11.9802 36.0176H63.3547V48.7251C63.3547 55.7323 57.6545 61.4325 50.6472 61.4325H14.3402C7.33293 61.4325 1.63272 55.7323 1.63272 48.7251V46.3651C1.63272 40.6649 6.28002 36.0176 11.9802 36.0176Z" stroke="white" stroke-width="1.5" stroke-linecap="round" stroke-linejoin="round"/>
</svg>
