<svg width="35" height="34" viewBox="0 0 35 34" fill="none" xmlns="http://www.w3.org/2000/svg">
<path d="M16.0161 8.6327C16.3871 8.6327 16.7429 8.78008 17.0053 9.04241C17.2676 9.30475 17.415 9.66055 17.415 10.0316C17.415 10.4026 17.2676 10.7584 17.0053 11.0207C16.7429 11.283 16.3871 11.4304 16.0161 11.4304H7.62297V26.8178H23.0104V18.4247C23.0104 18.0537 23.1578 17.6979 23.4201 17.4356C23.6824 17.1732 24.0383 17.0258 24.4093 17.0258C24.7803 17.0258 25.1361 17.1732 25.3984 17.4356C25.6607 17.6979 25.8081 18.0537 25.8081 18.4247V26.8178C25.8081 27.5598 25.5134 28.2714 24.9887 28.7961C24.464 29.3208 23.7524 29.6156 23.0104 29.6156H7.62297C6.88097 29.6156 6.16936 29.3208 5.64469 28.7961C5.12001 28.2714 4.82526 27.5598 4.82526 26.8178V11.4304C4.82526 10.6884 5.12001 9.9768 5.64469 9.45213C6.16936 8.92746 6.88097 8.6327 7.62297 8.6327H16.0161ZM28.6058 4.43613C28.9768 4.43613 29.3326 4.58351 29.595 4.84584C29.8573 5.10818 30.0047 5.46398 30.0047 5.83498V12.8293C30.0047 13.2003 29.8573 13.5561 29.595 13.8184C29.3326 14.0807 28.9768 14.2281 28.6058 14.2281C28.2348 14.2281 27.879 14.0807 27.6167 13.8184C27.3543 13.5561 27.207 13.2003 27.207 12.8293V9.21182L15.6062 20.8125C15.3424 21.0674 14.9891 21.2084 14.6223 21.2052C14.2555 21.202 13.9047 21.0549 13.6453 20.7955C13.3859 20.5361 13.2388 20.1853 13.2356 19.8185C13.2325 19.4517 13.3734 19.0984 13.6283 18.8346L25.229 7.23384H21.6115C21.2405 7.23384 20.8847 7.08646 20.6224 6.82412C20.3601 6.56179 20.2127 6.20598 20.2127 5.83498C20.2127 5.46398 20.3601 5.10818 20.6224 4.84584C20.8847 4.58351 21.2405 4.43613 21.6115 4.43613H28.6058Z" fill="white"/>
</svg>
