<svg width="25" height="34" viewBox="0 0 25 34" fill="none" xmlns="http://www.w3.org/2000/svg">
<path d="M12.3802 5.48416C14.3194 5.48416 16.0721 6.16162 17.3378 7.24986C17.9848 7.802 18.4994 8.46451 18.851 9.19766C19.2026 9.93081 19.3838 10.7195 19.3838 11.5164C19.3838 12.3133 19.2026 13.1019 18.851 13.8351C18.4994 14.5682 17.9848 15.2308 17.3378 15.7829C16.0091 16.9205 14.2338 17.5538 12.3883 17.5486C10.54 17.5557 8.76149 16.9222 7.43072 15.7829C6.7838 15.2308 6.2691 14.5682 5.91752 13.8351C5.56593 13.1019 5.3847 12.3133 5.3847 11.5164C5.3847 10.7195 5.56593 9.93081 5.91752 9.19766C6.2691 8.46451 6.7838 7.802 7.43072 7.24986C8.75948 6.11228 10.5347 5.47898 12.3802 5.48416ZM16.1126 8.30929C15.1113 7.45025 13.7723 6.97193 12.3802 6.976C10.9197 6.976 9.60526 7.48049 8.64781 8.30929C8.16241 8.72477 7.7763 9.22292 7.51258 9.77396C7.24886 10.325 7.11294 10.9176 7.11294 11.5164C7.11294 12.1151 7.24886 12.7078 7.51258 13.2588C7.7763 13.8098 8.16241 14.308 8.64781 14.7235C9.60526 15.5523 10.9197 16.0568 12.3802 16.0568C13.8407 16.0568 15.1633 15.5523 16.1126 14.7307C16.5993 14.3151 16.9865 13.8165 17.2509 13.2648C17.5154 12.7131 17.6517 12.1196 17.6517 11.52C17.6517 10.9203 17.5154 10.3269 17.2509 9.77517C16.9865 9.22347 16.5993 8.72487 16.1126 8.30929V8.30929Z" fill="#1ADB69"/>
<path d="M11.6965 33.6147C10.6775 31.8877 9.44431 29.9277 8.15209 27.8855C5.44211 23.568 2.48845 18.8942 0.878712 15.262C0.299454 13.9578 0.0009357 12.5609 0 11.1501C0 8.06622 1.38822 5.28385 3.633 3.26902C5.98278 1.16345 9.12432 -0.00919367 12.3906 7.74773e-05C15.6594 -0.0109793 18.8039 1.16179 21.1556 3.26902C22.8569 4.78896 24.027 6.74822 24.5142 8.89277C25.0014 11.0373 24.7831 13.2682 23.8877 15.2963C22.2632 18.9285 19.3464 23.5749 16.6365 27.8649C15.3516 29.9072 14.1111 31.874 13.0921 33.6216C13.0225 33.7369 12.9208 33.8329 12.7977 33.8994C12.6746 33.966 12.5346 34.0007 12.3921 34C12.2496 33.9993 12.11 33.9632 11.9877 33.8954C11.8653 33.8277 11.7648 33.7308 11.6965 33.6147V33.6147ZM9.52554 27.1865C10.5445 28.797 11.5266 30.3595 12.3906 31.7849C13.2619 30.3458 14.2514 28.7764 15.2704 27.1591C17.9508 22.9101 20.8454 18.3185 22.433 14.7617C22.947 13.6127 23.2105 12.3805 23.2083 11.1364C23.2083 8.45 21.9973 6.01713 20.0405 4.26273C17.9876 2.42453 15.2432 1.40177 12.3906 1.41182C9.40739 1.41182 6.7048 2.50147 4.748 4.26273C3.26358 5.58407 2.24008 7.28808 1.80966 9.15472C1.37923 11.0214 1.56166 12.9649 2.33339 14.7343C3.89883 18.2637 6.83033 22.9033 9.52554 27.1865V27.1865Z" fill="#1ADB69"/>
</svg>
