<svg width="203" height="52" viewBox="0 0 203 52" fill="none" xmlns="http://www.w3.org/2000/svg">
<path d="M13.6194 10.9337C12.5958 10.1441 11.904 9.00726 11.6775 7.74258C11.451 6.4779 11.7059 5.17501 12.3929 4.08534L9.77897 3.90425L11.0457 8.6801L10.5239 9.30096L9.38688 3.88037L8.28101 3.80078L14.676 0L23.7553 0.330329L19.8133 2.54911C19.9018 2.60947 19.9889 2.67281 20.0747 2.73915C20.6278 3.1553 21.092 3.67598 21.4402 4.27099C21.7885 4.86601 22.014 5.52353 22.1036 6.20543C22.1932 6.88733 22.1451 7.58005 21.9621 8.24342C21.7792 8.90679 21.465 9.52763 21.0378 10.0699C20.6106 10.6122 20.0789 11.0652 19.4735 11.4026C18.868 11.74 18.201 11.9551 17.5109 12.0355C16.8209 12.1158 16.1216 12.0598 15.4535 11.8707C14.7855 11.6816 14.1621 11.3631 13.6194 10.9337Z" fill="url(#paint0_linear_1_758)"/>
<path d="M34.3516 2.18799C34.3516 2.18799 32.5751 5.53605 32.8617 16.4091C33.0241 25.0125 33.7261 33.5977 34.9638 42.1151C17.2788 5.47138 34.3516 2.18799 34.3516 2.18799Z" fill="white"/>
<path d="M0.612254 2.18799C0.612254 2.18799 2.3887 5.53605 2.10217 16.4091C1.93976 25.0125 1.23768 33.5977 0 42.1151C17.685 5.47138 0.612254 2.18799 0.612254 2.18799Z" fill="white"/>
<path d="M17.123 37.1779V18.58C23.4949 8.83825 32.5972 7.65723 32.5972 7.65723C32.5972 7.65723 24.7385 18.172 22.585 22.4186C17.87 31.7155 17.1612 37.1928 17.125 37.1928C17.123 37.1919 17.123 37.1879 17.123 37.1779ZM11.661 22.4186C9.50751 18.172 1.64874 7.65723 1.64874 7.65723C1.64874 7.65723 10.7511 8.83825 17.123 18.58V37.1779C17.123 37.1869 17.123 37.1919 17.123 37.1919C17.0848 37.1919 16.376 31.7155 11.661 22.4186Z" fill="url(#paint1_linear_1_758)"/>
<path d="M52.602 44.2214H49.9608V41.6446H49.8964C48.7476 43.6202 47.0566 44.608 44.8233 44.608C43.1806 44.608 41.8922 44.1731 40.9581 43.3035C40.0348 42.4338 39.5731 41.2796 39.5731 39.8409C39.5731 36.7595 41.3876 34.9664 45.0166 34.4618L49.9608 33.7693C49.9608 30.967 48.8281 29.5659 46.5627 29.5659C44.5764 29.5659 42.7834 30.2423 41.1836 31.5951V28.8895C42.8048 27.8588 44.673 27.3434 46.7881 27.3434C50.6641 27.3434 52.602 29.3941 52.602 33.4955V44.2214ZM49.9608 35.8791L45.9829 36.4266C44.7589 36.5984 43.8356 36.9044 43.2128 37.3446C42.5901 37.7741 42.2787 38.5417 42.2787 39.6476C42.2787 40.4529 42.5633 41.1132 43.1323 41.6285C43.7121 42.1332 44.4798 42.3855 45.4353 42.3855C46.7452 42.3855 47.8242 41.9292 48.6724 41.0165C49.5314 40.0932 49.9608 38.9283 49.9608 37.5218V35.8791ZM66.1785 30.4034C65.7169 30.0491 65.0512 29.8719 64.1815 29.8719C63.0542 29.8719 62.1093 30.4034 61.347 31.4663C60.5955 32.5292 60.2197 33.9787 60.2197 35.8146V44.2214H57.5785V27.7299H60.2197V31.1281H60.2841C60.6599 29.9685 61.2343 29.0666 62.0073 28.4224C62.7804 27.7675 63.6447 27.44 64.6002 27.44C65.2874 27.44 65.8135 27.5152 66.1785 27.6655V30.4034ZM83.121 42.9008C83.121 48.9563 80.2221 51.984 74.4243 51.984C72.3843 51.984 70.602 51.5975 69.0774 50.8245V48.1833C70.9349 49.214 72.7064 49.7293 74.3921 49.7293C78.4505 49.7293 80.4798 47.5713 80.4798 43.2551V41.4514H80.4153C79.1592 43.5558 77.2695 44.608 74.7464 44.608C72.6957 44.608 71.0422 43.8779 69.7861 42.4177C68.5406 40.9468 67.9179 38.9766 67.9179 36.5071C67.9179 33.7049 68.5889 31.477 69.931 29.8236C71.2838 28.1701 73.1305 27.3434 75.4711 27.3434C77.6936 27.3434 79.3417 28.2346 80.4153 30.0168H80.4798V27.7299H83.121V42.9008ZM80.4798 36.7648V34.333C80.4798 33.0231 80.0342 31.9011 79.143 30.967C78.2626 30.0329 77.1621 29.5659 75.8415 29.5659C74.2096 29.5659 72.9319 30.1618 72.0085 31.3536C71.0852 32.5346 70.6235 34.1934 70.6235 36.33C70.6235 38.166 71.0637 39.6369 71.9441 40.7428C72.8353 41.8379 74.0109 42.3855 75.4711 42.3855C76.9528 42.3855 78.1553 41.8594 79.0786 40.8072C80.0127 39.755 80.4798 38.4075 80.4798 36.7648ZM102.544 44.2214H99.9024V41.4192H99.8379C98.614 43.545 96.7243 44.608 94.169 44.608C92.0968 44.608 90.438 43.8725 89.1926 42.4016C87.9578 40.9199 87.3405 38.9068 87.3405 36.3622C87.3405 33.6351 88.0276 31.4502 89.4019 29.8075C90.7762 28.1648 92.6068 27.3434 94.8937 27.3434C97.1592 27.3434 98.8072 28.2346 99.8379 30.0168H99.9024V19.8063H102.544V44.2214ZM99.9024 36.7648V34.333C99.9024 33.0016 99.4622 31.8743 98.5818 30.9509C97.7014 30.0276 96.5847 29.5659 95.2319 29.5659C93.6214 29.5659 92.3545 30.1564 91.4311 31.3375C90.5078 32.5185 90.0461 34.1505 90.0461 36.2334C90.0461 38.1338 90.4863 39.6369 91.3667 40.7428C92.2579 41.8379 93.4496 42.3855 94.942 42.3855C96.413 42.3855 97.6047 41.854 98.5173 40.7911C99.4407 39.7281 99.9024 38.3861 99.9024 36.7648ZM119.695 44.2214H117.054V41.6446H116.99C115.841 43.6202 114.15 44.608 111.917 44.608C110.274 44.608 108.986 44.1731 108.051 43.3035C107.128 42.4338 106.666 41.2796 106.666 39.8409C106.666 36.7595 108.481 34.9664 112.11 34.4618L117.054 33.7693C117.054 30.967 115.921 29.5659 113.656 29.5659C111.67 29.5659 109.877 30.2423 108.277 31.5951V28.8895C109.898 27.8588 111.766 27.3434 113.881 27.3434C117.757 27.3434 119.695 29.3941 119.695 33.4955V44.2214ZM117.054 35.8791L113.076 36.4266C111.852 36.5984 110.929 36.9044 110.306 37.3446C109.683 37.7741 109.372 38.5417 109.372 39.6476C109.372 40.4529 109.657 41.1132 110.226 41.6285C110.805 42.1332 111.573 42.3855 112.529 42.3855C113.839 42.3855 114.918 41.9292 115.766 41.0165C116.625 40.0932 117.054 38.9283 117.054 37.5218V35.8791ZM133.272 30.4034C132.81 30.0491 132.145 29.8719 131.275 29.8719C130.148 29.8719 129.203 30.4034 128.44 31.4663C127.689 32.5292 127.313 33.9787 127.313 35.8146V44.2214H124.672V27.7299H127.313V31.1281H127.377C127.753 29.9685 128.328 29.0666 129.101 28.4224C129.874 27.7675 130.738 27.44 131.694 27.44C132.381 27.44 132.907 27.5152 133.272 27.6655V30.4034ZM135.14 43.6256V40.7911C136.579 41.854 138.162 42.3855 139.891 42.3855C142.21 42.3855 143.37 41.6124 143.37 40.0664C143.37 39.6261 143.268 39.2557 143.064 38.9551C142.87 38.6437 142.602 38.37 142.258 38.1338C141.926 37.8975 141.528 37.6882 141.067 37.5057C140.616 37.3124 140.127 37.1138 139.601 36.9098C138.871 36.6199 138.227 36.33 137.669 36.0401C137.121 35.7395 136.659 35.4066 136.284 35.0416C135.918 34.6658 135.639 34.2417 135.446 33.7693C135.264 33.2969 135.172 32.744 135.172 32.1105C135.172 31.3375 135.349 30.6557 135.704 30.0652C136.058 29.4639 136.53 28.9646 137.121 28.5674C137.711 28.1594 138.383 27.8534 139.134 27.6494C139.896 27.4454 140.68 27.3434 141.485 27.3434C142.913 27.3434 144.191 27.5904 145.318 28.0842V30.7577C144.105 29.9632 142.709 29.5659 141.131 29.5659C140.637 29.5659 140.192 29.625 139.794 29.7431C139.397 29.8504 139.054 30.0061 138.764 30.2101C138.485 30.4141 138.264 30.661 138.103 30.9509C137.953 31.2301 137.878 31.5414 137.878 31.885C137.878 32.3145 137.953 32.6742 138.103 32.9641C138.264 33.2539 138.495 33.5116 138.796 33.7371C139.097 33.9626 139.462 34.1666 139.891 34.3491C140.321 34.5316 140.809 34.7302 141.357 34.945C142.087 35.2241 142.742 35.514 143.321 35.8146C143.901 36.1045 144.395 36.4374 144.803 36.8131C145.211 37.1782 145.522 37.6023 145.737 38.0854C145.963 38.5686 146.075 39.143 146.075 39.8087C146.075 40.6247 145.893 41.3333 145.528 41.9345C145.173 42.5358 144.696 43.035 144.094 43.4323C143.493 43.8295 142.801 44.1248 142.017 44.3181C141.233 44.5113 140.412 44.608 139.553 44.608C137.856 44.608 136.386 44.2805 135.14 43.6256ZM163.839 44.2214H161.198V34.7195C161.198 31.2838 159.92 29.5659 157.365 29.5659C156.077 29.5659 154.992 30.0652 154.112 31.0637C153.231 32.0514 152.791 33.3237 152.791 34.8805V44.2214H150.15V19.8063H152.791V30.4678H152.856C154.122 28.3849 155.926 27.3434 158.267 27.3434C161.982 27.3434 163.839 29.582 163.839 34.0592V44.2214ZM180.637 44.2214H177.995V41.6446H177.931C176.782 43.6202 175.091 44.608 172.858 44.608C171.215 44.608 169.927 44.1731 168.993 43.3035C168.069 42.4338 167.608 41.2796 167.608 39.8409C167.608 36.7595 169.422 34.9664 173.051 34.4618L177.995 33.7693C177.995 30.967 176.863 29.5659 174.597 29.5659C172.611 29.5659 170.818 30.2423 169.218 31.5951V28.8895C170.839 27.8588 172.708 27.3434 174.823 27.3434C178.699 27.3434 180.637 29.3941 180.637 33.4955V44.2214ZM177.995 35.8791L174.017 36.4266C172.794 36.5984 171.87 36.9044 171.247 37.3446C170.625 37.7741 170.313 38.5417 170.313 39.6476C170.313 40.4529 170.598 41.1132 171.167 41.6285C171.747 42.1332 172.514 42.3855 173.47 42.3855C174.78 42.3855 175.859 41.9292 176.707 41.0165C177.566 40.0932 177.995 38.9283 177.995 37.5218V35.8791ZM199.302 44.2214H196.661V34.8161C196.661 31.316 195.383 29.5659 192.828 29.5659C191.508 29.5659 190.412 30.0652 189.543 31.0637C188.684 32.0514 188.254 33.3023 188.254 34.8161V44.2214H185.613V27.7299H188.254V30.4678H188.319C189.564 28.3849 191.368 27.3434 193.73 27.3434C195.534 27.3434 196.913 27.9286 197.869 29.0989C198.825 30.2584 199.302 31.9387 199.302 34.1397V44.2214Z" fill="black"/>
<path d="M51.4972 43.6741H48.856V41.0973H48.7915C47.6427 43.0728 45.9517 44.0606 43.7185 44.0606C42.0758 44.0606 40.7874 43.6258 39.8533 42.7561C38.9299 41.8864 38.4682 40.7322 38.4682 39.2935C38.4682 36.2121 40.2827 34.4191 43.9117 33.9145L48.856 33.2219C48.856 30.4197 47.7232 29.0185 45.4578 29.0185C43.4715 29.0185 41.6785 29.6949 40.0787 31.0478V28.3421C41.7 27.3114 43.5682 26.7961 45.6833 26.7961C49.5592 26.7961 51.4972 28.8468 51.4972 32.9482V43.6741ZM48.856 35.3317L44.878 35.8793C43.6541 36.051 42.7307 36.357 42.108 36.7972C41.4852 37.2267 41.1739 37.9944 41.1739 39.1003C41.1739 39.9055 41.4584 40.5658 42.0274 41.0812C42.6072 41.5858 43.3749 41.8381 44.3305 41.8381C45.6403 41.8381 46.7194 41.3818 47.5676 40.4692C48.4265 39.5458 48.856 38.3809 48.856 36.9744V35.3317ZM65.0737 29.856C64.612 29.5017 63.9463 29.3245 63.0767 29.3245C61.9493 29.3245 61.0045 29.856 60.2422 30.9189C59.4906 31.9819 59.1148 33.4313 59.1148 35.2673V43.6741H56.4736V27.1826H59.1148V30.5807H59.1793C59.555 29.4212 60.1294 28.5193 60.9025 27.8751C61.6755 27.2201 62.5398 26.8927 63.4954 26.8927C64.1825 26.8927 64.7086 26.9678 65.0737 27.1182V29.856ZM82.0161 42.3535C82.0161 48.4089 79.1172 51.4367 73.3194 51.4367C71.2795 51.4367 69.4972 51.0502 67.9726 50.2771V47.6359C69.83 48.6666 71.6016 49.182 73.2872 49.182C77.3457 49.182 79.3749 47.0239 79.3749 42.7078V40.904H79.3105C78.0543 43.0084 76.1646 44.0606 73.6415 44.0606C71.5908 44.0606 69.9374 43.3305 68.6812 41.8703C67.4357 40.3994 66.813 38.4292 66.813 35.9598C66.813 33.1575 67.4841 30.9297 68.8261 29.2762C70.179 27.6228 72.0257 26.7961 74.3663 26.7961C76.5887 26.7961 78.2368 27.6872 79.3105 29.4695H79.3749V27.1826H82.0161V42.3535ZM79.3749 36.2175V33.7856C79.3749 32.4757 78.9293 31.3538 78.0382 30.4197C77.1578 29.4856 76.0573 29.0185 74.7367 29.0185C73.1047 29.0185 71.827 29.6144 70.9037 30.8062C69.9803 31.9872 69.5187 33.646 69.5187 35.7826C69.5187 37.6186 69.9589 39.0895 70.8393 40.1954C71.7304 41.2905 72.9061 41.8381 74.3663 41.8381C75.8479 41.8381 77.0504 41.312 77.9738 40.2598C78.9079 39.2076 79.3749 37.8602 79.3749 36.2175ZM101.439 43.6741H98.7975V40.8718H98.7331C97.5091 42.9977 95.6195 44.0606 93.0641 44.0606C90.992 44.0606 89.3331 43.3251 88.0877 41.8542C86.853 40.3726 86.2356 38.3594 86.2356 35.8148C86.2356 33.0877 86.9228 30.9028 88.2971 29.2601C89.6714 27.6174 91.502 26.7961 93.7889 26.7961C96.0543 26.7961 97.7024 27.6872 98.7331 29.4695H98.7975V19.2589H101.439V43.6741ZM98.7975 36.2175V33.7856C98.7975 32.4543 98.3573 31.3269 97.4769 30.4036C96.5965 29.4802 95.4799 29.0185 94.1271 29.0185C92.5166 29.0185 91.2496 29.6091 90.3263 30.7901C89.4029 31.9711 88.9413 33.6031 88.9413 35.686C88.9413 37.5864 89.3815 39.0895 90.2619 40.1954C91.153 41.2905 92.3448 41.8381 93.8372 41.8381C95.3081 41.8381 96.4999 41.3066 97.4125 40.2437C98.3358 39.1808 98.7975 37.8387 98.7975 36.2175ZM118.591 43.6741H115.949V41.0973H115.885C114.736 43.0728 113.045 44.0606 110.812 44.0606C109.169 44.0606 107.881 43.6258 106.947 42.7561C106.023 41.8864 105.562 40.7322 105.562 39.2935C105.562 36.2121 107.376 34.4191 111.005 33.9145L115.949 33.2219C115.949 30.4197 114.817 29.0185 112.551 29.0185C110.565 29.0185 108.772 29.6949 107.172 31.0478V28.3421C108.793 27.3114 110.662 26.7961 112.777 26.7961C116.653 26.7961 118.591 28.8468 118.591 32.9482V43.6741ZM115.949 35.3317L111.971 35.8793C110.747 36.051 109.824 36.357 109.201 36.7972C108.579 37.2267 108.267 37.9944 108.267 39.1003C108.267 39.9055 108.552 40.5658 109.121 41.0812C109.701 41.5858 110.468 41.8381 111.424 41.8381C112.734 41.8381 113.813 41.3818 114.661 40.4692C115.52 39.5458 115.949 38.3809 115.949 36.9744V35.3317ZM132.167 29.856C131.705 29.5017 131.04 29.3245 130.17 29.3245C129.043 29.3245 128.098 29.856 127.336 30.9189C126.584 31.9819 126.208 33.4313 126.208 35.2673V43.6741H123.567V27.1826H126.208V30.5807H126.273C126.648 29.4212 127.223 28.5193 127.996 27.8751C128.769 27.2201 129.633 26.8927 130.589 26.8927C131.276 26.8927 131.802 26.9678 132.167 27.1182V29.856ZM134.035 43.0782V40.2437C135.474 41.3066 137.058 41.8381 138.786 41.8381C141.105 41.8381 142.265 41.0651 142.265 39.519C142.265 39.0788 142.163 38.7084 141.959 38.4077C141.766 38.0964 141.497 37.8226 141.154 37.5864C140.821 37.3502 140.424 37.1408 139.962 36.9583C139.511 36.765 139.022 36.5664 138.496 36.3624C137.766 36.0725 137.122 35.7826 136.564 35.4927C136.016 35.1921 135.554 34.8593 135.179 34.4942C134.814 34.1185 134.534 33.6944 134.341 33.2219C134.159 32.7495 134.067 32.1966 134.067 31.5631C134.067 30.7901 134.245 30.1083 134.599 29.5178C134.953 28.9165 135.426 28.4173 136.016 28.02C136.607 27.612 137.278 27.306 138.029 27.102C138.792 26.8981 139.575 26.7961 140.381 26.7961C141.809 26.7961 143.086 27.043 144.214 27.5369V30.2103C143 29.4158 141.605 29.0185 140.026 29.0185C139.532 29.0185 139.087 29.0776 138.69 29.1957C138.292 29.3031 137.949 29.4587 137.659 29.6627C137.38 29.8667 137.16 30.1137 136.999 30.4036C136.848 30.6827 136.773 30.9941 136.773 31.3377C136.773 31.7671 136.848 32.1268 136.999 32.4167C137.16 32.7066 137.39 32.9643 137.691 33.1897C137.992 33.4152 138.357 33.6192 138.786 33.8017C139.216 33.9842 139.704 34.1829 140.252 34.3976C140.982 34.6768 141.637 34.9666 142.217 35.2673C142.796 35.5572 143.29 35.89 143.698 36.2658C144.106 36.6308 144.418 37.0549 144.632 37.5381C144.858 38.0212 144.97 38.5956 144.97 39.2613C144.97 40.0773 144.788 40.7859 144.423 41.3872C144.069 41.9884 143.591 42.4877 142.99 42.8849C142.388 43.2822 141.696 43.5774 140.912 43.7707C140.128 43.964 139.307 44.0606 138.448 44.0606C136.752 44.0606 135.281 43.7331 134.035 43.0782ZM162.734 43.6741H160.093V34.1721C160.093 30.7364 158.815 29.0185 156.26 29.0185C154.972 29.0185 153.887 29.5178 153.007 30.5163C152.126 31.5041 151.686 32.7764 151.686 34.3332V43.6741H149.045V19.2589H151.686V29.9204H151.751C153.018 27.8375 154.821 26.7961 157.162 26.7961C160.877 26.7961 162.734 29.0346 162.734 33.5118V43.6741ZM179.532 43.6741H176.891V41.0973H176.826C175.677 43.0728 173.986 44.0606 171.753 44.0606C170.11 44.0606 168.822 43.6258 167.888 42.7561C166.965 41.8864 166.503 40.7322 166.503 39.2935C166.503 36.2121 168.317 34.4191 171.946 33.9145L176.891 33.2219C176.891 30.4197 175.758 29.0185 173.492 29.0185C171.506 29.0185 169.713 29.6949 168.113 31.0478V28.3421C169.735 27.3114 171.603 26.7961 173.718 26.7961C177.594 26.7961 179.532 28.8468 179.532 32.9482V43.6741ZM176.891 35.3317L172.913 35.8793C171.689 36.051 170.765 36.357 170.143 36.7972C169.52 37.2267 169.208 37.9944 169.208 39.1003C169.208 39.9055 169.493 40.5658 170.062 41.0812C170.642 41.5858 171.41 41.8381 172.365 41.8381C173.675 41.8381 174.754 41.3818 175.602 40.4692C176.461 39.5458 176.891 38.3809 176.891 36.9744V35.3317ZM198.197 43.6741H195.556V34.2688C195.556 30.7686 194.279 29.0185 191.723 29.0185C190.403 29.0185 189.308 29.5178 188.438 30.5163C187.579 31.5041 187.149 32.7549 187.149 34.2688V43.6741H184.508V27.1826H187.149V29.9204H187.214C188.459 27.8375 190.263 26.7961 192.625 26.7961C194.429 26.7961 195.809 27.3812 196.764 28.5515C197.72 29.7111 198.197 31.3913 198.197 33.5924V43.6741Z" fill="#23D2AC"/>
<defs>
<linearGradient id="paint0_linear_1_758" x1="23.7553" y1="0" x2="12.0471" y2="15.0089" gradientUnits="userSpaceOnUse">
<stop stop-color="#38EF7D"/>
<stop offset="0.474" stop-color="#21CFB3"/>
<stop offset="1" stop-color="#30F6C5"/>
</linearGradient>
<linearGradient id="paint1_linear_1_758" x1="18.8252" y1="35.1844" x2="18.8252" y2="9.0454" gradientUnits="userSpaceOnUse">
<stop stop-color="#38EF7D"/>
<stop offset="0.652" stop-color="#21CFB3"/>
<stop offset="1" stop-color="#30F6C5"/>
</linearGradient>
</defs>
</svg>
