<svg width="31" height="31" viewBox="0 0 31 31" fill="none" xmlns="http://www.w3.org/2000/svg">
<g clip-path="url(#clip0_1_74)">
<path d="M14.2083 7.75C14.5509 7.75 14.8794 7.88609 15.1217 8.12832C15.3639 8.37055 15.5 8.6991 15.5 9.04167C15.5 9.38424 15.3639 9.71278 15.1217 9.95501C14.8794 10.1972 14.5509 10.3333 14.2083 10.3333H6.45833V24.5417H20.6667V16.7917C20.6667 16.4491 20.8028 16.1206 21.045 15.8783C21.2872 15.6361 21.6158 15.5 21.9583 15.5C22.3009 15.5 22.6294 15.6361 22.8717 15.8783C23.1139 16.1206 23.25 16.4491 23.25 16.7917V24.5417C23.25 25.2268 22.9778 25.8839 22.4934 26.3684C22.0089 26.8528 21.3518 27.125 20.6667 27.125H6.45833C5.77319 27.125 5.11611 26.8528 4.63164 26.3684C4.14717 25.8839 3.875 25.2268 3.875 24.5417V10.3333C3.875 9.64819 4.14717 8.99111 4.63164 8.50664C5.11611 8.02217 5.77319 7.75 6.45833 7.75H14.2083ZM25.8333 3.875C26.1759 3.875 26.5044 4.01109 26.7467 4.25332C26.9889 4.49555 27.125 4.8241 27.125 5.16667V11.625C27.125 11.9676 26.9889 12.2961 26.7467 12.5383C26.5044 12.7806 26.1759 12.9167 25.8333 12.9167C25.4908 12.9167 25.1622 12.7806 24.92 12.5383C24.6778 12.2961 24.5417 11.9676 24.5417 11.625V8.28475L13.8299 18.9965C13.5863 19.2318 13.26 19.362 12.9213 19.3591C12.5826 19.3561 12.2587 19.2203 12.0192 18.9808C11.7797 18.7413 11.6439 18.4174 11.6409 18.0787C11.638 17.74 11.7682 17.4137 12.0035 17.1701L22.7152 6.45833H19.375C19.0324 6.45833 18.7039 6.32225 18.4617 6.08001C18.2194 5.83778 18.0833 5.50924 18.0833 5.16667C18.0833 4.8241 18.2194 4.49555 18.4617 4.25332C18.7039 4.01109 19.0324 3.875 19.375 3.875H25.8333Z" fill="white"/>
</g>
<defs>
<clipPath id="clip0_1_74">
<rect width="31" height="31" fill="white"/>
</clipPath>
</defs>
</svg>
