<svg width="82" height="92" viewBox="0 0 82 92" fill="none" xmlns="http://www.w3.org/2000/svg">
<path d="M10.098 51.0281V11.4048C10.098 8.7776 11.026 6.25802 12.6779 4.40031C14.3299 2.54261 16.5703 1.49896 18.9065 1.49896H71.7576C74.0937 1.49896 76.3342 2.54261 77.9861 4.40031C79.6381 6.25802 80.5661 8.7776 80.5661 11.4048V75.7927C80.5661 80.7456 77.9235 90.6514 67.3533 90.6514M67.3533 90.6514H14.5022C10.098 90.6514 1.28947 87.6797 1.28947 75.7927V65.8868H54.1406V75.7927C54.1406 87.6797 62.9491 90.6514 67.3533 90.6514Z" fill="#1EA154"/>
<path d="M10.098 51.0281V11.4048C10.098 8.7776 11.026 6.25802 12.6779 4.40031C14.3299 2.54261 16.5703 1.49896 18.9065 1.49896H71.7576C74.0937 1.49896 76.3342 2.54261 77.9861 4.40031C79.6381 6.25802 80.5661 8.7776 80.5661 11.4048V75.7927C80.5661 80.7456 77.9235 90.6514 67.3533 90.6514M67.3533 90.6514H14.5022C10.098 90.6514 1.28947 87.6797 1.28947 75.7927V65.8868H54.1406V75.7927C54.1406 87.6797 62.9491 90.6514 67.3533 90.6514Z" stroke="white" stroke-width="2" stroke-linecap="round" stroke-linejoin="round"/>
</svg>
