<svg width="93" height="87" viewBox="0 0 93 87" fill="none" xmlns="http://www.w3.org/2000/svg">
<path d="M91.7395 64.6746V9.89637C91.7395 4.45031 87.2919 0.411154 81.8912 0.864992H81.6189C72.0883 1.6819 57.6108 6.53797 49.5325 11.621L48.7609 12.1202C47.4448 12.9371 45.2664 12.9371 43.9502 12.1202L42.8156 11.4394C34.7373 6.40182 20.3052 1.59113 10.7746 0.819608C5.3739 0.36577 0.971664 4.45031 0.971664 9.85099V64.6746C0.971664 69.0315 4.51161 73.116 8.86847 73.6606L10.1846 73.8422C20.0329 75.1583 35.2365 80.1505 43.9502 84.9158L44.1318 85.0066C45.3571 85.6874 47.3086 85.6874 48.4886 85.0066C57.2023 80.1959 72.4513 75.1583 82.345 73.8422L83.8427 73.6606C88.1996 73.116 91.7395 69.0315 91.7395 64.6746ZM46.3556 13.6178V81.6936ZM27.0674 27.233H16.856ZM30.4712 40.8481H16.856Z" fill="#1EA154"/>
<path d="M46.3556 13.6178V81.6936M27.0674 27.233H16.856M30.4712 40.8481H16.856M91.7395 64.6746V9.89637C91.7395 4.45031 87.2919 0.411154 81.8912 0.864992H81.6189C72.0883 1.6819 57.6108 6.53797 49.5325 11.621L48.7609 12.1202C47.4448 12.9371 45.2664 12.9371 43.9502 12.1202L42.8156 11.4394C34.7373 6.40182 20.3052 1.59113 10.7746 0.819608C5.3739 0.36577 0.971664 4.45031 0.971664 9.85099V64.6746C0.971664 69.0315 4.51161 73.116 8.86847 73.6606L10.1846 73.8422C20.0329 75.1583 35.2365 80.1505 43.9502 84.9158L44.1318 85.0066C45.3571 85.6874 47.3086 85.6874 48.4886 85.0066C57.2023 80.1959 72.4513 75.1583 82.345 73.8422L83.8427 73.6606C88.1996 73.116 91.7395 69.0315 91.7395 64.6746Z" stroke="#D9D9D9" stroke-width="1.5" stroke-linecap="round" stroke-linejoin="round"/>
</svg>
