<svg width="30" height="30" viewBox="0 0 30 30" fill="none" xmlns="http://www.w3.org/2000/svg">
<path d="M24.6291 23.9817L22.1663 19.9023C22.0894 19.7747 21.9476 19.5383 21.664 19.4272C21.2858 19.283 20.9384 19.4745 20.7895 19.556L18.3208 20.9044C17.9166 21.123 17.4676 21.3263 17.1911 21.1774C17.0339 21.0935 16.9133 20.8891 16.7715 20.6303L14.0452 15.6515L11.4785 10.6107C11.3497 10.3578 11.2445 10.1344 11.2634 9.95601C11.2959 9.64224 11.7172 9.38701 12.1243 9.179L14.6302 7.89738C14.7821 7.81998 15.1366 7.63799 15.23 7.24799C15.2991 6.95847 15.1839 6.70494 15.1219 6.56789L13.1383 2.2326C12.9144 1.74392 12.6077 1.07508 11.9701 0.728787C11.2073 0.314587 10.3021 0.553298 9.76201 0.698084C8.58381 1.01185 7.54032 1.33271 6.70301 2.08254C5.2783 3.36058 4.98639 5.42215 4.8245 7.25449C4.67203 8.97808 4.89657 11.019 5.49158 13.3205C5.99385 15.2662 6.76196 17.1688 7.77651 18.9793C8.69947 20.8335 9.83631 22.5388 11.1593 24.0503C12.7488 25.8643 14.2649 27.1618 15.7948 28.0187C17.1059 28.7537 18.5926 29.5029 20.1064 29.5029C20.4456 29.5029 20.786 29.4663 21.1263 29.3824C22.2183 29.113 23.0704 28.4323 23.9933 27.6358C24.4163 27.2695 25.1254 26.6573 25.2128 25.7946C25.285 25.0702 24.9056 24.4414 24.6291 23.9817V23.9817ZM23.3599 26.903C22.5338 27.6168 21.7787 28.2243 20.8947 28.4417C19.3773 28.8163 17.7098 27.982 16.2675 27.1748C14.8553 26.3831 13.3816 25.1174 11.8873 23.4121C10.686 22.0401 9.64377 20.4991 8.78403 18.8257C8.77294 18.7844 8.75665 18.7447 8.73557 18.7075C8.70085 18.6475 8.66657 18.5872 8.63274 18.5267C8.60054 18.4623 8.56882 18.3977 8.53758 18.3329C8.51864 18.294 8.4946 18.2578 8.4661 18.2253C7.56914 16.5721 6.8843 14.8431 6.42873 13.0782C5.86149 10.8837 5.6458 8.95324 5.78883 7.33957C5.9342 5.69162 6.18709 3.84568 7.34936 2.80336C8.02653 2.1965 8.95535 1.91467 10.0107 1.634C10.5537 1.48922 11.1174 1.3681 11.508 1.57963C11.8354 1.75746 12.0415 2.16281 12.2578 2.63554L14.2502 7.00336C14.2337 7.0122 14.2136 7.02345 14.1894 7.03588L11.6834 8.31691C11.2645 8.53142 10.3924 8.9775 10.3002 9.855C10.25 10.333 10.4615 10.7478 10.6157 11.0504L13.2056 16.1355L15.9224 21.0959C16.0861 21.3937 16.3095 21.8026 16.7326 22.0307C17.5031 22.4466 18.3693 21.9787 18.7829 21.7553L21.2528 20.4069C21.3391 20.3596 21.3769 20.3454 21.3356 20.401L23.7996 24.4828C24.0678 24.9271 24.2865 25.3254 24.2486 25.6976C24.2048 26.1396 23.7853 26.5355 23.3599 26.903V26.903Z" fill="#1ADB69"/>
</svg>

