<svg width="53" height="50" viewBox="0 0 53 50" fill="none" xmlns="http://www.w3.org/2000/svg">
<path d="M51.9357 8.25941L26.9941 0.0789361C26.6737 -0.026312 26.3272 -0.026312 26.0068 0.0789361L1.06522 8.25941C0.755045 8.36129 0.485292 8.55657 0.294127 8.81762C0.102962 9.07866 6.65633e-05 9.39224 0 9.71399V30.1652C0 30.572 0.164235 30.9621 0.456577 31.2498C0.748918 31.5374 1.14542 31.699 1.55885 31.699C1.97228 31.699 2.36878 31.5374 2.66113 31.2498C2.95347 30.9621 3.1177 30.572 3.1177 30.1652V11.8409L13.1671 15.1387C11.8998 16.9815 11.0411 19.0662 10.6467 21.2571C10.2524 23.448 10.3313 25.6961 10.8783 27.8551C11.4253 30.014 12.4282 32.0355 13.8216 33.7878C15.2151 35.5402 16.9679 36.9843 18.966 38.0261C13.9647 39.6954 9.61292 43.0341 6.49521 47.7404C6.316 48.0781 6.27095 48.4694 6.36884 48.838C6.46673 49.2067 6.70054 49.5262 7.02475 49.7346C7.34896 49.9429 7.74037 50.025 8.12274 49.965C8.50512 49.9049 8.85109 49.707 9.0933 49.4097C13.1125 43.3536 19.4545 39.8795 26.5005 39.8795C33.5465 39.8795 39.8884 43.3536 43.9076 49.4097C44.1484 49.7133 44.4963 49.9167 44.8824 49.9795C45.2685 50.0423 45.6645 49.9599 45.9917 49.7487C46.3189 49.5375 46.5534 49.2129 46.6486 48.8394C46.7439 48.466 46.6929 48.0709 46.5057 47.7327C43.388 43.0341 39.0414 39.6954 34.0349 38.0184C36.032 36.9755 37.7836 35.5306 39.1757 33.7777C40.5679 32.0248 41.5694 30.0032 42.1151 27.8443C42.6609 25.6854 42.7387 23.4377 42.3434 21.2473C41.9481 19.057 41.0886 16.973 39.8209 15.131L51.9357 11.1686C52.2457 11.0665 52.5153 10.8712 52.7063 10.6102C52.8972 10.3491 53 10.0356 53 9.71399C53 9.39236 52.8972 9.07886 52.7063 8.81783C52.5153 8.5568 52.2457 8.36145 51.9357 8.25941ZM39.4909 24.0298C39.4918 26.0666 38.9981 28.0741 38.0508 29.885C37.1034 31.696 35.73 33.258 34.0449 34.4409C32.3598 35.6237 30.4119 36.3933 28.3633 36.6853C26.3147 36.9774 24.2248 36.7836 22.2678 36.1199C20.3108 35.4563 18.5433 34.3421 17.1126 32.8702C15.6818 31.3983 14.6293 29.6112 14.0427 27.658C13.456 25.7047 13.3522 23.6418 13.74 21.6411C14.1277 19.6404 14.9958 17.7599 16.2718 16.1561L26.0068 19.3491C26.3272 19.4543 26.6737 19.4543 26.9941 19.3491L36.7291 16.1561C38.5213 18.4015 39.494 21.1747 39.4909 24.0298ZM26.5005 16.2788L6.49521 9.71399L26.5005 3.14917L46.5057 9.71399L26.5005 16.2788Z" fill="#2F3A5A"/>
</svg>
