<svg width="57" height="57" viewBox="0 0 57 57" fill="none" xmlns="http://www.w3.org/2000/svg">
<path d="M22.6667 41.0833L39.6666 28.3333L22.6667 15.5833V41.0833ZM28.3333 0C12.6933 0 0 12.6933 0 28.3333C0 43.9733 12.6933 56.6666 28.3333 56.6666C43.9733 56.6666 56.6666 43.9733 56.6666 28.3333C56.6666 12.6933 43.9733 0 28.3333 0ZM28.3333 51C15.8383 51 5.66666 40.8283 5.66666 28.3333C5.66666 15.8383 15.8383 5.66666 28.3333 5.66666C40.8283 5.66666 51 15.8383 51 28.3333C51 40.8283 40.8283 51 28.3333 51Z" fill="#1EA154"/>
</svg>
