<svg width="36" height="41" viewBox="0 0 36 41" fill="none" xmlns="http://www.w3.org/2000/svg">
<path d="M20.0341 0C11.6563 0 4.90076 6.65684 4.47854 15.0287L0.211872 20.7378C-0.321462 21.4373 0.211872 22.5656 1.14521 22.5656H4.47854V29.3352C4.47854 31.84 6.45632 33.8484 8.92298 33.8484H11.1452V40.618H26.7008V30.0348C31.9674 27.5074 35.5896 22.1143 35.5896 15.7959C35.5896 7.08559 28.6563 0 20.0341 0ZM13.3674 18.0525C12.1452 18.0525 11.1452 17.037 11.1452 15.7959C11.1452 14.5548 12.1452 13.5393 13.3674 13.5393C14.5896 13.5393 15.5896 14.5548 15.5896 15.7959C15.5896 17.037 14.5896 18.0525 13.3674 18.0525ZM20.0341 18.0525C18.8119 18.0525 17.8119 17.037 17.8119 15.7959C17.8119 14.5548 18.8119 13.5393 20.0341 13.5393C21.2563 13.5393 22.2563 14.5548 22.2563 15.7959C22.2563 17.037 21.2563 18.0525 20.0341 18.0525ZM26.7008 18.0525C25.4785 18.0525 24.4785 17.037 24.4785 15.7959C24.4785 14.5548 25.4785 13.5393 26.7008 13.5393C27.923 13.5393 28.923 14.5548 28.923 15.7959C28.923 17.037 27.923 18.0525 26.7008 18.0525Z" fill="white"/>
</svg>
