<svg width="40" height="41" viewBox="0 0 40 41" fill="none" xmlns="http://www.w3.org/2000/svg">
<path d="M19.9989 0C20.4888 6.56232e-05 20.9616 0.182702 21.3277 0.513268C21.6938 0.843834 21.9277 1.29934 21.985 1.79338L21.999 2.03101V2.14272C25.964 2.59411 29.6691 4.3696 32.5329 7.19051C35.3967 10.0114 37.257 13.7181 37.8219 17.7287L37.8899 18.2791H37.9999C38.5097 18.2797 39 18.4779 39.3707 18.8333C39.7414 19.1886 39.9645 19.6743 39.9943 20.1911C40.0242 20.7079 39.8586 21.2167 39.5314 21.6137C39.2042 22.0107 38.7401 22.2658 38.2339 22.3269L37.9999 22.3412H37.8899C37.4454 26.3674 35.6969 30.1298 32.9189 33.0378C30.1409 35.9458 26.4906 37.8349 22.541 38.4085L21.999 38.4776V38.5893C21.9984 39.1069 21.8032 39.6048 21.4533 39.9813C21.1033 40.3577 20.625 40.5842 20.1161 40.6145C19.6072 40.6449 19.1061 40.4767 18.7152 40.1445C18.3242 39.8122 18.073 39.3409 18.0128 38.8269L17.9988 38.5893V38.4776C14.0338 38.0262 10.3287 36.2507 7.46489 33.4298C4.60111 30.6088 2.74078 26.9022 2.1759 22.8916L2.1079 22.3412H1.99789C1.48811 22.3406 0.997775 22.1424 0.627082 21.787C0.25639 21.4316 0.0333162 20.9459 0.00344026 20.4292C-0.0264356 19.9124 0.139141 19.4035 0.46634 19.0066C0.793539 18.6096 1.25766 18.3545 1.76388 18.2933L1.99789 18.2791H2.1079C2.55242 14.2529 4.30089 10.4905 7.07889 7.58248C9.85688 4.67445 13.5071 2.78538 17.4568 2.21177L17.9988 2.14272V2.03101C17.9988 1.49236 18.2095 0.975759 18.5846 0.59487C18.9597 0.213981 19.4684 0 19.9989 0ZM19.9989 10.1551C17.3466 10.1551 14.8029 11.225 12.9274 13.1294C11.052 15.0339 9.99834 17.6168 9.99834 20.3101C9.99834 23.0034 11.052 25.5864 12.9274 27.4909C14.8029 29.3953 17.3466 30.4652 19.9989 30.4652C22.6512 30.4652 25.1949 29.3953 27.0704 27.4909C28.9458 25.5864 29.9994 23.0034 29.9994 20.3101C29.9994 17.6168 28.9458 15.0339 27.0704 13.1294C25.1949 11.225 22.6512 10.1551 19.9989 10.1551ZM19.9989 14.2171C21.5903 14.2171 23.1165 14.859 24.2418 16.0017C25.367 17.1444 25.9992 18.6942 25.9992 20.3101C25.9992 21.9261 25.367 23.4759 24.2418 24.6186C23.1165 25.7612 21.5903 26.4032 19.9989 26.4032C18.4075 26.4032 16.8813 25.7612 15.756 24.6186C14.6307 23.4759 13.9986 21.9261 13.9986 20.3101C13.9986 18.6942 14.6307 17.1444 15.756 16.0017C16.8813 14.859 18.4075 14.2171 19.9989 14.2171Z" fill="white"/>
</svg>
