<svg width="64" height="55" viewBox="0 0 64 55" fill="none" xmlns="http://www.w3.org/2000/svg">
<path d="M22 27.2047L12 27.2047L12 19.432C12 15.1448 15.5875 11.6593 20 11.6593L20.9999 11.6593C21.3942 11.6602 21.7847 11.5854 22.1491 11.4393C22.5135 11.2931 22.8446 11.0784 23.1234 10.8076C23.4022 10.5367 23.6231 10.215 23.7736 9.86098C23.924 9.50693 24.0009 9.12748 24 8.74444L24 2.91491C24.0009 2.53187 23.924 2.15242 23.7736 1.79837C23.6231 1.44431 23.4022 1.12261 23.1234 0.851764C22.8446 0.580914 22.5135 0.366246 22.1491 0.220087C21.7847 0.0739288 21.3942 -0.000839157 20.9999 7.929e-05L20 7.91986e-05C8.95001 7.81878e-05 -6.67098e-06 8.69581 -7.568e-06 19.4319L-1.00033e-05 48.5796C-1.02723e-05 51.798 2.68748 54.4092 5.99999 54.4092L22 54.4092C25.3125 54.4092 28 51.798 28 48.5796L28 33.0342C28 29.8158 25.3125 27.2047 22 27.2047ZM58 27.2047L48 27.2047L48 19.432C48 15.1448 51.5875 11.6593 56 11.6593L56.9999 11.6593C57.3942 11.6602 57.7847 11.5854 58.1491 11.4393C58.5135 11.2931 58.8446 11.0784 59.1234 10.8076C59.4022 10.5367 59.6231 10.215 59.7736 9.86099C59.924 9.50693 60.0009 9.12748 60 8.74445L60 2.91491C60.0009 2.53188 59.924 2.15243 59.7736 1.79837C59.6231 1.44431 59.4022 1.12262 59.1234 0.851768C58.8446 0.580918 58.5135 0.366249 58.1491 0.220091C57.7847 0.0739321 57.3942 -0.000835864 56.9999 8.25831e-05L56 8.24916e-05C44.95 8.14808e-05 36 8.69582 36 19.4319L36 48.5796C36 51.798 38.6875 54.4092 42 54.4092L58 54.4092C61.3125 54.4092 64 51.798 64 48.5796L64 33.0342C64 29.8158 61.3125 27.2047 58 27.2047Z" fill="white"/>
</svg>
