<svg width="35" height="35" viewBox="0 0 35 35" fill="none" xmlns="http://www.w3.org/2000/svg">
<path d="M15.7065 6.04772C16.2083 6.04772 16.6895 6.24705 17.0443 6.60186C17.3991 6.95667 17.5984 7.43789 17.5984 7.93967C17.5984 8.44144 17.3991 8.92266 17.0443 9.27747C16.6895 9.63228 16.2083 9.83161 15.7065 9.83161H4.35481V30.643H25.1662V19.2913C25.1662 18.7896 25.3655 18.3083 25.7203 17.9535C26.0751 17.5987 26.5564 17.3994 27.0581 17.3994C27.5599 17.3994 28.0411 17.5987 28.396 17.9535C28.7508 18.3083 28.9501 18.7896 28.9501 19.2913V30.643C28.9501 31.6466 28.5514 32.609 27.8418 33.3186C27.1322 34.0282 26.1698 34.4269 25.1662 34.4269H4.35481C3.35126 34.4269 2.38882 34.0282 1.6792 33.3186C0.969581 32.609 0.570923 31.6466 0.570923 30.643V9.83161C0.570923 8.82806 0.969581 7.86561 1.6792 7.156C2.38882 6.44638 3.35126 6.04772 4.35481 6.04772H15.7065ZM32.734 0.371887C33.2358 0.371887 33.717 0.571216 34.0718 0.926025C34.4266 1.28083 34.6259 1.76206 34.6259 2.26383V11.7236C34.6259 12.2253 34.4266 12.7066 34.0718 13.0614C33.717 13.4162 33.2358 13.6155 32.734 13.6155C32.2322 13.6155 31.751 13.4162 31.3962 13.0614C31.0414 12.7066 30.842 12.2253 30.842 11.7236V6.83099L15.1521 22.5209C14.7953 22.8655 14.3174 23.0562 13.8213 23.0519C13.3253 23.0476 12.8508 22.8486 12.5 22.4978C12.1492 22.1471 11.9502 21.6725 11.9459 21.1765C11.9416 20.6804 12.1323 20.2025 12.4769 19.8457L28.1668 4.15578H23.2743C22.7725 4.15578 22.2913 3.95645 21.9365 3.60164C21.5816 3.24683 21.3823 2.76561 21.3823 2.26383C21.3823 1.76206 21.5816 1.28083 21.9365 0.926025C22.2913 0.571216 22.7725 0.371887 23.2743 0.371887H32.734Z" fill="white"/>
</svg>
