<svg width="54" height="50" viewBox="0 0 54 50" fill="none" xmlns="http://www.w3.org/2000/svg">
<path d="M2.88462 36.5385C2.11957 36.5385 1.38585 36.2345 0.844884 35.6936C0.303914 35.1526 0 34.4189 0 33.6538V3.84615C0 2.82609 0.405218 1.84781 1.12651 1.12651C1.84781 0.405218 2.82609 0 3.84615 0H25C26.0201 0 26.9983 0.405218 27.7196 1.12651C28.4409 1.84781 28.8462 2.82609 28.8462 3.84615V5.76923H36.5385C37.5585 5.76923 38.5368 6.17445 39.2581 6.89574C39.9794 7.61704 40.3846 8.59532 40.3846 9.61538V13.4615H50C51.0201 13.4615 51.9983 13.8668 52.7196 14.5881C53.4409 15.3093 53.8462 16.2876 53.8462 17.3077V46.1538H27.8846C27.6296 46.1538 27.385 46.2551 27.2047 46.4355C27.0244 46.6158 26.9231 46.8604 26.9231 47.1154C26.9231 47.3704 27.0244 47.615 27.2047 47.7953C27.385 47.9756 27.6296 48.0769 27.8846 48.0769H53.6827C53.4838 48.6396 53.1152 49.1267 52.6279 49.4711C52.1405 49.8155 51.5583 50.0003 50.9615 50H27.8846C27.1196 50 26.3859 49.6961 25.8449 49.1551C25.3039 48.6141 25 47.8804 25 47.1154V42.3077H14.4231C13.658 42.3077 12.9243 42.0038 12.3833 41.4628C11.8424 40.9218 11.5385 40.1881 11.5385 39.4231V36.5385H2.88462ZM28.6827 34.6154C28.4838 35.178 28.1152 35.6651 27.6279 36.0096C27.1405 36.354 26.5583 36.5388 25.9615 36.5385H38.4615V9.61538C38.4615 9.10535 38.2589 8.61621 37.8983 8.25556C37.5376 7.89492 37.0485 7.69231 36.5385 7.69231H28.8462V32.6923H2.88462C2.6296 32.6923 2.38503 32.7936 2.20471 32.9739C2.02438 33.1543 1.92308 33.3988 1.92308 33.6538C1.92308 33.9089 2.02438 34.1534 2.20471 34.3338C2.38503 34.5141 2.6296 34.6154 2.88462 34.6154H28.6827ZM13.4615 36.5385H14.4231C14.0865 36.5385 13.7615 36.5962 13.4615 36.7019V36.5385ZM26.9231 30.7692V3.84615C26.9231 3.33612 26.7205 2.84698 26.3598 2.48633C25.9992 2.12569 25.51 1.92308 25 1.92308H5.76923V30.7692H26.9231ZM26.9231 42.3077V44.3942C27.2231 44.2885 27.5481 44.2308 27.8846 44.2308H51.9231V17.3077C51.9231 16.7977 51.7205 16.3085 51.3598 15.9479C50.9992 15.5872 50.51 15.3846 50 15.3846H40.3846V38.4615H14.4231C14.1681 38.4615 13.9235 38.5628 13.7432 38.7432C13.5628 38.9235 13.4615 39.1681 13.4615 39.4231C13.4615 39.6781 13.5628 39.9227 13.7432 40.103C13.9235 40.2833 14.1681 40.3846 14.4231 40.3846H40.2212C40.0222 40.9473 39.6537 41.4344 39.1663 41.7788C38.679 42.1232 38.0968 42.308 37.5 42.3077H26.9231Z" fill="#2F3A5A"/>
</svg>
