<svg width="30" height="30" viewBox="0 0 30 30" fill="none" xmlns="http://www.w3.org/2000/svg">
<path d="M13.0319 5.54246C13.4583 5.54246 13.8673 5.71186 14.1688 6.0134C14.4704 6.31494 14.6398 6.72391 14.6398 7.15034C14.6398 7.57678 14.4704 7.98575 14.1688 8.28729C13.8673 8.58883 13.4583 8.75823 13.0319 8.75823H3.38459V26.4449H21.0713V16.7976C21.0713 16.3712 21.2407 15.9622 21.5422 15.6607C21.8438 15.3592 22.2528 15.1898 22.6792 15.1898C23.1056 15.1898 23.5146 15.3592 23.8161 15.6607C24.1177 15.9622 24.2871 16.3712 24.2871 16.7976V26.4449C24.2871 27.2978 23.9483 28.1158 23.3452 28.7188C22.7421 29.3219 21.9242 29.6607 21.0713 29.6607H3.38459C2.53172 29.6607 1.71377 29.3219 1.1107 28.7188C0.507626 28.1158 0.168823 27.2978 0.168823 26.4449V8.75823C0.168823 7.90535 0.507626 7.08741 1.1107 6.48434C1.71377 5.88126 2.53172 5.54246 3.38459 5.54246H13.0319ZM27.5028 0.718811C27.9293 0.718811 28.3382 0.888212 28.6398 1.18975C28.9413 1.49129 29.1107 1.90026 29.1107 2.32669V10.3661C29.1107 10.7925 28.9413 11.2015 28.6398 11.5031C28.3382 11.8046 27.9293 11.974 27.5028 11.974C27.0764 11.974 26.6674 11.8046 26.3659 11.5031C26.0644 11.2015 25.895 10.7925 25.895 10.3661V6.20812L12.5608 19.5423C12.2575 19.8352 11.8514 19.9973 11.4298 19.9936C11.0082 19.9899 10.6049 19.8208 10.3068 19.5227C10.0087 19.2246 9.83961 18.8213 9.83594 18.3997C9.83228 17.9782 9.99434 17.572 10.2872 17.2688L23.6214 3.93458H19.4634C19.037 3.93458 18.628 3.76518 18.3265 3.46364C18.0249 3.1621 17.8555 2.75313 17.8555 2.32669C17.8555 1.90026 18.0249 1.49129 18.3265 1.18975C18.628 0.888212 19.037 0.718811 19.4634 0.718811H27.5028Z" fill="white"/>
</svg>
