<svg width="40" height="41" viewBox="0 0 40 41" fill="none" xmlns="http://www.w3.org/2000/svg">
<path d="M20 0C25.3043 0 30.3914 2.13969 34.1421 5.94837C37.8929 9.75705 40 14.9227 40 20.309C40 25.6953 37.8929 30.861 34.1421 34.6696C30.3914 38.4783 25.3043 40.618 20 40.618C14.6957 40.618 9.60859 38.4783 5.85786 34.6696C2.10714 30.861 0 25.6953 0 20.309C0 14.9227 2.10714 9.75705 5.85786 5.94837C9.60859 2.13969 14.6957 0 20 0ZM17.5086 24.3157L13.0657 19.8013C12.9064 19.6395 12.7174 19.5113 12.5093 19.4237C12.3011 19.3362 12.0781 19.2911 11.8529 19.2911C11.6276 19.2911 11.4046 19.3362 11.1965 19.4237C10.9884 19.5113 10.7993 19.6395 10.64 19.8013C10.3183 20.1279 10.1376 20.5709 10.1376 21.0329C10.1376 21.4948 10.3183 21.9378 10.64 22.2645L16.2971 28.009C16.456 28.1716 16.6449 28.3006 16.8531 28.3886C17.0612 28.4767 17.2845 28.522 17.51 28.522C17.7355 28.522 17.9588 28.4767 18.1669 28.3886C18.3751 28.3006 18.564 28.1716 18.7229 28.009L30.4371 16.1108C30.5985 15.9498 30.7269 15.7579 30.8149 15.5462C30.9029 15.3344 30.9488 15.1071 30.9498 14.8774C30.9509 14.6476 30.9071 14.4198 30.8211 14.2073C30.735 13.9948 30.6084 13.8017 30.4485 13.6391C30.2885 13.4765 30.0985 13.3477 29.8893 13.26C29.6801 13.1724 29.4559 13.1277 29.2296 13.1285C29.0033 13.1293 28.7794 13.1756 28.5708 13.2647C28.3622 13.3538 28.1731 13.4839 28.0143 13.6477L17.5086 24.3157Z" fill="white"/>
</svg>
