<svg width="40" height="29" viewBox="0 0 40 29" fill="none" xmlns="http://www.w3.org/2000/svg">
<g clip-path="url(#clip0_1_778)">
<path d="M39.1166 4.38672C38.8872 3.53884 38.4396 2.76585 37.8185 2.14473C37.1974 1.52361 36.4245 1.07603 35.5766 0.846563C32.4725 0 19.9797 0 19.9797 0C19.9797 0 7.48628 0.0256249 4.38222 0.872187C3.53433 1.10167 2.76135 1.54927 2.14025 2.17042C1.51916 2.79157 1.07163 3.56459 0.842218 4.4125C-0.0966887 9.92781 -0.460908 18.3319 0.867999 23.6266C1.09743 24.4744 1.54498 25.2474 2.16607 25.8685C2.78716 26.4897 3.56013 26.9372 4.408 27.1667C7.51206 28.0133 20.0052 28.0133 20.0052 28.0133C20.0052 28.0133 32.4982 28.0133 35.6021 27.1667C36.45 26.9373 37.223 26.4897 37.8441 25.8686C38.4652 25.2475 38.9128 24.4745 39.1422 23.6266C40.1325 18.1034 40.4377 9.70453 39.1166 4.38672Z" fill="#FF0000"/>
<path d="M16.0033 20.0093L26.367 14.0065L16.0033 8.00366V20.0093Z" fill="white"/>
</g>
<defs>
<clipPath id="clip0_1_778">
<rect width="40" height="28.125" fill="white"/>
</clipPath>
</defs>
</svg>
